<svg width="256" height="256" viewBox="0 0 256 256" fill="none" xmlns="http://www.w3.org/2000/svg">
<path d="M205.858 49.8978C189.598 33.6374 164.889 30.3794 145.096 41.6468L142.574 43.1623C137.5 46.2884 132.514 49.5683 127.627 52.9983C123.48 55.9012 119.406 58.9139 115.401 62.0291C111.557 65.0198 107.783 68.1057 104.082 71.2831C98.1301 76.3896 92.3646 81.7268 86.8005 87.2909C86.676 87.4154 86.5552 87.5362 86.4344 87.6606C77.5428 96.5779 69.2259 106.015 61.5386 115.895C58.4198 119.896 55.4108 123.974 52.5043 128.118C48.9535 133.18 45.5638 138.345 42.3388 143.602C42.2216 143.781 42.1081 143.961 42.002 144.148C40.794 146.117 39.7361 148.138 38.8246 150.202C36.4854 155.488 35.1127 161.038 34.6734 166.62C33.5387 180.984 38.6049 195.55 49.4074 206.349C66.0339 222.979 91.5923 226.006 111.608 213.739C111.795 213.63 111.978 213.516 112.158 213.395C117.411 210.174 122.568 206.788 127.627 203.241C131.775 200.338 135.853 197.322 139.857 194.206C143.697 191.216 147.468 188.133 151.169 184.956C157.121 179.853 162.89 174.509 168.454 168.944C168.579 168.82 168.703 168.696 168.824 168.571C177.708 159.661 186.025 150.228 193.712 140.344C196.831 136.343 199.844 132.265 202.747 128.118C206.18 123.223 209.46 118.234 212.59 113.157L214.116 110.616C214.969 109.112 215.742 107.582 216.426 106.03C218.769 100.74 220.149 95.1905 220.592 89.6154C221.731 75.2585 216.672 60.7112 205.858 49.8978ZM204.786 96.1569C203.933 98.9536 202.728 101.684 201.165 104.287L199.741 106.582V106.601C197.794 109.734 195.784 112.831 193.712 115.891C190.908 120.039 187.994 124.117 184.967 128.118C176.826 138.909 167.905 149.163 158.289 158.779C154.101 162.967 149.792 167.023 145.37 170.94C139.638 176.024 133.719 180.867 127.631 185.461C127.455 185.593 127.283 185.725 127.107 185.856C123.271 188.741 119.365 191.523 115.401 194.206C111.828 196.622 108.204 198.958 104.532 201.205L104.349 201.323L104.174 201.429C89.8388 210.265 71.4992 208.109 59.5729 196.183C53.7342 190.344 50.2347 182.976 49.2207 175.292C48.5508 170.24 48.9535 165.053 50.469 160.078C51.3621 157.146 52.6434 154.287 54.3163 151.571L54.5396 151.212C56.7872 147.541 59.1226 143.917 61.5386 140.344C64.3427 136.2 67.2565 132.122 70.2802 128.118C78.4214 117.334 87.3459 107.08 96.966 97.4564C101.157 93.265 105.466 89.2091 109.888 85.2959C115.617 80.215 121.54 75.3683 127.631 70.7743C127.799 70.6425 127.971 70.5143 128.147 70.3826C131.983 67.5017 135.889 64.7123 139.861 62.0327C142.918 59.9608 146.015 57.9512 149.144 56.0074L151.443 54.5907C165.731 46.0029 183.84 48.2139 195.689 60.0633C201.531 65.9056 205.031 73.2708 206.041 80.9508C206.711 85.9987 206.305 91.1822 204.786 96.1569Z" fill="url(#paint0_linear)"/>
<path d="M220.592 89.6154C216.339 85.9841 211.437 83.0337 206.041 80.9508C204.445 80.3285 202.805 79.7867 201.125 79.3255L198.27 78.6153C182.844 74.951 167.081 72.4984 151.172 71.2831C143.525 70.6974 135.842 70.3972 128.147 70.3826H127.107C119.409 70.3972 111.729 70.6974 104.082 71.2831C87.9499 72.5131 71.9787 75.0169 56.3698 78.758C56.1612 78.8056 55.9525 78.8496 55.7475 78.9081C53.4999 79.4463 51.3219 80.1308 49.217 80.9434C43.8249 83.03 38.9307 85.9804 34.6734 89.6154C23.7136 98.9683 17 112.853 17 128.125C17 143.393 23.7136 157.271 34.6734 166.62C38.9307 170.259 43.8286 173.209 49.2207 175.292C51.3255 176.108 53.5109 176.793 55.7585 177.331C55.9672 177.39 56.1758 177.437 56.3881 177.481C71.9933 181.222 87.9609 183.722 104.086 184.956C111.729 185.545 119.413 185.842 127.107 185.856H128.154C135.845 185.842 143.522 185.542 151.169 184.956C167.085 183.737 182.855 181.284 198.284 177.62L201.158 176.903C202.827 176.445 204.452 175.907 206.038 175.292C211.433 173.209 216.331 170.259 220.588 166.627C231.545 157.282 238.255 143.415 238.255 128.125C238.255 112.831 231.548 98.9646 220.592 89.6154ZM216.43 150.213C213.333 154.254 209.38 157.637 204.786 160.078C202.205 161.455 199.426 162.531 196.48 163.267L193.848 163.882L193.833 163.897C185.586 165.818 177.24 167.381 168.824 168.571C161.056 169.677 153.23 170.467 145.37 170.94C139.469 171.298 133.55 171.478 127.627 171.478C121.701 171.478 115.785 171.298 109.888 170.94C102.029 170.467 94.1986 169.68 86.4344 168.575C77.4001 167.297 68.4462 165.591 59.6168 163.468L59.4045 163.424L59.2032 163.373C56.099 162.637 53.1741 161.521 50.4689 160.078C45.8749 157.633 41.9214 154.247 38.8246 150.202C34.1133 144.052 31.3789 136.372 31.3789 128.125C31.3789 119.874 34.1134 112.19 38.8282 106.037C41.9251 101.988 45.8785 98.6059 50.4689 96.1569C53.1741 94.7147 56.099 93.5982 59.2032 92.8624L59.6168 92.7672C68.4462 90.6441 77.4001 88.9382 86.4344 87.6606C94.1986 86.5551 102.029 85.7681 109.888 85.2959C115.785 84.9372 121.701 84.7578 127.627 84.7578C133.55 84.7578 139.469 84.9372 145.367 85.2959C153.226 85.7681 161.056 86.5588 168.824 87.6643C177.24 88.854 185.586 90.4171 193.833 92.3426L196.461 92.9649C199.412 93.7007 202.201 94.7805 204.786 96.1569C209.38 98.6059 213.333 101.985 216.426 106.03C221.141 112.176 223.876 119.859 223.876 128.125C223.876 136.387 221.141 144.067 216.43 150.213Z" fill="url(#paint1_linear)"/>
<path d="M220.589 166.627C220.149 161.049 218.769 155.499 216.43 150.213C215.738 148.646 214.962 147.102 214.098 145.586L212.583 143.068C209.457 137.994 206.177 133.008 202.747 128.118C199.84 123.97 196.828 119.896 193.712 115.891C186.021 106.011 177.708 96.5779 168.824 87.6643C168.703 87.5398 168.579 87.4154 168.454 87.2909C162.89 81.7268 157.125 76.386 151.172 71.2831C147.472 68.1057 143.697 65.0198 139.861 62.0327C135.853 58.9139 131.775 55.9012 127.627 52.9983C122.565 49.4439 117.4 46.0542 112.143 42.8328C111.964 42.7157 111.784 42.6022 111.598 42.496C91.5887 30.2293 66.0303 33.2677 49.3965 49.8978C38.6014 60.6929 33.5387 75.2548 34.6735 89.6154C35.1128 95.1978 36.4892 100.747 38.8283 106.037C39.7398 108.101 40.8014 110.129 42.0094 112.099C42.1155 112.286 42.229 112.469 42.3498 112.648C45.5712 117.901 48.9572 123.059 52.5043 128.118C55.4109 132.265 58.4236 136.339 61.5387 140.344C69.226 150.224 77.5429 159.658 86.4345 168.575C86.5553 168.699 86.6761 168.82 86.8006 168.944C92.3647 174.509 98.1302 179.849 104.086 184.956C107.787 188.133 111.557 191.216 115.401 194.206C119.402 197.322 123.48 200.334 127.627 203.241C132.522 206.674 137.511 209.958 142.588 213.084L145.129 214.607C164.918 225.86 189.601 222.594 205.847 206.349C216.661 195.535 221.727 180.984 220.589 166.627ZM195.682 196.183C183.84 208.021 165.745 210.232 151.462 201.659L149.163 200.232H149.144C146.011 198.284 142.914 196.278 139.857 194.206C135.889 191.523 131.987 188.741 128.155 185.856C127.979 185.728 127.803 185.597 127.631 185.461C121.54 180.867 115.617 176.02 109.888 170.939C105.466 167.026 101.158 162.97 96.9661 158.779C87.346 149.159 78.4215 138.902 70.2803 128.118C67.2566 124.117 64.3428 120.039 61.5387 115.895C59.1227 112.322 56.7873 108.698 54.5396 105.027L54.4225 104.84L54.3164 104.664C52.6435 101.948 51.3622 99.0891 50.4691 96.1569C48.9536 91.1785 48.5509 85.9914 49.2171 80.9434C50.2348 73.2635 53.7307 65.8946 59.562 60.0633C71.4956 48.1297 89.8426 45.97 104.174 54.8067L104.533 55.03C108.204 57.2776 111.828 59.6131 115.401 62.0291C119.365 64.7123 123.271 67.498 127.108 70.3826C127.283 70.5143 127.459 70.6461 127.631 70.7742C133.719 75.3683 139.638 80.215 145.367 85.2959C149.789 89.2091 154.097 93.2687 158.289 97.4601C167.905 107.077 176.826 117.33 184.967 128.118C187.994 132.119 190.908 136.197 193.712 140.344C195.784 143.404 197.794 146.501 199.741 149.635L201.154 151.934C202.721 154.544 203.929 157.278 204.786 160.078C206.305 165.057 206.711 170.24 206.038 175.292C205.024 182.972 201.524 190.341 195.682 196.183Z" fill="url(#paint2_linear)"/>
<path d="M151.407 128.114C151.407 141.226 140.743 151.89 127.635 151.89C114.511 151.89 103.844 141.226 103.844 128.114C103.844 115.005 114.511 104.342 127.635 104.342C140.743 104.342 151.407 115.005 151.407 128.114Z" fill="url(#paint3_linear)"/>
<defs>
<linearGradient id="paint0_linear" x1="49.397" y1="206.356" x2="205.846" y2="49.9062" gradientUnits="userSpaceOnUse">
<stop stop-color="#DB5393"/>
<stop offset="1" stop-color="#4DC0F6"/>
</linearGradient>
<linearGradient id="paint1_linear" x1="16.9989" y1="128.118" x2="238.253" y2="128.118" gradientUnits="userSpaceOnUse">
<stop stop-color="#DB5393"/>
<stop offset="1" stop-color="#4DC0F6"/>
</linearGradient>
<linearGradient id="paint2_linear" x1="49.4115" y1="49.8777" x2="205.861" y2="206.327" gradientUnits="userSpaceOnUse">
<stop stop-color="#DB5393"/>
<stop offset="1" stop-color="#4DC0F6"/>
</linearGradient>
<linearGradient id="paint3_linear" x1="103.843" y1="128.115" x2="151.405" y2="128.115" gradientUnits="userSpaceOnUse">
<stop stop-color="#DB5393"/>
<stop offset="1" stop-color="#4DC0F6"/>
</linearGradient>
</defs>
</svg>
