<?xml version="1.0" encoding="utf-8"?>
<!-- Generator: Adobe Illustrator 25.0.0, SVG Export Plug-In . SVG Version: 6.00 Build 0)  -->
<svg version="1.1" id="Camada_1" xmlns="http://www.w3.org/2000/svg" xmlns:xlink="http://www.w3.org/1999/xlink" x="0px" y="0px"
	 viewBox="0 0 4501.81 1526.27" style="enable-background:new 0 0 4501.81 1526.27;" xml:space="preserve">
<style type="text/css">
	.st0{fill:#481380;}
	.st1{fill:#C6D8D9;}
	.st2{fill:url(#SVGID_1_);}
	.st3{fill:url(#SVGID_2_);}
	.st4{fill:url(#SVGID_3_);}
	.st5{fill:url(#SVGID_4_);}
	.st6{fill:url(#SVGID_5_);}
	.st7{fill:url(#SVGID_6_);}
	.st8{fill:url(#SVGID_7_);}
	.st9{fill:url(#SVGID_8_);}
	.st10{fill:url(#SVGID_9_);}
	.st11{fill:url(#SVGID_10_);}
	.st12{fill:url(#SVGID_11_);}
	.st13{fill:url(#SVGID_12_);}
	.st14{fill:url(#SVGID_13_);}
	.st15{fill:url(#SVGID_14_);}
	.st16{fill:url(#SVGID_15_);}
	.st17{fill:url(#SVGID_16_);}
	.st18{fill:#DB5393;}
	.st19{fill:#4DC0F6;}
	.st20{clip-path:url(#SVGID_18_);}
	.st21{clip-path:url(#SVGID_20_);}
	.st22{fill:url(#SVGID_23_);}
	.st23{fill:url(#SVGID_24_);}
	.st24{fill:url(#SVGID_25_);}
	.st25{fill:url(#SVGID_26_);}
	.st26{fill:url(#SVGID_27_);}
	.st27{fill:url(#SVGID_28_);}
	.st28{fill:url(#SVGID_29_);}
	.st29{fill:url(#SVGID_30_);}
	.st30{fill:url(#SVGID_31_);}
	.st31{fill:url(#SVGID_32_);}
	.st32{fill:url(#SVGID_33_);}
	.st33{fill:url(#SVGID_34_);}
	.st34{fill:url(#SVGID_35_);}
	.st35{fill:url(#SVGID_36_);}
	.st36{fill:url(#SVGID_37_);}
	.st37{fill:url(#SVGID_38_);}
	.st38{fill:url(#SVGID_39_);}
</style>
<g>
	<g>
		<g>
			<path class="st1" d="M1784.2,639.07v170.79c0,13.27-10.76,24.01-24.01,24.01h-158.53c-13.25,0-23.99-10.74-23.99-24.01V639.07
				h48.02v146.8h110.52v-146.8H1784.2z"/>
			<path class="st1" d="M2106.72,639.07v48h-58.7v146.8H2000v-146.8h-33.64l-23.99,41.56l-46.24,80.11
				c-0.37,0.68-0.76,1.37-1.16,2.01c-8.41,13.86-23.64,23.12-41.04,23.12h-45.73v-48.02h45.71l23.99-41.56l46.26-80.09
				c0.37-0.68,0.76-1.37,1.16-2.01c8.41-13.86,23.66-23.12,41.04-23.12H2106.72z"/>
			<polygon class="st1" points="2415.12,777.39 2335.07,639.05 2279.4,639.09 2392.13,833.86 2437.85,833.88 2550.43,639.08 
				2494.9,639.07 			"/>
			<path class="st1" d="M2348.61,833.87h-55.69l-60.97-105.65l-23.99-41.56h-29.25v147.2h-48V638.65h77.26
				c17.38,0,32.63,9.26,41.04,23.12c0.41,0.66,0.79,1.33,1.16,2.01L2348.61,833.87z"/>
			<path class="st1" d="M2773.83,660.61c-1.24-12.12-11.44-21.53-23.86-21.53h-158.49c-12.42,0-22.66,9.41-23.9,21.53
				c-0.08,0.79-0.11,1.62-0.11,2.45v146.79c0,13.29,10.73,24.01,23.98,24.01h158.53c13.25,0,23.97-10.73,23.97-24.01V663.06
				C2773.94,662.23,2773.91,661.4,2773.83,660.61z M2725.96,785.83h-110.54v-98.76h110.54V785.83z"/>
			<path class="st1" d="M1389.3,687.07v98.8h110.52v-37.05h48v61.04c0,13.27-10.74,24.01-23.99,24.01h-158.53
				c-13.25,0-23.99-10.74-23.99-24.01V663.08c0-13.25,10.74-24.01,23.99-24.01h182.52v48H1389.3z"/>
			<path class="st1" d="M2941.98,687.07v98.8l158.53-0.02v48.02h-182.54c-13.25,0-23.99-10.76-23.99-24.01v-147.2
				c0-11.7,8.38-21.46,19.47-23.58h187.06v48H2941.98z"/>
			<path class="st1" d="M3330.9,660.61c-1.24-12.12-11.44-21.53-23.86-21.53h-158.49c-12.42,0-22.66,9.41-23.9,21.53
				c-0.08,0.79-0.11,1.62-0.11,2.45v146.79c0,13.25,10.73,24.01,23.98,24.01h158.53c13.25,0,23.98-10.76,23.98-24.01V663.06
				C3331.01,662.23,3330.97,661.4,3330.9,660.61z M3283.02,785.83h-110.54v-98.76h110.54V785.83z"/>
			<path class="st1" d="M3653.55,639.07v48h-58.72v146.8h-48v-146.8h-33.64l-23.99,41.56l-46.24,80.11
				c-0.37,0.68-0.76,1.37-1.16,2.01c-8.41,13.86-23.66,23.12-41.04,23.12h-45.73v-48.02h45.71l23.99-41.54l46.24-80.11
				c0.37-0.68,0.76-1.37,1.16-2.01c8.41-13.86,23.66-23.12,41.04-23.12H3653.55z"/>
			<path class="st1" d="M3895.44,833.87h-55.69l-60.99-105.65l-23.99-41.58h-29.23v147.22h-48V638.65h77.25
				c17.4,0,32.63,9.25,41.04,23.1c0.41,0.66,0.79,1.33,1.16,2.01L3895.44,833.87z"/>
		</g>
	</g>
	<g>
		<g>
			<g>
				<g>
					
						<linearGradient id="SVGID_1_" gradientUnits="userSpaceOnUse" x1="3522.1663" y1="-2035.4224" x2="4126.5923" y2="-2035.4224" gradientTransform="matrix(0.7071 -0.7071 0.7071 0.7071 -356.4149 4906.6313)">
						<stop  offset="0" style="stop-color:#DB5393"/>
						<stop  offset="1" style="stop-color:#4DC0F6"/>
					</linearGradient>
					<path class="st2" d="M1122.27,549.44c-44.42-44.42-111.9-53.31-165.99-22.53l-6.89,4.14c-13.85,8.53-27.49,17.5-40.85,26.89
						c-11.32,7.93-22.42,16.14-33.35,24.67c-10.5,8.14-20.82,16.57-30.92,25.24c-16.28,13.93-32.03,28.53-47.24,43.74l-1.04,1.04
						c-24.24,24.35-46.99,50.13-67.98,77.12c-8.5,10.93-16.75,22.03-24.67,33.35c-9.71,13.85-19,27.99-27.78,42.35
						c-0.32,0.46-0.61,0.96-0.93,1.46c-3.29,5.36-6.18,10.89-8.68,16.5c-6.39,14.46-10.14,29.64-11.32,44.88
						c-3.11,39.24,10.71,79.05,40.24,108.54c45.42,45.45,115.26,53.7,169.92,20.21c0.5-0.32,1-0.61,1.5-0.93
						c14.35-8.82,28.46-18.07,42.28-27.78c11.32-7.93,22.46-16.14,33.38-24.67c10.53-8.18,20.85-16.6,30.96-25.28
						c16.25-13.96,31.99-28.53,47.17-43.7c0.36-0.36,0.71-0.71,1.07-1.07c24.24-24.32,46.95-50.09,67.91-77.09
						c8.53-10.93,16.78-22.07,24.74-33.38c9.35-13.39,18.32-26.99,26.85-40.88l4.18-6.93c2.32-4.11,4.43-8.28,6.32-12.53
						c6.39-14.43,10.18-29.56,11.35-44.81C1165.66,618.74,1151.84,579,1122.27,549.44z M1119.35,675.84
						c-2.32,7.64-5.61,15.1-9.89,22.21l-3.89,6.25v0.07c-5.32,8.57-10.82,17.03-16.5,25.39c-7.64,11.32-15.6,22.46-23.82,33.38
						c-22.28,29.46-46.67,57.49-72.95,83.76c-11.46,11.43-23.21,22.49-35.28,33.17c-15.68,13.92-31.85,27.17-48.49,39.7
						c-0.46,0.36-0.93,0.71-1.43,1.07c-10.46,7.89-21.1,15.5-31.92,22.82c-9.78,6.61-19.67,13-29.71,19.14l-0.5,0.32l-0.5,0.29
						c-39.13,24.14-89.26,18.24-121.83-14.35c-15.96-15.96-25.49-36.06-28.28-57.06c-1.86-13.78-0.75-27.96,3.43-41.56
						c2.43-8,5.93-15.82,10.5-23.24l0.61-0.96c6.14-10.03,12.5-19.92,19.14-29.71c7.64-11.32,15.6-22.46,23.89-33.38
						c22.21-29.49,46.6-57.49,72.88-83.76c11.43-11.43,23.21-22.53,35.31-33.24c15.64-13.85,31.78-27.07,48.42-39.63
						c0.46-0.36,0.96-0.75,1.46-1.11c10.46-7.85,21.14-15.46,31.96-22.78c8.36-5.68,16.82-11.14,25.39-16.46l6.28-3.89
						c39.03-23.46,88.48-17.39,120.86,14.96c15.96,15.96,25.53,36.1,28.28,57.09C1124.6,648.09,1123.49,662.27,1119.35,675.84z"/>
				</g>
			</g>
		</g>
		<g>
			<g>
				<g>
					<linearGradient id="SVGID_2_" gradientUnits="userSpaceOnUse" x1="606.3669" y1="763.1167" x2="1210.7881" y2="763.1167">
						<stop  offset="0" style="stop-color:#DB5393"/>
						<stop  offset="1" style="stop-color:#4DC0F6"/>
					</linearGradient>
					<path class="st3" d="M1162.51,657.98c-11.64-9.96-24.99-18-39.74-23.67c-4.36-1.71-8.82-3.21-13.43-4.46l-7.82-1.96
						c-42.13-10-85.19-16.71-128.65-20.03c-20.89-1.61-41.88-2.43-62.88-2.46h-2.93c-20.99,0.04-41.95,0.86-62.81,2.46
						c-44.1,3.36-87.73,10.21-130.36,20.46c-0.57,0.11-1.14,0.25-1.71,0.39c-6.14,1.46-12.07,3.32-17.82,5.57
						c-14.71,5.64-28.06,13.71-39.7,23.67c-29.96,25.53-48.31,63.45-48.31,105.19s18.35,79.66,48.27,105.15
						c11.64,9.96,25.03,18.03,39.74,23.71c5.75,2.25,11.71,4.11,17.85,5.57c0.57,0.18,1.14,0.29,1.71,0.43
						c42.63,10.21,86.23,17.03,130.29,20.39c20.89,1.61,41.85,2.43,62.88,2.46h2.82c21.07-0.03,42.06-0.86,62.98-2.46
						c43.45-3.32,86.51-10.03,128.68-20.03l7.82-1.96c4.57-1.25,9.03-2.71,13.35-4.43c14.75-5.68,28.1-13.71,39.7-23.64
						c29.96-25.49,48.31-63.41,48.31-105.19S1192.44,683.48,1162.51,657.98z M1151.16,823.48c-8.46,11.07-19.28,20.28-31.81,26.96
						c-7.03,3.75-14.64,6.68-22.71,8.71l-7.18,1.68l-0.04,0.04c-22.49,5.25-45.31,9.5-68.27,12.75
						c-21.25,3.04-42.63,5.21-64.13,6.46c-16.1,1-32.28,1.5-48.45,1.5c-16.21,0-32.35-0.5-48.45-1.46
						c-21.49-1.29-42.88-3.46-64.13-6.5c-24.67-3.46-49.13-8.11-73.23-13.89l-0.57-0.14l-0.54-0.14c-8.46-2-16.46-5.07-23.85-9
						c-12.57-6.68-23.39-15.96-31.85-27.03c-12.85-16.78-20.32-37.74-20.32-60.27c0-22.57,7.46-43.52,20.35-60.31
						c8.43-11.07,19.25-20.32,31.81-26.99c7.39-3.93,15.39-7,23.85-9l1.11-0.29c0.04,0,0.04,0,0.07-0.04
						c24.1-5.75,48.52-10.39,73.16-13.89c21.21-3.04,42.63-5.21,64.13-6.5c16.1-0.96,32.28-1.46,48.45-1.46
						c16.17,0,32.31,0.5,48.42,1.5c21.49,1.29,42.88,3.43,64.13,6.46c22.99,3.25,45.81,7.53,68.3,12.78l7.18,1.68
						c8.07,2,15.68,4.96,22.74,8.75c12.57,6.68,23.35,15.92,31.81,26.96c12.89,16.82,20.35,37.78,20.35,60.34
						C1171.51,785.74,1164.05,806.7,1151.16,823.48z"/>
				</g>
			</g>
		</g>
		<g>
			<g>
				<g>
					
						<linearGradient id="SVGID_3_" gradientUnits="userSpaceOnUse" x1="523.4257" y1="4803.8003" x2="1127.8525" y2="4803.8003" gradientTransform="matrix(0.7071 0.7071 -0.7071 0.7071 3721.5356 -3217.489)">
						<stop  offset="0" style="stop-color:#DB5393"/>
						<stop  offset="1" style="stop-color:#4DC0F6"/>
					</linearGradient>
					<path class="st4" d="M1162.48,868.32c-1.18-15.25-4.93-30.39-11.32-44.85c-1.89-4.28-4.04-8.5-6.39-12.64l-4.11-6.86
						c-8.53-13.85-17.5-27.49-26.85-40.85c-7.96-11.32-16.21-22.46-24.74-33.38c-20.96-27.03-43.7-52.77-67.95-77.12
						c-0.36-0.36-0.68-0.68-1.04-1.04c-15.21-15.21-30.96-29.78-47.2-43.74c-10.1-8.64-20.42-17.1-30.92-25.24
						c-10.96-8.53-22.1-16.75-33.42-24.67c-13.82-9.71-27.92-18.96-42.28-27.78c-0.5-0.32-1-0.64-1.5-0.93
						c-54.67-33.49-124.47-25.21-169.92,20.21c-29.49,29.49-43.31,69.27-40.17,108.51c1.18,15.25,4.93,30.42,11.32,44.88
						c2.5,5.64,5.39,11.14,8.68,16.53c0.29,0.54,0.61,1.04,0.93,1.5c8.78,14.35,18.07,28.42,27.74,42.24
						c7.93,11.32,16.17,22.46,24.71,33.42c20.96,26.96,43.67,52.74,67.95,77.09c0.32,0.36,0.68,0.71,1.04,1.07
						c15.17,15.17,30.96,29.78,47.2,43.7c10.1,8.68,20.42,17.1,30.96,25.28c10.93,8.5,22.07,16.75,33.38,24.67
						c13.35,9.39,26.99,18.39,40.85,26.92l6.96,4.14c54.06,30.74,121.47,21.82,165.85-22.57
						C1151.77,947.3,1165.62,907.53,1162.48,868.32z M1094.46,949.05c-32.35,32.35-81.77,38.42-120.79,14.96l-6.28-3.89h-0.04
						c-8.57-5.32-17.03-10.78-25.39-16.46c-10.85-7.32-21.53-14.96-32.03-22.82c-0.46-0.36-0.93-0.71-1.39-1.07
						c-16.64-12.57-32.78-25.78-48.42-39.67c-12.1-10.68-23.89-21.78-35.31-33.21c-26.32-26.31-50.67-54.31-72.88-83.76
						c-8.28-10.93-16.25-22.07-23.92-33.38c-6.61-9.78-12.96-19.67-19.1-29.71l-0.32-0.5l-0.29-0.46
						c-4.57-7.43-8.07-15.25-10.5-23.24c-4.18-13.6-5.28-27.78-3.43-41.56c2.79-21,12.32-41.1,28.24-57.06
						c32.6-32.6,82.73-38.49,121.86-14.35l1,0.61c10.03,6.14,19.92,12.53,29.71,19.14c10.82,7.32,21.46,14.93,31.88,22.78
						c0.5,0.36,1,0.71,1.46,1.11c16.64,12.53,32.81,25.78,48.45,39.67c12.07,10.68,23.85,21.78,35.31,33.21
						c26.28,26.28,50.67,54.31,72.95,83.76c8.21,10.93,16.17,22.07,23.82,33.38c5.68,8.35,11.18,16.82,16.5,25.39l3.86,6.28
						c4.28,7.11,7.57,14.6,9.93,22.24c4.14,13.6,5.25,27.74,3.43,41.53C1119.99,912.95,1110.42,933.09,1094.46,949.05z"/>
				</g>
			</g>
		</g>
		<g>
			<linearGradient id="SVGID_4_" gradientUnits="userSpaceOnUse" x1="843.5942" y1="763.1346" x2="973.5258" y2="763.1346">
				<stop  offset="0" style="stop-color:#DB5393"/>
				<stop  offset="1" style="stop-color:#4DC0F6"/>
			</linearGradient>
			<path class="st5" d="M973.53,763.13c0,35.81-29.14,64.95-64.95,64.95c-35.85,0-64.98-29.14-64.98-64.95s29.14-64.95,64.98-64.95
				C944.39,698.19,973.53,727.32,973.53,763.13z"/>
		</g>
	</g>
	<g>
		<path class="st1" d="M1401.68,1011.51v-33.52l-17.72,33.52h-12.37l-17.71-33.52v33.52H1341v-47.73h17.51l19.27,36.13l19.28-36.13
			h17.44v47.73H1401.68z"/>
		<path class="st1" d="M1502.51,1002.17c-1.19,2.11-2.95,3.95-5.32,5.52c-2.37,1.58-5.32,2.82-8.84,3.74
			c-3.53,0.91-7.66,1.37-12.39,1.37c-4.72,0-8.86-0.46-12.41-1.37c-3.56-0.91-6.52-2.16-8.88-3.74c-2.36-1.57-4.14-3.42-5.32-5.52
			c-1.18-2.11-1.77-4.36-1.77-6.74v-31.65h12.85v27.03c0,1.6,0.21,3.11,0.61,4.53c0.4,1.42,1.17,2.67,2.29,3.74
			c1.13,1.07,2.7,1.91,4.73,2.54c2.03,0.62,4.66,0.94,7.9,0.94c3.22,0,5.84-0.31,7.85-0.94c2.02-0.62,3.59-1.47,4.71-2.54
			c1.13-1.07,1.88-2.31,2.28-3.74s0.59-2.94,0.59-4.53v-27.03h12.88v31.65C1504.28,997.82,1503.69,1000.06,1502.51,1002.17z"/>
		<path class="st1" d="M1537.37,1011.51v-47.73h12.88v37.28h34.85v10.46H1537.37z"/>
		<path class="st1" d="M1636.14,974.17v37.34h-12.88v-37.34H1603v-10.39h53.43v10.39H1636.14z"/>
		<path class="st1" d="M1683.44,1011.51v-47.73h12.88v47.73H1683.44z"/>
		<path class="st1" d="M1788.22,987.61c0,3.06-0.34,5.77-1.01,8.14c-0.67,2.38-1.61,4.44-2.83,6.2c-1.21,1.76-2.67,3.26-4.37,4.48
			c-1.71,1.23-3.6,2.21-5.68,2.95c-2.09,0.74-4.33,1.28-6.74,1.62c-2.41,0.34-4.92,0.5-7.54,0.5h-30.29v-47.73h30.22
			c2.61,0,5.12,0.17,7.54,0.51c2.41,0.34,4.66,0.87,6.75,1.61c2.09,0.74,4,1.72,5.71,2.94c1.71,1.21,3.18,2.71,4.39,4.48
			c1.22,1.77,2.16,3.84,2.83,6.2C1787.89,981.88,1788.22,984.58,1788.22,987.61z M1775.23,987.61c0-2.29-0.29-4.28-0.88-5.97
			c-0.59-1.69-1.54-3.09-2.85-4.19c-1.31-1.1-3.02-1.92-5.12-2.46c-2.11-0.54-4.68-0.82-7.71-0.82h-16.01v26.96h16.01
			c3.04,0,5.6-0.27,7.71-0.81s3.82-1.38,5.12-2.5s2.26-2.53,2.85-4.22C1774.94,991.9,1775.23,989.91,1775.23,987.61z"/>
		<path class="st1" d="M1818.47,1011.51v-47.73h12.88v47.73H1818.47z"/>
		<path class="st1" d="M1908.77,977.23c-0.91-0.44-2.1-0.94-3.58-1.49c-1.48-0.56-3.16-1.08-5.04-1.58
			c-1.87-0.5-3.91-0.92-6.11-1.25c-2.2-0.34-4.46-0.5-6.78-0.5c-1.85,0-3.43,0.06-4.74,0.18c-1.31,0.11-2.41,0.27-3.3,0.45
			c-0.89,0.19-1.6,0.4-2.12,0.64c-0.53,0.24-0.92,0.49-1.2,0.75c-0.27,0.26-0.46,0.51-0.53,0.77c-0.08,0.26-0.12,0.49-0.12,0.69
			c0,0.7,0.34,1.3,1.04,1.82c0.7,0.52,1.64,0.99,2.86,1.39c1.2,0.41,2.6,0.79,4.2,1.15c1.59,0.36,3.29,0.73,5.09,1.11
			c1.79,0.38,3.65,0.8,5.56,1.25c1.91,0.45,3.76,0.98,5.56,1.58c1.79,0.6,3.49,1.3,5.09,2.1c1.6,0.8,3,1.73,4.2,2.79
			c1.2,1.07,2.16,2.29,2.85,3.68s1.04,2.98,1.04,4.76c0,2.29-0.4,4.26-1.22,5.91c-0.81,1.64-1.9,3.03-3.24,4.17
			c-1.36,1.13-2.92,2.04-4.71,2.73c-1.78,0.69-3.65,1.21-5.6,1.58c-1.96,0.37-3.94,0.61-5.94,0.73c-2,0.11-3.91,0.18-5.72,0.18
			c-4.72,0-9.09-0.39-13.11-1.17c-4.01-0.78-7.57-1.74-10.65-2.9v-11.39c3.18,1.76,6.79,3.14,10.86,4.13c4.06,1,8.41,1.5,13.04,1.5
			c2.73,0,4.96-0.14,6.69-0.43c1.72-0.29,3.07-0.66,4.04-1.11c0.97-0.45,1.63-0.94,1.98-1.48c0.35-0.53,0.53-1.04,0.53-1.53
			c0-0.76-0.35-1.43-1.04-2c-0.7-0.57-1.64-1.07-2.85-1.49c-1.21-0.43-2.61-0.82-4.2-1.18c-1.6-0.36-3.3-0.72-5.09-1.08
			c-1.79-0.36-3.64-0.75-5.54-1.16c-1.9-0.42-3.75-0.91-5.54-1.48c-1.8-0.57-3.49-1.23-5.09-1.98c-1.6-0.75-3-1.64-4.2-2.67
			c-1.2-1.03-2.16-2.22-2.85-3.58s-1.04-2.92-1.04-4.71c0-2.11,0.37-3.93,1.11-5.46c0.74-1.53,1.74-2.83,3.01-3.91
			c1.26-1.08,2.72-1.95,4.37-2.62c1.66-0.67,3.4-1.19,5.23-1.56c1.83-0.37,3.68-0.62,5.56-0.76c1.87-0.14,3.66-0.21,5.35-0.21
			c1.86,0,3.76,0.09,5.72,0.28c1.96,0.19,3.88,0.45,5.78,0.78c1.9,0.34,3.74,0.72,5.51,1.17c1.77,0.44,3.41,0.9,4.92,1.39V977.23z"
			/>
		<path class="st1" d="M1990.97,1010.12c-1.69,0.56-3.44,1.04-5.25,1.44c-1.8,0.4-3.71,0.71-5.71,0.92c-2,0.21-4.15,0.32-6.44,0.32
			c-4.87,0-9.34-0.52-13.43-1.56c-4.09-1.04-7.62-2.61-10.56-4.71c-2.95-2.1-5.25-4.71-6.9-7.85c-1.64-3.14-2.47-6.8-2.47-11
			s0.82-7.85,2.47-10.99c1.64-3.14,3.94-5.76,6.9-7.85c2.95-2.1,6.47-3.67,10.56-4.71c4.08-1.04,8.56-1.56,13.43-1.56
			c2.29,0,4.44,0.1,6.44,0.31s3.91,0.51,5.71,0.92c1.8,0.4,3.56,0.88,5.25,1.44c1.69,0.56,3.37,1.18,5.04,1.88v11.6
			c-1.33-0.72-2.71-1.43-4.17-2.14c-1.45-0.7-3.07-1.34-4.83-1.91c-1.76-0.56-3.69-1.03-5.8-1.39c-2.11-0.36-4.48-0.54-7.12-0.54
			c-4.05,0-7.42,0.42-10.09,1.25s-4.81,1.95-6.41,3.33c-1.6,1.39-2.72,2.99-3.37,4.78c-0.65,1.79-0.97,3.65-0.97,5.57
			c0,1.28,0.14,2.53,0.42,3.77c0.27,1.24,0.74,2.41,1.39,3.51c0.65,1.1,1.49,2.11,2.54,3.04c1.04,0.93,2.34,1.72,3.89,2.39
			c1.55,0.67,3.37,1.2,5.44,1.58c2.07,0.38,4.46,0.57,7.17,0.57c2.64,0,5.01-0.17,7.12-0.5c2.11-0.34,4.04-0.78,5.8-1.34
			s3.37-1.19,4.83-1.9c1.46-0.7,2.85-1.43,4.17-2.17v11.6C1994.35,1008.94,1992.66,1009.57,1990.97,1010.12z"/>
		<path class="st1" d="M2026.53,1011.51v-47.73h12.88v47.73H2026.53z"/>
		<path class="st1" d="M2126.48,980.08c0,2.39-0.34,4.58-1.04,6.58c-0.7,2-1.81,3.73-3.36,5.18c-1.54,1.45-3.53,2.57-5.99,3.38
			c-2.45,0.81-5.44,1.21-8.96,1.21h-21.4v15.08h-12.88v-47.73h34.28c3.53,0,6.51,0.4,8.96,1.2c2.46,0.8,4.45,1.92,5.99,3.37
			c1.55,1.45,2.66,3.17,3.36,5.16C2126.14,975.5,2126.48,977.69,2126.48,980.08z M2113.46,980.29c0-1.11-0.16-2.07-0.47-2.87
			c-0.31-0.8-0.83-1.45-1.55-1.96c-0.72-0.51-1.65-0.89-2.81-1.13c-1.16-0.24-2.58-0.37-4.27-0.37h-18.63v12.3h18.63
			c1.69,0,3.11-0.1,4.27-0.29c1.16-0.2,2.09-0.53,2.81-1.01s1.23-1.09,1.55-1.86S2113.46,981.4,2113.46,980.29z"/>
		<path class="st1" d="M2155.65,1011.51v-47.73h12.88v37.28h34.84v10.46H2155.65z"/>
		<path class="st1" d="M2232.2,1011.51v-47.73h12.88v47.73H2232.2z"/>
		<path class="st1" d="M2323.61,1011.51l-32.2-32.79v32.79h-12.88v-47.73h14l32.23,32.93v-32.93h12.82v47.73H2323.61z"/>
		<path class="st1" d="M2371.01,1011.51v-47.73h48.32v10.18h-35.08v7.89h33.28v10.18h-33.28v9.31h35.57v10.18H2371.01z"/>
		<path class="st1" d="M2509.21,987.61c0,3.06-0.34,5.77-1.01,8.14c-0.68,2.38-1.61,4.44-2.83,6.2s-2.67,3.26-4.38,4.48
			c-1.7,1.23-3.59,2.21-5.68,2.95c-2.08,0.74-4.33,1.28-6.74,1.62c-2.41,0.34-4.92,0.5-7.54,0.5h-30.29v-47.73h30.22
			c2.62,0,5.13,0.17,7.54,0.51c2.41,0.34,4.66,0.87,6.75,1.61c2.1,0.74,4.01,1.72,5.72,2.94c1.71,1.21,3.18,2.71,4.39,4.48
			c1.22,1.77,2.16,3.84,2.83,6.2C2508.88,981.88,2509.21,984.58,2509.21,987.61z M2496.22,987.61c0-2.29-0.3-4.28-0.88-5.97
			c-0.59-1.69-1.55-3.09-2.86-4.19c-1.3-1.1-3.02-1.92-5.12-2.46c-2.11-0.54-4.68-0.82-7.71-0.82h-16.01v26.96h16.01
			c3.03,0,5.6-0.27,7.71-0.81c2.1-0.54,3.82-1.38,5.12-2.5c1.31-1.12,2.26-2.53,2.86-4.22
			C2495.92,991.9,2496.22,989.91,2496.22,987.61z"/>
		<path class="st1" d="M2597.58,973.96v8.3h31.02v10.18h-31.02v19.07h-12.88v-47.73h45.61v10.18H2597.58z"/>
		<path class="st1" d="M2672.7,1011.51h-12.88v-47.73h32.3c3.48,0,6.43,0.36,8.84,1.08c2.42,0.72,4.39,1.74,5.91,3.06
			c1.52,1.32,2.62,2.91,3.3,4.77c0.69,1.87,1.03,3.94,1.03,6.24c0,2.01-0.28,3.78-0.85,5.28c-0.56,1.5-1.33,2.79-2.29,3.87
			c-0.96,1.08-2.08,1.99-3.35,2.73c-1.27,0.74-2.62,1.36-4.03,1.84l15.63,18.86h-15.07l-14.45-17.58h-14.07V1011.51z
			 M2698.17,978.86c0-0.93-0.12-1.71-0.37-2.36c-0.24-0.65-0.66-1.17-1.26-1.58c-0.6-0.4-1.41-0.7-2.41-0.88
			c-1.01-0.19-2.27-0.28-3.77-0.28h-17.65v10.21h17.65c1.5,0,2.76-0.09,3.77-0.28c1.01-0.19,1.81-0.48,2.41-0.89
			c0.6-0.4,1.02-0.93,1.26-1.58C2698.04,980.57,2698.17,979.79,2698.17,978.86z"/>
		<path class="st1" d="M2744.04,1011.51v-47.73h48.32v10.18h-35.08v7.89h33.28v10.18h-33.28v9.31h35.57v10.18H2744.04z"/>
		<path class="st1" d="M2823.78,1011.51v-47.73h48.32v10.18h-35.08v7.89h33.28v10.18h-33.28v9.31h35.57v10.18H2823.78z"/>
		<path class="st1" d="M2903.52,1011.51v-47.73h12.88v37.28h34.85v10.46H2903.52z"/>
		<path class="st1" d="M3018.42,1002.48h-26.61l-4.48,9.03h-14.38l24.98-47.73h14.38l24.98,47.73h-14.38L3018.42,1002.48z
			 M2996.43,993.17h17.44l-8.68-17.58L2996.43,993.17z"/>
		<path class="st1" d="M3108.69,1011.51l-32.2-32.79v32.79h-12.88v-47.73h14l32.23,32.93v-32.93h12.82v47.73H3108.69z"/>
		<path class="st1" d="M3203.64,1010.12c-1.69,0.56-3.44,1.04-5.25,1.44c-1.8,0.4-3.71,0.71-5.71,0.92c-2,0.21-4.15,0.32-6.44,0.32
			c-4.87,0-9.34-0.52-13.43-1.56c-4.09-1.04-7.61-2.61-10.56-4.71c-2.95-2.1-5.25-4.71-6.9-7.85c-1.64-3.14-2.47-6.8-2.47-11
			s0.82-7.85,2.47-10.99c1.65-3.14,3.94-5.76,6.9-7.85c2.95-2.1,6.47-3.67,10.56-4.71c4.08-1.04,8.56-1.56,13.43-1.56
			c2.29,0,4.44,0.1,6.44,0.31c2,0.21,3.91,0.51,5.71,0.92c1.8,0.4,3.56,0.88,5.25,1.44c1.69,0.56,3.37,1.18,5.04,1.88v11.6
			c-1.32-0.72-2.71-1.43-4.17-2.14c-1.45-0.7-3.07-1.34-4.83-1.91c-1.76-0.56-3.69-1.03-5.8-1.39c-2.11-0.36-4.48-0.54-7.12-0.54
			c-4.05,0-7.42,0.42-10.09,1.25s-4.81,1.95-6.41,3.33c-1.6,1.39-2.72,2.99-3.37,4.78c-0.65,1.79-0.97,3.65-0.97,5.57
			c0,1.28,0.14,2.53,0.42,3.77c0.27,1.24,0.74,2.41,1.39,3.51s1.49,2.11,2.54,3.04s2.34,1.72,3.89,2.39
			c1.55,0.67,3.37,1.2,5.44,1.58c2.07,0.38,4.46,0.57,7.17,0.57c2.64,0,5.01-0.17,7.12-0.5c2.11-0.34,4.04-0.78,5.8-1.34
			c1.76-0.56,3.37-1.19,4.83-1.9c1.46-0.7,2.85-1.43,4.17-2.17v11.6C3207.01,1008.94,3205.33,1009.57,3203.64,1010.12z"/>
		<path class="st1" d="M3239.19,1011.51v-47.73h48.32v10.18h-35.08v7.89h33.28v10.18h-33.28v9.31H3288v10.18H3239.19z"/>
		<path class="st1" d="M3331.82,1011.51h-12.88v-47.73h32.3c3.48,0,6.43,0.36,8.84,1.08c2.42,0.72,4.39,1.74,5.91,3.06
			c1.52,1.32,2.62,2.91,3.3,4.77c0.69,1.87,1.03,3.94,1.03,6.24c0,2.01-0.28,3.78-0.85,5.28c-0.56,1.5-1.33,2.79-2.29,3.87
			c-0.96,1.08-2.08,1.99-3.35,2.73c-1.27,0.74-2.62,1.36-4.03,1.84l15.63,18.86h-15.07l-14.45-17.58h-14.07V1011.51z
			 M3357.28,978.86c0-0.93-0.12-1.71-0.37-2.36c-0.24-0.65-0.66-1.17-1.26-1.58c-0.6-0.4-1.41-0.7-2.41-0.88
			c-1.01-0.19-2.27-0.28-3.77-0.28h-17.65v10.21h17.65c1.5,0,2.76-0.09,3.77-0.28c1.01-0.19,1.81-0.48,2.41-0.89
			c0.6-0.4,1.02-0.93,1.26-1.58C3357.16,980.57,3357.28,979.79,3357.28,978.86z"/>
	</g>
</g>
</svg>
