<?xml version="1.0" encoding="utf-8"?>
<!-- Generator: Adobe Illustrator 25.0.0, SVG Export Plug-In . SVG Version: 6.00 Build 0)  -->
<svg version="1.1" id="Camada_1" xmlns="http://www.w3.org/2000/svg" xmlns:xlink="http://www.w3.org/1999/xlink" x="0px" y="0px"
	 viewBox="0 0 4501.81 1526.27" style="enable-background:new 0 0 4501.81 1526.27;" xml:space="preserve">
<style type="text/css">
	.st0{fill:#481380;}
	.st1{fill:#C6D8D9;}
	.st2{fill:url(#SVGID_1_);}
	.st3{fill:url(#SVGID_2_);}
	.st4{fill:url(#SVGID_3_);}
	.st5{fill:url(#SVGID_4_);}
	.st6{fill:url(#SVGID_5_);}
	.st7{fill:url(#SVGID_6_);}
	.st8{fill:url(#SVGID_7_);}
	.st9{fill:url(#SVGID_8_);}
	.st10{fill:url(#SVGID_9_);}
	.st11{fill:url(#SVGID_10_);}
	.st12{fill:url(#SVGID_11_);}
	.st13{fill:url(#SVGID_12_);}
	.st14{fill:url(#SVGID_13_);}
	.st15{fill:url(#SVGID_14_);}
	.st16{fill:url(#SVGID_15_);}
	.st17{fill:url(#SVGID_16_);}
	.st18{fill:url(#SVGID_17_);}
	.st19{fill:url(#SVGID_18_);}
	.st20{fill:url(#SVGID_19_);}
	.st21{fill:url(#SVGID_20_);}
	.st22{fill:url(#SVGID_21_);}
	.st23{fill:url(#SVGID_22_);}
	.st24{fill:url(#SVGID_23_);}
	.st25{fill:url(#SVGID_24_);}
	.st26{fill:url(#SVGID_25_);}
	.st27{fill:url(#SVGID_26_);}
	.st28{fill:url(#SVGID_27_);}
	.st29{fill:url(#SVGID_28_);}
	.st30{fill:url(#SVGID_29_);}
	.st31{fill:url(#SVGID_30_);}
	.st32{fill:url(#SVGID_31_);}
	.st33{fill:url(#SVGID_32_);}
</style>
<g>
	<g>
		<g>
			<path class="st1" d="M1354.59,974.73v8.55h31.96v10.48h-31.96v19.65h-13.28v-49.17h46.99v10.48H1354.59z"/>
			<path class="st1" d="M1424.65,1013.41h-13.28v-49.17h33.28c3.58,0,6.61,0.37,9.11,1.11c2.49,0.74,4.52,1.79,6.08,3.15
				c1.56,1.36,2.69,3,3.4,4.92c0.7,1.92,1.05,4.06,1.05,6.43c0,2.07-0.29,3.89-0.88,5.44c-0.58,1.55-1.37,2.88-2.36,3.99
				c-0.99,1.11-2.14,2.04-3.45,2.81c-1.31,0.76-2.69,1.4-4.15,1.9l16.1,19.43h-15.53l-14.89-18.11h-14.49V1013.41z M1450.88,979.77
				c0-0.95-0.12-1.76-0.38-2.43c-0.25-0.67-0.69-1.21-1.31-1.63c-0.62-0.42-1.45-0.72-2.49-0.91c-1.04-0.19-2.33-0.28-3.88-0.28
				h-18.18v10.52h18.18c1.55,0,2.84-0.1,3.88-0.29c1.04-0.19,1.87-0.5,2.49-0.91s1.06-0.96,1.31-1.63
				C1450.75,981.54,1450.88,980.72,1450.88,979.77z"/>
			<path class="st1" d="M1490.8,1013.41v-49.17h49.78v10.48h-36.14v8.12h34.28v10.49h-34.28v9.59h36.64v10.48H1490.8z"/>
			<path class="st1" d="M1565.62,1013.41v-49.17h49.78v10.48h-36.14v8.12h34.28v10.49h-34.28v9.59h36.64v10.48H1565.62z"/>
			<path class="st1" d="M1640.43,1013.41v-49.17h13.28v38.4h35.89v10.77H1640.43z"/>
			<path class="st1" d="M1751.46,1004.1h-27.41l-4.62,9.31h-14.81l25.73-49.17h14.81l25.73,49.17h-14.81L1751.46,1004.1z
				 M1728.81,994.51h17.96l-8.95-18.11L1728.81,994.51z"/>
			<path class="st1" d="M1837.12,1013.41l-33.17-33.78v33.78h-13.28v-49.17h14.42l33.21,33.92v-33.92h13.2v49.17H1837.12z"/>
			<path class="st1" d="M1927.61,1011.98c-1.74,0.57-3.54,1.07-5.4,1.49c-1.86,0.42-3.82,0.73-5.89,0.95
				c-2.06,0.22-4.28,0.32-6.64,0.32c-5.01,0-9.62-0.54-13.83-1.61c-4.21-1.08-7.84-2.69-10.88-4.85c-3.04-2.16-5.41-4.86-7.1-8.09
				c-1.7-3.23-2.54-7.01-2.54-11.32c0-4.32,0.85-8.09,2.54-11.32c1.69-3.23,4.06-5.93,7.1-8.09c3.04-2.16,6.67-3.77,10.88-4.85
				c4.21-1.07,8.82-1.61,13.83-1.61c2.36,0,4.57,0.11,6.64,0.32c2.06,0.21,4.03,0.53,5.89,0.95c1.86,0.42,3.66,0.91,5.4,1.49
				c1.74,0.57,3.47,1.21,5.19,1.93v11.95c-1.36-0.74-2.79-1.47-4.29-2.2c-1.5-0.73-3.16-1.39-4.97-1.97
				c-1.81-0.58-3.81-1.06-5.98-1.43c-2.17-0.37-4.62-0.55-7.34-0.55c-4.18,0-7.64,0.43-10.4,1.29c-2.76,0.86-4.96,2.01-6.6,3.44
				c-1.65,1.43-2.8,3.07-3.47,4.92c-0.67,1.85-1,3.76-1,5.74c0,1.31,0.14,2.61,0.43,3.88s0.76,2.48,1.43,3.61
				c0.67,1.14,1.54,2.18,2.61,3.13c1.07,0.95,2.41,1.78,4.01,2.47c1.6,0.69,3.47,1.23,5.6,1.63c2.13,0.39,4.6,0.59,7.39,0.59
				c2.72,0,5.17-0.17,7.34-0.52c2.17-0.35,4.16-0.81,5.98-1.38c1.81-0.57,3.47-1.22,4.97-1.95c1.5-0.73,2.94-1.47,4.29-2.23v11.95
				C1931.08,1010.76,1929.35,1011.4,1927.61,1011.98z"/>
			<path class="st1" d="M1956.9,1013.41v-49.17h49.78v10.48h-36.14v8.12h34.28v10.49h-34.28v9.59h36.64v10.48H1956.9z"/>
			<path class="st1" d="M2045,1013.41h-13.28v-49.17H2065c3.58,0,6.61,0.37,9.11,1.11c2.49,0.74,4.52,1.79,6.08,3.15
				c1.56,1.36,2.7,3,3.4,4.92c0.7,1.92,1.05,4.06,1.05,6.43c0,2.07-0.29,3.89-0.88,5.44c-0.58,1.55-1.37,2.88-2.36,3.99
				c-0.99,1.11-2.14,2.04-3.45,2.81c-1.31,0.76-2.69,1.4-4.15,1.9l16.1,19.43h-15.53l-14.89-18.11H2045V1013.41z M2071.23,979.77
				c0-0.95-0.12-1.76-0.38-2.43c-0.25-0.67-0.69-1.21-1.31-1.63c-0.62-0.42-1.45-0.72-2.49-0.91c-1.04-0.19-2.33-0.28-3.88-0.28
				H2045v10.52h18.18c1.55,0,2.84-0.1,3.88-0.29c1.04-0.19,1.87-0.5,2.49-0.91s1.06-0.96,1.31-1.63
				C2071.1,981.54,2071.23,980.72,2071.23,979.77z"/>
			<path class="st1" d="M2212.95,1013.41v-34.53l-18.25,34.53h-12.74l-18.25-34.53v34.53h-13.28v-49.17h18.04l19.86,37.22
				l19.86-37.22h17.97v49.17H2212.95z"/>
			<path class="st1" d="M2309.49,1003.78c-1.22,2.17-3.04,4.07-5.48,5.69c-2.43,1.62-5.47,2.9-9.11,3.85
				c-3.64,0.94-7.89,1.41-12.76,1.41c-4.87,0-9.13-0.47-12.79-1.41c-3.66-0.94-6.71-2.22-9.14-3.85c-2.43-1.62-4.26-3.52-5.48-5.69
				c-1.22-2.17-1.82-4.49-1.82-6.94v-32.6h13.24v27.84c0,1.65,0.21,3.2,0.63,4.67c0.42,1.47,1.2,2.75,2.36,3.85
				c1.16,1.1,2.78,1.97,4.87,2.61c2.09,0.64,4.8,0.97,8.14,0.97c3.32,0,6.01-0.32,8.09-0.97c2.08-0.64,3.69-1.51,4.85-2.61
				c1.16-1.1,1.94-2.38,2.34-3.85c0.41-1.47,0.61-3.02,0.61-4.67v-27.84h13.28v32.6C2311.31,999.3,2310.7,1001.61,2309.49,1003.78z"
				/>
			<path class="st1" d="M2338.07,1013.41v-49.17h13.28v38.4h35.89v10.77H2338.07z"/>
			<path class="st1" d="M2432.49,974.94v38.47h-13.28v-38.47h-20.86v-10.7h55.04v10.7H2432.49z"/>
			<path class="st1" d="M2473.89,1013.41v-49.17h13.28v49.17H2473.89z"/>
			<path class="st1" d="M2574.5,988.79c0,3.15-0.35,5.95-1.04,8.39c-0.69,2.45-1.66,4.58-2.92,6.39c-1.25,1.81-2.76,3.35-4.51,4.61
				c-1.75,1.26-3.7,2.28-5.85,3.04c-2.15,0.77-4.46,1.32-6.94,1.66c-2.48,0.35-5.07,0.52-7.77,0.52h-31.21v-49.17h31.13
				c2.7,0,5.28,0.17,7.77,0.52c2.48,0.35,4.8,0.9,6.96,1.66c2.16,0.76,4.12,1.77,5.89,3.02c1.77,1.25,3.27,2.79,4.53,4.62
				c1.25,1.83,2.22,3.95,2.92,6.39C2574.15,982.88,2574.5,985.67,2574.5,988.79z M2561.12,988.79c0-2.36-0.3-4.41-0.91-6.16
				c-0.61-1.74-1.59-3.18-2.94-4.31c-1.35-1.13-3.11-1.98-5.28-2.54c-2.17-0.56-4.82-0.84-7.94-0.84h-16.5v27.77h16.5
				c3.12,0,5.77-0.28,7.94-0.84c2.17-0.56,3.93-1.42,5.28-2.58s2.33-2.6,2.94-4.35C2560.81,993.2,2561.12,991.15,2561.12,988.79z"/>
			<path class="st1" d="M2598.32,1013.41v-49.17h13.28v49.17H2598.32z"/>
			<path class="st1" d="M2684.02,978.09c-0.93-0.45-2.16-0.97-3.69-1.54c-1.53-0.57-3.26-1.12-5.19-1.63
				c-1.93-0.51-4.03-0.94-6.3-1.29c-2.27-0.35-4.59-0.52-6.98-0.52c-1.91,0-3.54,0.06-4.88,0.18c-1.35,0.12-2.48,0.27-3.4,0.47
				c-0.92,0.19-1.65,0.41-2.18,0.66c-0.54,0.25-0.95,0.51-1.23,0.77c-0.28,0.26-0.47,0.52-0.55,0.79c-0.08,0.26-0.12,0.5-0.12,0.72
				c0,0.72,0.36,1.34,1.07,1.88c0.72,0.54,1.69,1.02,2.94,1.43c1.24,0.42,2.68,0.81,4.33,1.18c1.65,0.37,3.39,0.75,5.24,1.15
				c1.85,0.39,3.76,0.82,5.72,1.29c1.97,0.47,3.88,1.01,5.73,1.63c1.85,0.62,3.6,1.34,5.24,2.17c1.65,0.82,3.09,1.78,4.33,2.88
				c1.24,1.1,2.22,2.36,2.94,3.79c0.71,1.43,1.07,3.06,1.07,4.9c0,2.36-0.42,4.39-1.25,6.08c-0.84,1.7-1.95,3.13-3.34,4.3
				c-1.4,1.17-3.01,2.11-4.85,2.81c-1.84,0.71-3.76,1.25-5.78,1.63c-2.02,0.38-4.06,0.63-6.12,0.75c-2.06,0.12-4.03,0.18-5.89,0.18
				c-4.87,0-9.37-0.4-13.51-1.2c-4.14-0.8-7.79-1.8-10.97-2.99v-11.73c3.27,1.81,6.99,3.23,11.18,4.26
				c4.19,1.03,8.67,1.54,13.44,1.54c2.81,0,5.11-0.15,6.89-0.45c1.78-0.3,3.17-0.68,4.17-1.14c1-0.47,1.68-0.97,2.04-1.52
				c0.36-0.55,0.54-1.07,0.54-1.57c0-0.79-0.36-1.47-1.07-2.06c-0.72-0.58-1.7-1.1-2.94-1.54c-1.24-0.44-2.68-0.84-4.33-1.21
				c-1.65-0.37-3.39-0.74-5.24-1.11c-1.85-0.37-3.75-0.77-5.71-1.2c-1.96-0.43-3.86-0.94-5.71-1.52s-3.6-1.26-5.24-2.04
				c-1.65-0.77-3.09-1.69-4.33-2.75c-1.24-1.06-2.22-2.29-2.94-3.69c-0.71-1.39-1.07-3.01-1.07-4.85c0-2.17,0.38-4.04,1.15-5.62
				c0.76-1.57,1.79-2.92,3.09-4.03s2.8-2.01,4.51-2.7c1.7-0.69,3.5-1.23,5.38-1.61c1.88-0.38,3.79-0.64,5.73-0.79
				c1.93-0.15,3.77-0.22,5.51-0.22c1.91,0,3.87,0.1,5.89,0.29c2.01,0.19,4,0.46,5.96,0.81c1.96,0.35,3.85,0.74,5.67,1.2
				c1.83,0.45,3.51,0.93,5.06,1.43V978.09z"/>
			<path class="st1" d="M2761.37,1011.98c-1.74,0.57-3.54,1.07-5.4,1.49c-1.86,0.42-3.82,0.73-5.89,0.95
				c-2.06,0.22-4.28,0.32-6.64,0.32c-5.01,0-9.62-0.54-13.83-1.61c-4.21-1.08-7.84-2.69-10.88-4.85c-3.04-2.16-5.41-4.86-7.1-8.09
				c-1.7-3.23-2.54-7.01-2.54-11.32c0-4.32,0.85-8.09,2.54-11.32c1.69-3.23,4.06-5.93,7.1-8.09c3.04-2.16,6.67-3.77,10.88-4.85
				c4.21-1.07,8.82-1.61,13.83-1.61c2.36,0,4.57,0.11,6.64,0.32c2.06,0.21,4.03,0.53,5.89,0.95c1.86,0.42,3.66,0.91,5.4,1.49
				c1.74,0.57,3.47,1.21,5.19,1.93v11.95c-1.36-0.74-2.79-1.47-4.29-2.2c-1.5-0.73-3.16-1.39-4.97-1.97
				c-1.81-0.58-3.81-1.06-5.98-1.43c-2.17-0.37-4.62-0.55-7.34-0.55c-4.18,0-7.64,0.43-10.4,1.29c-2.76,0.86-4.96,2.01-6.6,3.44
				c-1.65,1.43-2.8,3.07-3.47,4.92c-0.67,1.85-1,3.76-1,5.74c0,1.31,0.14,2.61,0.43,3.88s0.76,2.48,1.43,3.61
				c0.67,1.14,1.54,2.18,2.61,3.13c1.07,0.95,2.41,1.78,4.01,2.47c1.6,0.69,3.47,1.23,5.6,1.63c2.13,0.39,4.6,0.59,7.39,0.59
				c2.72,0,5.17-0.17,7.34-0.52c2.17-0.35,4.16-0.81,5.98-1.38c1.81-0.57,3.47-1.22,4.97-1.95c1.5-0.73,2.94-1.47,4.29-2.23v11.95
				C2764.85,1010.76,2763.12,1011.4,2761.37,1011.98z"/>
			<path class="st1" d="M2790.67,1013.41v-49.17h13.28v49.17H2790.67z"/>
			<path class="st1" d="M2886.31,981.02c0,2.46-0.36,4.72-1.07,6.78c-0.71,2.06-1.87,3.84-3.45,5.33c-1.59,1.49-3.64,2.65-6.17,3.49
				c-2.53,0.83-5.61,1.25-9.23,1.25h-22.04v15.53h-13.28v-49.17h35.32c3.62,0,6.7,0.41,9.23,1.23s4.59,1.98,6.17,3.47
				c1.59,1.49,2.74,3.26,3.45,5.32C2885.96,976.31,2886.31,978.57,2886.31,981.02z M2872.89,981.24c0-1.14-0.16-2.13-0.48-2.95
				c-0.32-0.82-0.85-1.5-1.59-2.02s-1.71-0.91-2.9-1.16c-1.19-0.25-2.66-0.38-4.4-0.38h-19.18v12.67h19.18c1.74,0,3.21-0.1,4.4-0.3
				c1.19-0.2,2.16-0.55,2.9-1.04c0.74-0.49,1.27-1.13,1.59-1.91C2872.73,983.35,2872.89,982.38,2872.89,981.24z"/>
			<path class="st1" d="M2909.02,1013.41v-49.17h13.28v38.4h35.89v10.77H2909.02z"/>
			<path class="st1" d="M2980.55,1013.41v-49.17h13.28v49.17H2980.55z"/>
			<path class="st1" d="M3067.39,1013.41l-33.17-33.78v33.78h-13.28v-49.17h14.42l33.21,33.92v-33.92h13.2v49.17H3067.39z"/>
			<path class="st1" d="M3148.39,1004.1h-27.41l-4.62,9.31h-14.81l25.73-49.17h14.81l25.73,49.17h-14.81L3148.39,1004.1z
				 M3125.74,994.51h17.96l-8.95-18.11L3125.74,994.51z"/>
			<path class="st1" d="M3200.88,1013.41h-13.28v-49.17h33.28c3.58,0,6.61,0.37,9.11,1.11c2.49,0.74,4.52,1.79,6.08,3.15
				c1.56,1.36,2.7,3,3.4,4.92c0.7,1.92,1.05,4.06,1.05,6.43c0,2.07-0.29,3.89-0.88,5.44c-0.58,1.55-1.37,2.88-2.36,3.99
				c-0.99,1.11-2.14,2.04-3.45,2.81c-1.31,0.76-2.7,1.4-4.15,1.9l16.1,19.43h-15.53l-14.89-18.11h-14.49V1013.41z M3227.11,979.77
				c0-0.95-0.12-1.76-0.38-2.43c-0.25-0.67-0.69-1.21-1.31-1.63c-0.62-0.42-1.45-0.72-2.49-0.91c-1.04-0.19-2.33-0.28-3.88-0.28
				h-18.18v10.52h18.18c1.55,0,2.84-0.1,3.88-0.29c1.04-0.19,1.87-0.5,2.49-0.91s1.06-0.96,1.31-1.63
				C3226.99,981.54,3227.11,980.72,3227.11,979.77z"/>
		</g>
		<g>
			<path class="st1" d="M1784.21,639.07v170.79c0,13.27-10.76,24.01-24.01,24.01h-158.53c-13.25,0-23.99-10.74-23.99-24.01V639.07
				h48.02v146.8h110.52v-146.8H1784.21z"/>
			<path class="st1" d="M2106.72,639.07v48h-58.7v146.8h-48.02v-146.8h-33.64l-23.99,41.56l-46.24,80.11
				c-0.37,0.68-0.76,1.37-1.16,2.01c-8.41,13.86-23.64,23.12-41.04,23.12h-45.73v-48.02h45.71l23.99-41.56l46.26-80.09
				c0.37-0.68,0.76-1.37,1.16-2.01c8.41-13.86,23.66-23.12,41.04-23.12H2106.72z"/>
			<polygon class="st1" points="2415.13,777.39 2335.07,639.05 2279.41,639.08 2392.13,833.85 2437.86,833.87 2550.44,639.08 
				2494.9,639.06 			"/>
			<path class="st1" d="M2348.62,833.86h-55.69l-60.97-105.65l-23.99-41.56h-29.25v147.2h-48V638.64h77.26
				c17.38,0,32.63,9.26,41.04,23.12c0.41,0.66,0.79,1.33,1.16,2.01L2348.62,833.86z"/>
			<path class="st1" d="M2773.84,660.61c-1.24-12.12-11.44-21.53-23.86-21.53h-158.49c-12.42,0-22.66,9.41-23.9,21.53
				c-0.08,0.79-0.11,1.62-0.11,2.45v146.78c0,13.29,10.73,24.01,23.98,24.01h158.53c13.25,0,23.97-10.73,23.97-24.01V663.06
				C2773.95,662.23,2773.91,661.4,2773.84,660.61z M2725.96,785.83h-110.54v-98.76h110.54V785.83z"/>
			<path class="st1" d="M1389.31,687.07v98.8h110.52v-37.05h48v61.04c0,13.27-10.74,24.01-23.99,24.01H1365.3
				c-13.25,0-23.99-10.74-23.99-24.01V663.08c0-13.25,10.74-24.01,23.99-24.01h182.52v48H1389.31z"/>
			<path class="st1" d="M2941.99,687.07v98.8l158.53-0.02v48.02h-182.54c-13.25,0-23.99-10.76-23.99-24.01v-147.2
				c0-11.7,8.38-21.46,19.47-23.58h187.06v48H2941.99z"/>
			<path class="st1" d="M3330.9,660.61c-1.24-12.12-11.44-21.53-23.86-21.53h-158.49c-12.42,0-22.66,9.41-23.9,21.53
				c-0.08,0.79-0.11,1.62-0.11,2.45v146.78c0,13.25,10.73,24.01,23.98,24.01h158.53c13.25,0,23.98-10.76,23.98-24.01V663.06
				C3331.01,662.23,3330.97,661.4,3330.9,660.61z M3283.02,785.83h-110.54v-98.76h110.54V785.83z"/>
			<path class="st1" d="M3653.55,639.07v48h-58.72v146.8h-48v-146.8h-33.64l-23.99,41.56l-46.24,80.11
				c-0.37,0.68-0.76,1.37-1.16,2.01c-8.41,13.86-23.66,23.12-41.04,23.12h-45.73v-48.02h45.71l23.99-41.54l46.24-80.11
				c0.37-0.68,0.76-1.37,1.16-2.01c8.42-13.86,23.66-23.12,41.04-23.12H3653.55z"/>
			<path class="st1" d="M3895.44,833.86h-55.69l-60.99-105.65l-23.99-41.57h-29.23v147.22h-48V638.64h77.25
				c17.4,0,32.63,9.25,41.04,23.1c0.41,0.66,0.79,1.33,1.16,2.01L3895.44,833.86z"/>
		</g>
	</g>
	<g>
		<g>
			<g>
				<g>
					
						<linearGradient id="SVGID_1_" gradientUnits="userSpaceOnUse" x1="3522.1743" y1="-2035.4164" x2="4126.5952" y2="-2035.4164" gradientTransform="matrix(0.7071 -0.7071 0.7071 0.7071 -356.4149 4906.6313)">
						<stop  offset="0" style="stop-color:#DB5393"/>
						<stop  offset="1" style="stop-color:#4DC0F6"/>
					</linearGradient>
					<path class="st2" d="M1122.29,549.45c-44.42-44.42-111.92-53.32-165.99-22.54l-6.89,4.14c-13.86,8.54-27.48,17.5-40.83,26.87
						c-11.33,7.93-22.46,16.16-33.4,24.67c-10.5,8.17-20.81,16.6-30.92,25.28c-16.26,13.95-32.01,28.53-47.21,43.73
						c-0.34,0.34-0.67,0.67-1,1.01c-24.29,24.36-47.01,50.14-68.01,77.13c-8.52,10.93-16.74,22.07-24.68,33.39
						c-9.7,13.83-18.96,27.94-27.77,42.3c-0.32,0.49-0.63,0.98-0.92,1.49c-3.3,5.38-6.19,10.9-8.68,16.54
						c-6.39,14.44-10.14,29.6-11.34,44.85c-3.1,39.24,10.74,79.03,40.25,108.53c45.42,45.43,115.24,53.7,169.92,20.19
						c0.51-0.3,1.01-0.61,1.5-0.94c14.35-8.8,28.44-18.05,42.26-27.74c11.33-7.93,22.47-16.17,33.41-24.68
						c10.49-8.17,20.79-16.59,30.9-25.27c16.26-13.94,32.02-28.54,47.22-43.74c0.34-0.34,0.68-0.68,1.01-1.02
						c24.27-24.34,46.99-50.11,67.99-77.11c8.52-10.93,16.75-22.07,24.68-33.4c9.38-13.37,18.34-27,26.89-40.87l4.17-6.94
						c2.33-4.11,4.44-8.29,6.31-12.53c6.4-14.45,10.17-29.61,11.38-44.84C1165.65,618.73,1151.83,578.99,1122.29,549.45z
						 M1119.36,675.82c-2.33,7.64-5.62,15.1-9.89,22.21l-3.89,6.27v0.05c-5.32,8.56-10.81,17.02-16.47,25.38
						c-7.66,11.33-15.62,22.47-23.89,33.4c-22.24,29.48-46.61,57.49-72.88,83.76c-11.44,11.44-23.21,22.52-35.29,33.22
						c-15.66,13.89-31.83,27.12-48.46,39.67c-0.48,0.36-0.95,0.72-1.43,1.08c-10.48,7.88-21.15,15.48-31.98,22.81
						c-9.76,6.6-19.66,12.98-29.69,19.12l-0.5,0.32l-0.48,0.29c-39.16,24.14-89.26,18.25-121.84-14.33
						c-15.95-15.95-25.51-36.08-28.28-57.07c-1.83-13.8-0.73-27.97,3.41-41.56c2.44-8.01,5.94-15.82,10.51-23.24l0.61-0.98
						c6.14-10.03,12.52-19.93,19.12-29.69c7.66-11.32,15.62-22.46,23.88-33.4c22.24-29.46,46.62-57.47,72.9-83.76
						c11.45-11.45,23.22-22.53,35.3-33.22c15.65-13.88,31.83-27.12,48.47-39.67c0.46-0.36,0.93-0.71,1.41-1.07
						c10.48-7.87,21.15-15.49,32-22.81c8.35-5.66,16.81-11.15,25.36-16.46l6.28-3.87c39.03-23.46,88.5-17.42,120.87,14.95
						c15.96,15.96,25.52,36.08,28.28,57.06C1124.62,648.07,1123.51,662.23,1119.36,675.82z"/>
				</g>
			</g>
		</g>
		<g>
			<g>
				<g>
					<linearGradient id="SVGID_2_" gradientUnits="userSpaceOnUse" x1="606.3669" y1="763.1313" x2="1210.7869" y2="763.1313">
						<stop  offset="0" style="stop-color:#DB5393"/>
						<stop  offset="1" style="stop-color:#4DC0F6"/>
					</linearGradient>
					<path class="st3" d="M1162.54,657.95c-11.62-9.92-25.01-17.98-39.75-23.67c-4.36-1.7-8.84-3.18-13.43-4.44l-7.8-1.94
						c-42.14-10.01-85.2-16.71-128.66-20.03c-20.89-1.6-41.88-2.42-62.9-2.46h-2.84c-21.03,0.04-42.01,0.86-62.9,2.46
						c-44.07,3.36-87.7,10.2-130.34,20.42c-0.57,0.13-1.14,0.25-1.7,0.41c-6.14,1.47-12.09,3.34-17.84,5.56
						c-14.73,5.7-28.1,13.76-39.73,23.69c-29.94,25.55-48.28,63.48-48.28,105.2c0,41.71,18.34,79.62,48.28,105.16
						c11.63,9.94,25.01,18,39.74,23.69c5.75,2.23,11.72,4.1,17.86,5.57c0.57,0.16,1.14,0.29,1.72,0.41
						c42.63,10.22,86.25,17.05,130.3,20.42c20.88,1.61,41.87,2.42,62.89,2.46h2.86c21.01-0.04,41.98-0.86,62.87-2.46
						c43.48-3.33,86.56-10.03,128.71-20.04l7.85-1.96c4.56-1.25,9-2.72,13.33-4.4c14.74-5.69,28.12-13.75,39.75-23.67
						c29.93-25.53,48.26-63.41,48.26-105.18C1210.79,721.37,1192.47,683.49,1162.54,657.95z M1151.17,823.49
						c-8.46,11.04-19.26,20.28-31.81,26.95c-7.05,3.76-14.64,6.7-22.69,8.71l-7.19,1.68l-0.04,0.04
						c-22.53,5.25-45.33,9.52-68.32,12.77c-21.22,3.02-42.6,5.18-64.07,6.47c-16.12,0.98-32.29,1.47-48.47,1.47
						c-16.19,0-32.35-0.49-48.46-1.47c-21.47-1.29-42.86-3.44-64.07-6.46c-24.68-3.49-49.14-8.15-73.26-13.95l-0.58-0.12l-0.55-0.14
						c-8.48-2.01-16.47-5.06-23.86-9c-12.55-6.68-23.35-15.93-31.81-26.98c-12.87-16.8-20.34-37.78-20.34-60.31
						c0-22.54,7.47-43.53,20.35-60.34c8.46-11.06,19.26-20.3,31.8-26.99c7.39-3.94,15.38-6.99,23.86-9l1.13-0.26
						c24.12-5.8,48.58-10.46,73.26-13.95c21.21-3.02,42.6-5.17,64.07-6.46c16.11-0.98,32.27-1.47,48.46-1.47
						c16.18,0,32.35,0.49,48.46,1.47c21.47,1.29,42.86,3.45,64.08,6.47c22.99,3.25,45.79,7.52,68.32,12.78l7.18,1.7
						c8.06,2.01,15.68,4.96,22.74,8.72c12.55,6.69,23.35,15.92,31.8,26.97c12.88,16.79,20.35,37.78,20.35,60.36
						C1171.51,785.72,1164.04,806.7,1151.17,823.49z"/>
				</g>
			</g>
		</g>
		<g>
			<g>
				<g>
					
						<linearGradient id="SVGID_3_" gradientUnits="userSpaceOnUse" x1="523.4474" y1="4803.7822" x2="1127.8682" y2="4803.7822" gradientTransform="matrix(0.7071 0.7071 -0.7071 0.7071 3721.5356 -3217.489)">
						<stop  offset="0" style="stop-color:#DB5393"/>
						<stop  offset="1" style="stop-color:#4DC0F6"/>
					</linearGradient>
					<path class="st4" d="M1162.53,868.33c-1.2-15.24-4.97-30.4-11.36-44.84c-1.89-4.28-4.01-8.5-6.37-12.64l-4.14-6.88
						c-8.54-13.86-17.5-27.48-26.87-40.84c-7.94-11.33-16.17-22.46-24.68-33.4c-21.01-26.99-43.72-52.76-67.99-77.11
						c-0.33-0.34-0.67-0.68-1.01-1.02c-15.2-15.2-30.95-29.79-47.21-43.73c-10.11-8.68-20.42-17.11-30.9-25.27
						c-10.95-8.52-22.09-16.75-33.42-24.68c-13.83-9.71-27.94-18.97-42.3-27.77c-0.49-0.32-0.98-0.63-1.49-0.92
						c-54.66-33.51-124.48-25.21-169.92,20.22c-29.49,29.49-43.32,69.27-40.22,108.5c1.2,15.25,4.96,30.41,11.35,44.86
						c2.49,5.64,5.39,11.18,8.69,16.56c0.29,0.51,0.6,1.01,0.93,1.5c8.8,14.35,18.05,28.44,27.74,42.26
						c7.94,11.33,16.17,22.46,24.68,33.4c21,26.99,43.72,52.76,68.01,77.12c0.33,0.34,0.66,0.67,1,1.01
						c15.2,15.2,30.95,29.79,47.22,43.74c10.11,8.68,20.41,17.1,30.91,25.27c10.93,8.51,22.07,16.74,33.4,24.68
						c13.37,9.38,27,18.35,40.87,26.89l6.94,4.16c54.06,30.74,121.49,21.82,165.87-22.56
						C1151.8,947.3,1165.64,907.55,1162.53,868.33z M1094.49,949.07c-32.35,32.34-81.78,38.38-120.8,14.96l-6.28-3.9h-0.05
						c-8.56-5.32-17.02-10.8-25.37-16.46c-10.84-7.33-21.5-14.93-31.97-22.81c-0.48-0.35-0.96-0.71-1.43-1.08
						c-16.64-12.55-32.82-25.79-48.47-39.67c-12.08-10.69-23.85-21.77-35.3-33.22c-26.28-26.28-50.66-54.3-72.9-83.76
						c-8.26-10.93-16.22-22.07-23.88-33.39c-6.6-9.76-12.98-19.66-19.12-29.69l-0.32-0.51l-0.29-0.48
						c-4.57-7.42-8.07-15.23-10.51-23.24c-4.14-13.6-5.24-27.77-3.42-41.56c2.78-20.98,12.33-41.11,28.26-57.04
						c32.6-32.6,82.72-38.5,121.87-14.36l0.98,0.61c10.03,6.14,19.93,12.52,29.69,19.12c10.83,7.33,21.5,14.94,31.98,22.82
						c0.48,0.36,0.96,0.72,1.43,1.07c16.63,12.55,32.8,25.79,48.45,39.67c12.08,10.69,23.85,21.78,35.3,33.23
						c26.27,26.27,50.64,54.28,72.88,83.75c8.27,10.93,16.23,22.07,23.89,33.4c5.66,8.36,11.15,16.82,16.47,25.38l3.86,6.28
						c4.28,7.13,7.58,14.6,9.92,22.25c4.15,13.6,5.26,27.76,3.42,41.56C1120.01,912.98,1110.45,933.11,1094.49,949.07z"/>
				</g>
			</g>
		</g>
		<g>
			<linearGradient id="SVGID_4_" gradientUnits="userSpaceOnUse" x1="843.6069" y1="763.1213" x2="973.5369" y2="763.1213">
				<stop  offset="0" style="stop-color:#DB5393"/>
				<stop  offset="1" style="stop-color:#4DC0F6"/>
			</linearGradient>
			<path class="st5" d="M973.54,763.12c0,35.82-29.13,64.95-64.94,64.95c-35.85,0-64.99-29.13-64.99-64.95
				c0-35.81,29.14-64.94,64.99-64.94C944.41,698.18,973.54,727.31,973.54,763.12z"/>
		</g>
	</g>
</g>
</svg>
