<?xml version="1.0" standalone="no"?>
<!DOCTYPE svg PUBLIC "-//W3C//DTD SVG 1.1//EN" "http://www.w3.org/Graphics/SVG/1.1/DTD/svg11.dtd" >
<svg xmlns="http://www.w3.org/2000/svg" xmlns:xlink="http://www.w3.org/1999/xlink" version="1.1">
<metadata></metadata>
<defs>
<font id="polylineregular" horiz-adv-x="1064" >
<font-face units-per-em="2048" ascent="1536" descent="-512" />
<missing-glyph horiz-adv-x="500" />
<glyph unicode=" " />
<glyph unicode="!" d="M440 92v53q0 38 27 65.5t65 27.5t65.5 -27.5t27.5 -65.5v-53q0 -38 -27.5 -65t-65.5 -27t-65 27t-27 65zM440 625v798q0 38 27 65.5t65 27.5t65.5 -27.5t27.5 -65.5v-798q0 -38 -27.5 -65.5t-65.5 -27.5t-65 27.5t-27 65.5z" />
<glyph unicode="&#x22;" d="M174 1157v266q0 38 27 65.5t65 27.5t65 -27.5t27 -65.5v-266q0 -38 -27 -65t-65 -27t-65 27t-27 65zM440 1157v266q0 38 27 65.5t65 27.5t65.5 -27.5t27.5 -65.5v-266q0 -38 -27.5 -65t-65.5 -27t-65 27t-27 65z" />
<glyph unicode="#" d="M-92 358q0 38 27 65.5t65 27.5h174v348h-174q-38 0 -65 27t-27 65t27 65t65 27h174v174q0 38 27 65t65 27t65 -27t27 -65v-174h82v174q0 38 27 65t65 27t65.5 -27t27.5 -65v-174h174q38 0 65 -27t27 -65t-27 -65t-65 -27h-174v-348h174q38 0 65 -27.5t27 -65.5t-27 -65 t-65 -27h-174v-174q0 -38 -27.5 -65t-65.5 -27t-65 27t-27 65v174h-82v-174q0 -38 -27 -65t-65 -27t-65 27t-27 65v174h-174q-38 0 -65 27t-27 65zM358 451h82v348h-82v-348z" />
<glyph unicode="$" d="M174 92q0 38 27 65t65 27h228l174 174l-467 467q-26 28 -26 65.5t26 65.5l239 240v227q0 38 27 65.5t65 27.5t65.5 -27.5t27.5 -65.5v-174h174q38 0 65 -27t27 -65t-27 -65t-65 -27h-228l-174 -174l467 -467q26 -28 26 -65.5t-26 -65.5l-239 -240v-227q0 -38 -27.5 -65 t-65.5 -27t-65 27t-27 65v174h-174q-38 0 -65 27t-27 65z" />
<glyph unicode="%" d="M174 891v266q0 38 27 65t65 27h266q38 0 65.5 -27t27.5 -65v-141l92 182q17 34 53 46t70 -5t46 -53t-5 -70l-332 -665h250q38 0 65 -27.5t27 -65.5v-266q0 -38 -27 -65t-65 -27h-267q-38 0 -65 27t-27 65v141l-92 -182q-25 -51 -82 -51q-26 0 -41 10q-34 17 -46 53t5 70 l332 666h-250q-38 0 -65 27t-27 65zM358 983h82v82h-82v-82zM625 184h82v82h-82v-82z" />
<glyph unicode="&#x26;" d="M174 92v266q0 36 27 66l159 160l-170 256q-19 28 -15.5 60.5t26.5 55.5l266 267q28 26 65.5 26t65.5 -26l266 -267q26 -28 26 -65.5t-26 -65.5l-266 -266l98 -149l62 30q34 17 70 5t53 -46t5 -70t-46 -53l-39 -20l73 -113q22 -32 15 -69.5t-39 -57.5q-21 -16 -51 -16 q-52 0 -76 41l-88 131l-328 -162q-47 -23 -90 4q-43 25 -43 78zM358 242l172 86l-65 98l-107 -107v-77zM385 879l109 -162l174 174l-136 135z" />
<glyph unicode="'" d="M440 1157v266q0 38 27 65.5t65 27.5t65.5 -27.5t27.5 -65.5v-266q0 -38 -27.5 -65t-65.5 -27t-65 27t-27 65z" />
<glyph unicode="(" d="M440 92v1065q0 36 27 66l266 266q28 26 65.5 26t65.5 -26q26 -28 26 -65.5t-26 -65.5l-239 -240v-987l239 -240q26 -28 26 -65.5t-26 -65.5q-26 -26 -65 -26q-40 0 -66 26l-266 267q-27 30 -27 65z" />
<glyph unicode=")" d="M175 -174.5q0 37.5 26 65.5l239 240v987l-239 240q-26 28 -26 65.5t26 65.5q28 26 65.5 26t65.5 -26l266 -266q27 -30 27 -66v-1065q0 -35 -27 -65l-266 -267q-26 -26 -66 -26q-39 0 -65 26q-26 28 -26 65.5z" />
<glyph unicode="*" d="M174 891q0 38 27 65t65 27h43l-108 109q-26 28 -26 65.5t26 65.5q28 26 65.5 26t65.5 -26l200 -201l201 201q28 26 65.5 26t65.5 -26q26 -28 26 -65.5t-26 -65.5l-108 -109h43q38 0 65 -27t27 -65t-27 -65t-65 -27h-43l108 -109q26 -28 26 -65.5t-26 -65.5 q-27 -27 -65 -27q-39 0 -66 27l-201 201l-200 -201q-27 -27 -66 -27q-38 0 -65 27q-26 28 -26 65.5t26 65.5l108 109h-43q-38 0 -65 27t-27 65z" />
<glyph unicode="+" d="M174 625q0 38 27 65t65 27h174v174q0 38 27 65t65 27t65.5 -27t27.5 -65v-174h174q38 0 65 -27t27 -65t-27 -65.5t-65 -27.5h-174v-174q0 -38 -27.5 -65t-65.5 -27t-65 27t-27 65v174h-174q-38 0 -65 27.5t-27 65.5z" />
<glyph unicode="," d="M440 145q0 38 27 65.5t65 27.5t65.5 -27.5t27.5 -65.5v-319q0 -38 -27.5 -65t-65.5 -27t-65 27t-27 65v319z" />
<glyph unicode="-" d="M174 625q0 38 27 65t65 27h533q38 0 65 -27t27 -65t-27 -65.5t-65 -27.5h-533q-38 0 -65 27.5t-27 65.5z" />
<glyph unicode="." d="M440 92v53q0 38 27 65.5t65 27.5t65.5 -27.5t27.5 -65.5v-53q0 -38 -27.5 -65t-65.5 -27t-65 27t-27 65z" />
<glyph unicode="/" d="M179 63q-12 36 5 70l533 1065q17 34 53 46t70 -5t46 -53t-5 -70l-533 -1065q-25 -51 -82 -51q-26 0 -41 10q-34 17 -46 53z" />
<glyph unicode="0" d="M174 358v533q0 35 27 65l266 267q28 26 65.5 26t65.5 -26l266 -267q27 -30 27 -65v-533q0 -35 -27 -65l-266 -266q-27 -27 -66 -27q-38 0 -65 27l-266 266q-27 30 -27 65zM358 397l174 -174l175 174v455l-175 174l-174 -174v-455z" />
<glyph unicode="1" d="M174 92q0 38 27 65t65 27h174v750l-108 -109q-28 -26 -65.5 -26t-65.5 26q-26 28 -26 65.5t26 65.5l266 267q40 40 100 20q26 -10 42 -34t16 -52v-973h174q38 0 65 -27t27 -65t-27 -65t-65 -27h-533q-38 0 -65 27t-27 65z" />
<glyph unicode="2" d="M174 92v266q0 36 27 66l467 467l-174 174h-228q-38 0 -65 27t-27 65t27 65t65 27h266q37 0 66 -26l266 -267q26 -28 26 -65.5t-26 -65.5l-506 -506v-135l441 4q37 0 64.5 -27t27.5 -65t-27 -65t-65 -27l-533 -4q-35 0 -65 27q-27 27 -27 65z" />
<glyph unicode="3" d="M174 92q0 38 27 65t65 27h228l174 174l-174 174h-228q-38 0 -65 27.5t-27 65.5t27 65t65 27h228l174 174l-174 174h-228q-38 0 -65 27t-27 65t27 65t65 27h266q37 0 66 -26l266 -267q26 -28 26 -65.5t-26 -65.5l-200 -200l200 -201q26 -28 26 -65.5t-26 -65.5l-266 -266 q-30 -27 -66 -27h-266q-38 0 -65 27t-27 65z" />
<glyph unicode="4" d="M174 625v532q0 38 27 65t65 27t65 -27t27 -65v-440h349v440q0 38 27 65t65 27t65 -27t27 -65v-1065q0 -38 -27 -65t-65 -27t-65 27t-27 65v440h-441q-38 0 -65 27.5t-27 65.5z" />
<glyph unicode="5" d="M174 92q0 38 27 65t65 27h228l174 174l-174 174h-228q-38 0 -65 27.5t-27 65.5v532q0 38 27 65t65 27h533q38 0 65 -27t27 -65t-27 -65t-65 -27h-441v-348h174q36 0 66 -27l266 -266q26 -28 26 -65.5t-26 -65.5l-266 -266q-30 -27 -66 -27h-266q-38 0 -65 27t-27 65z" />
<glyph unicode="6" d="M174 92v799q0 35 27 65l266 267q28 26 65.5 26t65.5 -26q26 -28 26 -65.5t-26 -65.5l-240 -240v-135h441q38 0 65 -27t27 -65v-533q0 -38 -27 -65t-65 -27h-533q-38 0 -65 27t-27 65zM358 184h349v348h-349v-348z" />
<glyph unicode="7" d="M174 1157q0 38 27 65t65 27h533q47 0 71 -35q28 -36 19 -79l-266 -1065q-9 -31 -34.5 -50.5t-56.5 -19.5q-14 0 -22 2q-37 9 -57 42.5t-11 70.5l238 950h-414q-38 0 -65 27t-27 65z" />
<glyph unicode="8" d="M174 92v266q0 36 27 66l200 201l-200 200q-27 30 -27 66v266q0 38 27 65t65 27h533q38 0 65 -27t27 -65v-266q0 -36 -27 -66l-200 -200l200 -201q27 -30 27 -66v-266q0 -38 -27 -65t-65 -27h-533q-38 0 -65 27t-27 65zM358 184h349v135l-175 175l-174 -175v-135zM358 930 l174 -174l175 174v135h-349v-135z" />
<glyph unicode="9" d="M174 625v532q0 38 27 65t65 27h533q38 0 65 -27t27 -65v-799q0 -35 -27 -65l-266 -266q-27 -27 -66 -27q-38 0 -65 27q-26 28 -26 65.5t26 65.5l240 239v135h-441q-38 0 -65 27.5t-27 65.5zM358 717h349v348h-349v-348z" />
<glyph unicode=":" d="M440 92v53q0 38 27 65.5t65 27.5t65.5 -27.5t27.5 -65.5v-53q0 -38 -27.5 -65t-65.5 -27t-65 27t-27 65zM440 598v53q0 38 27 65t65 27t65.5 -27t27.5 -65v-53q0 -38 -27.5 -65t-65.5 -27t-65 27t-27 65z" />
<glyph unicode=";" d="M440 145q0 38 27 65.5t65 27.5t65.5 -27.5t27.5 -65.5v-319q0 -38 -27.5 -65t-65.5 -27t-65 27t-27 65v319zM440 598v53q0 38 27 65t65 27t65.5 -27t27.5 -65v-53q0 -38 -27.5 -65t-65.5 -27t-65 27t-27 65z" />
<glyph unicode="&#x3c;" d="M175 624.5q0 37.5 26 65.5l532 533q28 26 65.5 26t65.5 -26q26 -28 26 -65.5t-26 -65.5l-467 -467l467 -467q26 -28 26 -65.5t-26 -65.5q-27 -27 -65 -27q-39 0 -66 27l-532 532q-26 28 -26 65.5z" />
<glyph unicode="=" d="M174 358q0 38 27 65.5t65 27.5h533q38 0 65 -27.5t27 -65.5t-27 -65t-65 -27h-533q-38 0 -65 27t-27 65zM174 891q0 38 27 65t65 27h533q38 0 65 -27t27 -65t-27 -65t-65 -27h-533q-38 0 -65 27t-27 65z" />
<glyph unicode="&#x3e;" d="M175 92.5q0 37.5 26 65.5l467 467l-467 467q-26 28 -26 65.5t26 65.5q28 26 65.5 26t65.5 -26l532 -533q26 -28 26 -65.5t-26 -65.5l-532 -532q-27 -27 -66 -27q-38 0 -65 27q-26 28 -26 65.5z" />
<glyph unicode="?" d="M174 1423q0 38 27 65.5t65 27.5h266q36 0 66 -27l266 -266q26 -28 26 -65.5t-26 -65.5l-239 -240v-227q0 -38 -27.5 -65.5t-65.5 -27.5t-65 27.5t-27 65.5v266q0 35 27 65l201 201l-174 174h-228q-38 0 -65 27t-27 65zM440 92v53q0 38 27 65.5t65 27.5t65.5 -27.5 t27.5 -65.5v-53q0 -38 -27.5 -65t-65.5 -27t-65 27t-27 65z" />
<glyph unicode="@" d="M174 92v1065q0 36 27 66l266 266q28 26 65.5 26t65.5 -26l266 -266q27 -30 27 -66v-799q0 -38 -27 -65t-65 -27h-267q-38 0 -65 27t-27 65v533q0 38 27 65t65 27h175v135l-175 174l-174 -174v-987l213 -213h228q38 0 65 -27t27 -65t-27 -65t-65 -27h-267q-36 0 -65 26 l-266 267q-27 30 -27 65zM625 451h82v348h-82v-348z" />
<glyph unicode="A" d="M174 92v799q0 35 27 65l266 267q28 26 65.5 26t65.5 -26l266 -267q27 -30 27 -65v-799q0 -38 -27 -65t-65 -27t-65 27t-27 65v440h-349v-440q0 -38 -27 -65t-65 -27t-65 27t-27 65zM358 717h349v135l-175 174l-174 -174v-135z" />
<glyph unicode="B" d="M174 92v1065q0 38 27 65t65 27h266q37 0 66 -26l266 -267q26 -28 26 -65.5t-26 -65.5l-200 -200l200 -201q26 -28 26 -65.5t-26 -65.5l-266 -266q-30 -27 -66 -27h-266q-38 0 -65 27t-27 65zM358 184h136l174 174l-174 174h-136v-348zM358 717h136l174 174l-174 174h-136 v-348z" />
<glyph unicode="C" d="M174 358v533q0 35 27 65l266 267q29 26 65 26h267q38 0 65 -27t27 -65t-27 -65t-65 -27h-228l-213 -213v-455l213 -213h228q38 0 65 -27t27 -65t-27 -65t-65 -27h-267q-35 0 -65 27l-266 266q-27 30 -27 65z" />
<glyph unicode="D" d="M174 92v1065q0 38 27 65t65 27h266q37 0 66 -26l266 -267q27 -30 27 -65v-533q0 -35 -27 -65l-266 -266q-30 -27 -66 -27h-266q-38 0 -65 27t-27 65zM358 184h136l213 213v455l-213 213h-136v-881z" />
<glyph unicode="E" d="M174 92v1065q0 38 27 65t65 27h533q38 0 65 -27t27 -65t-27 -65t-65 -27h-441v-348h441q38 0 65 -27t27 -65t-27 -65.5t-65 -27.5h-441v-348h441q38 0 65 -27t27 -65t-27 -65t-65 -27h-533q-38 0 -65 27t-27 65z" />
<glyph unicode="F" d="M174 92v1065q0 38 27 65t65 27h533q38 0 65 -27t27 -65t-27 -65t-65 -27h-441v-348h441q38 0 65 -27t27 -65t-27 -65.5t-65 -27.5h-441v-440q0 -38 -27 -65t-65 -27t-65 27t-27 65z" />
<glyph unicode="G" d="M174 358v533q0 35 27 65l266 267q29 26 65 26h267q38 0 65 -27t27 -65t-27 -65t-65 -27h-228l-213 -213v-455l213 -213h136v348h-175q-38 0 -65 27.5t-27 65.5t27 65t65 27h267q38 0 65 -27t27 -65v-533q0 -38 -27 -65t-65 -27h-267q-35 0 -65 27l-266 266q-27 30 -27 65 z" />
<glyph unicode="H" d="M174 92v1065q0 38 27 65t65 27t65 -27t27 -65v-440h349v440q0 38 27 65t65 27t65 -27t27 -65v-1065q0 -38 -27 -65t-65 -27t-65 27t-27 65v440h-349v-440q0 -38 -27 -65t-65 -27t-65 27t-27 65z" />
<glyph unicode="I" d="M174 92q0 38 27 65t65 27h174v881h-174q-38 0 -65 27t-27 65t27 65t65 27h533q38 0 65 -27t27 -65t-27 -65t-65 -27h-174v-881h174q38 0 65 -27t27 -65t-27 -65t-65 -27h-533q-38 0 -65 27t-27 65z" />
<glyph unicode="J" d="M175 358.5q0 37.5 26 65.5q28 26 65.5 26t65.5 -26l200 -201l175 174v760q0 38 27 65t65 27t65 -27t27 -65v-799q0 -35 -27 -65l-266 -266q-27 -27 -66 -27q-38 0 -65 27l-266 266q-26 28 -26 65.5z" />
<glyph unicode="K" d="M174 92v533v532q0 38 27 65t65 27t65 -27t27 -65v-309l375 375q28 26 65.5 26t65.5 -26q26 -28 26 -65.5t-26 -65.5l-467 -467l467 -467q26 -28 26 -65.5t-26 -65.5q-27 -27 -65 -27q-39 0 -66 27l-375 374v-309q0 -38 -27 -65t-65 -27t-65 27t-27 65z" />
<glyph unicode="L" d="M174 92v1065q0 38 27 65t65 27t65 -27t27 -65v-973h441q38 0 65 -27t27 -65t-27 -65t-65 -27h-533q-38 0 -65 27t-27 65z" />
<glyph unicode="M" d="M174 92v1065q0 32 20 57.5t52 32.5q31 8 60 -6t42 -43l184 -367l185 367q13 29 42 43t60 6q32 -7 52 -32.5t20 -57.5v-1065q0 -38 -27 -65t-65 -27t-65 27t-27 65v674l-93 -182q-11 -23 -33.5 -37.5t-48.5 -14.5t-48 14.5t-33 37.5l-93 182v-674q0 -38 -27 -65t-65 -27 t-65 27t-27 65z" />
<glyph unicode="N" d="M174 92v1065q0 32 20 57.5t52 32.5q31 8 60 -6t42 -43l359 -715v674q0 38 27 65t65 27t65 -27t27 -65v-1065q0 -32 -20 -57.5t-52 -32.5q-6 -2 -20 -2q-60 0 -82 51l-359 715v-674q0 -38 -27 -65t-65 -27t-65 27t-27 65z" />
<glyph unicode="O" d="M174 358v533q0 35 27 65l266 267q28 26 65.5 26t65.5 -26l266 -267q27 -30 27 -65v-533q0 -35 -27 -65l-266 -266q-27 -27 -66 -27q-38 0 -65 27l-266 266q-27 30 -27 65zM358 397l174 -174l175 174v455l-175 174l-174 -174v-455z" />
<glyph unicode="P" d="M174 92v1065q0 38 27 65t65 27h266q37 0 66 -26l266 -267q26 -28 26 -65.5t-26 -65.5l-266 -266q-30 -27 -66 -27h-174v-440q0 -38 -27 -65t-65 -27t-65 27t-27 65zM358 717h136l174 174l-174 174h-136v-348z" />
<glyph unicode="Q" d="M174 358v533q0 35 27 65l266 267q28 26 65.5 26t65.5 -26l266 -267q27 -30 27 -65v-533q0 -35 -27 -65l-200 -201l200 -201q26 -28 26 -65.5t-26 -65.5q-26 -26 -65 -26q-40 0 -66 26l-266 267l-266 266q-27 30 -27 65zM358 397l174 -174l175 174v455l-175 174l-174 -174 v-455z" />
<glyph unicode="R" d="M174 92v1065q0 38 27 65t65 27h266q37 0 66 -26l266 -267q26 -28 26 -65.5t-26 -65.5l-219 -219l236 -473q10 -20 10 -41q0 -15 -5 -29q-12 -36 -46 -53q-15 -10 -41 -10q-57 0 -82 51l-242 481h-117v-440q0 -38 -27 -65t-65 -27t-65 27t-27 65zM358 717h136l174 174 l-174 174h-136v-348z" />
<glyph unicode="S" d="M174 92q0 38 27 65t65 27h228l174 174l-467 467q-26 28 -26 65.5t26 65.5l266 267q29 26 65 26h267q38 0 65 -27t27 -65t-27 -65t-65 -27h-228l-174 -174l467 -467q26 -28 26 -65.5t-26 -65.5l-266 -266q-30 -27 -66 -27h-266q-38 0 -65 27t-27 65z" />
<glyph unicode="T" d="M174 1157q0 38 27 65t65 27h533q38 0 65 -27t27 -65t-27 -65t-65 -27h-174v-973q0 -38 -27.5 -65t-65.5 -27t-65 27t-27 65v973h-174q-38 0 -65 27t-27 65z" />
<glyph unicode="U" d="M174 92v1065q0 38 27 65t65 27t65 -27t27 -65v-973h349v973q0 38 27 65t65 27t65 -27t27 -65v-1065q0 -38 -27 -65t-65 -27h-533q-38 0 -65 27t-27 65z" />
<glyph unicode="V" d="M176 1135q-3 11 -3 23q0 25 14 47q20 33 57 42q12 3 23 3q24 0 47 -14q33 -20 42 -56l176 -709l177 709q9 36 42 56q23 13 47 14q11 0 23 -3q37 -9 57 -42q14 -23 14 -47q0 -11 -3 -23l-266 -1065q-7 -31 -33 -50.5t-58 -19.5t-57 19.5t-33 50.5z" />
<glyph unicode="W" d="M174 92v1065q0 38 27 65t65 27t65 -27t27 -65v-674l93 183q10 23 32.5 37t48.5 14t49 -14t33 -37l93 -183v674q0 38 27 65t65 27t65 -27t27 -65v-1065q0 -32 -20 -57.5t-52 -32.5q-6 -2 -20 -2q-60 0 -82 51l-185 367l-184 -367q-13 -29 -42 -43t-60 -6q-32 7 -52 32.5 t-20 57.5z" />
<glyph unicode="X" d="M179 63q-5 15 -5 29q0 21 10 41l246 492l-246 491q-10 20 -10 41q0 15 5 29q12 36 46 53q20 10 41 10q15 0 29 -5q36 -12 53 -46l184 -367l185 367q17 34 53 46q15 5 29 5q21 0 41 -10q34 -17 46 -53q5 -15 5 -29q0 -21 -10 -41l-246 -491l246 -492q10 -20 10 -41 q0 -15 -5 -29q-12 -36 -46 -53q-15 -10 -41 -10q-57 0 -82 51l-185 367l-184 -367q-25 -51 -82 -51q-26 0 -41 10q-34 17 -46 53z" />
<glyph unicode="Y" d="M179 1186q12 36 46 53q20 10 41 10q14 0 29 -5q36 -12 53 -46l184 -367l185 367q17 34 53 46q15 5 29 5q21 0 41 -10q34 -17 46 -53q5 -15 5 -29q0 -21 -10 -41l-256 -514v-510q0 -38 -27.5 -65t-65.5 -27t-65 27t-27 65v510l-256 514q-10 20 -10 41q0 14 5 29z" />
<glyph unicode="Z" d="M174 1157q0 38 27 65t65 27h533q53 0 78 -43q14 -25 14 -49q0 -21 -10 -41l-465 -932h383q38 0 65 -27t27 -65t-27 -65t-65 -27h-533q-53 0 -78 43q-15 23 -15 48q0 21 11 42l465 932h-383q-38 0 -65 27t-27 65z" />
<glyph unicode="[" d="M440 -174v1597q0 38 27 65.5t65 27.5h267q38 0 65 -27.5t27 -65.5t-27 -65t-65 -27h-174v-1413h174q38 0 65 -27t27 -65t-27 -65t-65 -27h-267q-38 0 -65 27t-27 65z" />
<glyph unicode="\" d="M179 1186q12 36 46 53t70 5t53 -46l533 -1065q17 -34 5 -70t-46 -53q-15 -10 -41 -10q-57 0 -82 51l-533 1065q-17 34 -5 70z" />
<glyph unicode="]" d="M174 -174q0 38 27 65t65 27h174v1413h-174q-38 0 -65 27t-27 65t27 65.5t65 27.5h266q38 0 65.5 -27.5t27.5 -65.5v-1597q0 -38 -27.5 -65t-65.5 -27h-266q-38 0 -65 27t-27 65z" />
<glyph unicode="^" d="M175 890.5q0 37.5 26 65.5l266 267q28 26 65.5 26t65.5 -26l266 -267q26 -28 26 -65.5t-26 -65.5q-26 -26 -65 -26q-40 0 -66 26l-201 201l-200 -201q-28 -26 -65.5 -26t-65.5 26q-26 28 -26 65.5z" />
<glyph unicode="_" d="M174 -174q0 38 27 65t65 27h533q38 0 65 -27t27 -65t-27 -65t-65 -27h-533q-38 0 -65 27t-27 65z" />
<glyph unicode="`" d="M175 1157.5q0 37.5 26 65.5q28 26 65.5 26t65.5 -26l266 -267q26 -28 26 -65.5t-26 -65.5q-26 -26 -66 -26q-39 0 -65 26l-266 267q-26 28 -26 65.5z" />
<glyph unicode="a" d="M174 92v266q0 26 14 49t37 33l418 209l-149 150h-228q-38 0 -65 27t-27 65t27 65t65 27h266q36 0 66 -27l264 -264q14 -14 19 -24v-2q10 -18 10 -43v-531q0 -38 -27 -65t-65 -27h-533q-38 0 -65 27t-27 65zM358 184h349v291l-349 -174v-117z" />
<glyph unicode="b" d="M174 92v1331q0 38 27 65.5t65 27.5t65 -27.5t27 -65.5v-440h174q36 0 66 -27l266 -266q27 -30 27 -65v-267q0 -35 -27 -65l-266 -266q-30 -27 -66 -27h-266q-38 0 -65 27t-27 65zM358 184h136l213 213v189l-213 213h-136v-615z" />
<glyph unicode="c" d="M174 358v267q0 35 27 65l266 266q30 27 65 27h267q38 0 65 -27t27 -65t-27 -65t-65 -27h-228l-213 -213v-189l213 -213h228q38 0 65 -27t27 -65t-27 -65t-65 -27h-267q-35 0 -65 27l-266 266q-27 30 -27 65z" />
<glyph unicode="d" d="M174 358v267q0 35 27 65l266 266q30 27 65 27h175v440q0 38 27 65.5t65 27.5t65 -27.5t27 -65.5v-1331q0 -38 -27 -65t-65 -27h-267q-35 0 -65 27l-266 266q-27 30 -27 65zM358 397l213 -213h136v615h-136l-213 -213v-189z" />
<glyph unicode="e" d="M174 360v531q0 38 27 65t65 27h533q38 0 65 -27t27 -65v-266q0 -26 -14 -49t-37 -33l-418 -209l149 -150h228q38 0 65 -27t27 -65t-27 -65t-65 -27h-267q-35 0 -65 27l-264 264q-14 14 -19 24v2q-10 17 -10 43zM358 508l349 174v117h-349v-291z" />
<glyph unicode="f" d="M174 891q0 38 27 65t65 27h174v174q0 36 27 66l266 266q28 26 65.5 26t65.5 -26q26 -28 26 -65.5t-26 -65.5l-239 -240v-135h174q38 0 65 -27t27 -65t-27 -65t-65 -27h-174v-973q0 -38 -27.5 -65t-65.5 -27t-65 27t-27 65v973h-174q-38 0 -65 27t-27 65z" />
<glyph unicode="g" d="M174 358v267q0 35 27 65l266 266q30 27 65 27h267q38 0 65 -27t27 -65v-1065q0 -36 -27 -66l-266 -266q-29 -26 -66 -26h-266q-38 0 -65 27t-27 65t27 65t65 27h228l213 213v135h-175q-35 0 -65 27l-266 266q-27 30 -27 65zM358 397l213 -213h136v615h-136l-213 -213 v-189z" />
<glyph unicode="h" d="M174 92v1331q0 38 27 65.5t65 27.5t65 -27.5t27 -65.5v-440h174q36 0 66 -27l266 -266q27 -30 27 -65v-533q0 -38 -27 -65t-65 -27t-65 27t-27 65v494l-213 213h-136v-707q0 -38 -27 -65t-65 -27t-65 27t-27 65z" />
<glyph unicode="i" d="M174 92q0 38 27 65t65 27h174v615h-174q-38 0 -65 27t-27 65t27 65t65 27h266q38 0 65.5 -27t27.5 -65v-707h174q38 0 65 -27t27 -65t-27 -65t-65 -27h-533q-38 0 -65 27t-27 65zM440 1370v53q0 38 27 65.5t65 27.5t65.5 -27.5t27.5 -65.5v-53q0 -38 -27.5 -65t-65.5 -27 t-65 27t-27 65z" />
<glyph unicode="j" d="M174 891q0 38 27 65t65 27h266q38 0 65.5 -27t27.5 -65v-1065q0 -36 -27 -66l-266 -266q-26 -26 -66 -26q-39 0 -65 26q-26 28 -26 65.5t26 65.5l239 240v934h-174q-38 0 -65 27t-27 65zM440 1370v53q0 38 27 65.5t65 27.5t65.5 -27.5t27.5 -65.5v-53q0 -38 -27.5 -65 t-65.5 -27t-65 27t-27 65z" />
<glyph unicode="k" d="M174 92v1331q0 38 27 65.5t65 27.5t65 -27.5t27 -65.5v-649l400 199q20 10 41 10q15 0 29 -5q36 -12 53 -46q10 -20 10 -41q0 -15 -5 -29q-12 -36 -46 -53l-418 -209l442 -442q26 -28 26 -65.5t-26 -65.5q-27 -27 -65 -27q-39 0 -66 27l-375 374v-309q0 -38 -27 -65 t-65 -27t-65 27t-27 65z" />
<glyph unicode="l" d="M174 1423q0 38 27 65.5t65 27.5h266q38 0 65.5 -27.5t27.5 -65.5v-1239h174q38 0 65 -27t27 -65t-27 -65t-65 -27h-267q-38 0 -65 27t-27 65v1239h-174q-38 0 -65 27t-27 65z" />
<glyph unicode="m" d="M174 92v799q0 38 27 65t65 27h533q38 0 65 -27t27 -65v-799q0 -38 -27 -65t-65 -27t-65 27t-27 65v707h-82v-441q0 -38 -27.5 -65t-65.5 -27t-65 27t-27 65v441h-82v-707q0 -38 -27 -65t-65 -27t-65 27t-27 65z" />
<glyph unicode="n" d="M174 92v799q0 38 27 65t65 27h533q38 0 65 -27t27 -65v-799q0 -38 -27 -65t-65 -27t-65 27t-27 65v707h-349v-707q0 -38 -27 -65t-65 -27t-65 27t-27 65z" />
<glyph unicode="o" d="M174 358v267q0 35 27 65l266 266q28 26 65.5 26t65.5 -26l266 -266q27 -30 27 -65v-267q0 -35 -27 -65l-266 -266q-27 -27 -66 -27q-38 0 -65 27l-266 266q-27 30 -27 65zM358 397l174 -174l175 174v189l-175 174l-174 -174v-189z" />
<glyph unicode="p" d="M174 -440v1331q0 38 27 65t65 27h266q36 0 66 -27l266 -266q27 -30 27 -65v-267q0 -35 -27 -65l-266 -266q-30 -27 -66 -27h-174v-440q0 -38 -27 -65t-65 -27t-65 27t-27 65zM358 184h136l213 213v189l-213 213h-136v-615z" />
<glyph unicode="q" d="M174 358v267q0 35 27 65l266 266q30 27 65 27h267q38 0 65 -27t27 -65v-1331q0 -38 -27 -65t-65 -27t-65 27t-27 65v440h-175q-35 0 -65 27l-266 266q-27 30 -27 65zM358 397l213 -213h136v615h-136l-213 -213v-189z" />
<glyph unicode="r" d="M174 92v799q0 38 27 65t65 27h533q38 0 65 -27t27 -65v-266q0 -38 -27 -65.5t-65 -27.5t-65 27.5t-27 65.5v174h-349v-707q0 -38 -27 -65t-65 -27t-65 27t-27 65z" />
<glyph unicode="s" d="M174 92q0 38 27 65t65 27h228l149 150l-418 209q-42 19 -49 67q-2 10 -2 19q0 34 27 61l266 266q30 27 65 27h267q38 0 65 -27t27 -65t-27 -65t-65 -27h-228l-149 -150l418 -209q42 -19 49 -67q2 -10 2 -19q0 -34 -27 -61l-266 -266q-30 -27 -66 -27h-266q-38 0 -65 27 t-27 65z" />
<glyph unicode="t" d="M174 891q0 38 27 65t65 27h174v440q0 38 27 65.5t65 27.5t65.5 -27.5t27.5 -65.5v-440h174q38 0 65 -27t27 -65t-27 -65t-65 -27h-174v-402l239 -239q26 -28 26 -65.5t-26 -65.5q-27 -27 -65 -27q-39 0 -66 27l-266 266q-27 30 -27 65v441h-174q-38 0 -65 27t-27 65z" />
<glyph unicode="u" d="M174 92v799q0 38 27 65t65 27t65 -27t27 -65v-707h349v707q0 38 27 65t65 27t65 -27t27 -65v-799q0 -38 -27 -65t-65 -27h-533q-38 0 -65 27t-27 65z" />
<glyph unicode="v" d="M178 862q-5 14 -5 28q1 21 11 42q18 35 54 47q14 5 29 5q21 0 41 -10q34 -17 46 -54l178 -537l179 537q13 37 47 54q20 10 40 10q14 0 29 -5q37 -12 55 -47q10 -21 10 -42q0 -14 -5 -28l-266 -799q-9 -29 -34 -46t-55 -17t-54.5 17t-33.5 46z" />
<glyph unicode="w" d="M174 92v799q0 38 27 65t65 27t65 -27t27 -65v-408l93 183q10 23 32.5 37t48.5 14t49 -14t33 -37l93 -183v408q0 38 27 65t65 27t65 -27t27 -65v-799q0 -32 -20 -57.5t-52 -32.5q-6 -2 -20 -2q-60 0 -82 51l-185 367l-184 -367q-13 -29 -42 -43t-60 -6q-32 7 -52 32.5 t-20 57.5z" />
<glyph unicode="x" d="M176 74q-2 10 -2 18q0 27 16 51l232 349l-232 348q-16 24 -16 51q0 9 2 19q8 38 39 57q24 16 51 16q8 1 18 -1q38 -8 58 -40l190 -285l191 285q19 32 57 40q10 2 19 1q27 0 51 -16q32 -19 39 -57q2 -9 2 -18q0 -27 -17 -52l-231 -348l231 -349q17 -24 17 -52q0 -9 -2 -17 q-7 -38 -39 -58q-21 -16 -51 -16q-52 0 -76 41l-191 285l-190 -285q-24 -41 -76 -41q-30 0 -51 16q-31 20 -39 58z" />
<glyph unicode="y" d="M178 862q-5 14 -5 28q0 21 11 42q17 35 54 47q14 5 29 5q20 0 41 -10q34 -17 46 -54l178 -537l179 537q12 37 47 54q20 10 40 10q15 0 29 -5q37 -12 55 -47q10 -21 10 -42q0 -14 -5 -28l-266 -799q-1 -2 -3 -2v-2q0 -2 -2 -4q0 -2 -2 -4l-266 -532q-25 -51 -82 -51 q-21 0 -41 10q-34 17 -46 53q-5 15 -5 29q0 21 10 41l248 497z" />
<glyph unicode="z" d="M174 891q0 38 27 65t65 27h533q57 0 82 -49q11 -21 11 -41q0 -26 -18 -53l-436 -656h361q38 0 65 -27t27 -65t-27 -65t-65 -27h-533q-57 0 -82 49q-12 21 -12 42q0 26 18 52l437 656h-361q-38 0 -65 27t-27 65z" />
<glyph unicode="{" d="M174 625q0 38 27 65t65 27h174v706q0 38 27 65.5t65 27.5h267q38 0 65 -27.5t27 -65.5t-27 -65t-65 -27h-174v-1413h174q38 0 65 -27t27 -65t-27 -65t-65 -27h-267q-38 0 -65 27t-27 65v706h-174q-38 0 -65 27.5t-27 65.5z" />
<glyph unicode="|" d="M440 -174v1597q0 38 27 65.5t65 27.5t65.5 -27.5t27.5 -65.5v-1597q0 -38 -27.5 -65t-65.5 -27t-65 27t-27 65z" />
<glyph unicode="}" d="M174 -174q0 38 27 65t65 27h174v1413h-174q-38 0 -65 27t-27 65t27 65.5t65 27.5h266q38 0 65.5 -27.5t27.5 -65.5v-706h174q38 0 65 -27t27 -65t-27 -65.5t-65 -27.5h-174v-706q0 -38 -27.5 -65t-65.5 -27h-266q-38 0 -65 27t-27 65z" />
<glyph unicode="~" d="M175 890.5q0 37.5 26 65.5l266 267q28 26 65.5 26t65.5 -26l201 -201l200 201q28 26 65.5 26t65.5 -26q26 -28 26 -65.5t-26 -65.5l-266 -267q-26 -26 -65 -26q-40 0 -66 26l-201 201l-200 -201q-28 -26 -65.5 -26t-65.5 26q-26 28 -26 65.5z" />
<glyph unicode="&#xa0;" />
<glyph unicode="&#xa1;" d="M440 358q0 38 27 65.5t65 27.5t65.5 -27.5t27.5 -65.5v-798q0 -38 -27.5 -65t-65.5 -27t-65 27t-27 65v798zM440 838v53q0 38 27 65t65 27t65.5 -27t27.5 -65v-53q0 -38 -27.5 -65.5t-65.5 -27.5t-65 27.5t-27 65.5z" />
<glyph unicode="&#xa2;" d="M174 625v266q0 35 27 65l239 240v227q0 38 27 65.5t65 27.5t65.5 -27.5t27.5 -65.5v-174h174q38 0 65 -27t27 -65t-27 -65t-65 -27h-228l-213 -213v-188l213 -213h228q38 0 65 -27.5t27 -65.5t-27 -65t-65 -27h-174v-174q0 -38 -27.5 -65t-65.5 -27t-65 27t-27 65v227 l-239 240q-27 30 -27 66z" />
<glyph unicode="&#xa3;" d="M-92 625q0 38 27 65t65 27h174v174q0 35 27 65l266 267q28 26 65.5 26t65.5 -26l266 -267q26 -28 26 -65.5t-26 -65.5q-28 -26 -65.5 -26t-65.5 26l-201 201l-174 -174v-135h174q38 0 65.5 -27t27.5 -65t-27.5 -65.5t-65.5 -27.5h-174v-348h441q38 0 65 -27t27 -65 t-27 -65t-65 -27h-533q-38 0 -65 27t-27 65v440h-174q-38 0 -65 27.5t-27 65.5z" />
<glyph unicode="&#xa4;" d="M174 92v1065q0 38 27 65t65 27h533q38 0 65 -27t27 -65v-1065q0 -38 -27 -65t-65 -27h-533q-38 0 -65 27t-27 65zM358 184h349v881h-349v-881z" />
<glyph unicode="&#xa5;" d="M174 358q0 38 27 65.5t65 27.5h174v81h-174q-38 0 -65 27.5t-27 65.5t27 65t65 27h117l-199 399q-17 34 -5 70t46 53t70 5t53 -46l184 -367l185 367q17 34 53 46t70 -5t46 -53t-5 -70l-199 -399h117q38 0 65 -27t27 -65t-27 -65.5t-65 -27.5h-174v-81h174q38 0 65 -27.5 t27 -65.5t-27 -65t-65 -27h-174v-174q0 -38 -27.5 -65t-65.5 -27t-65 27t-27 65v174h-174q-38 0 -65 27t-27 65z" />
<glyph unicode="&#xa6;" d="M440 -174v532q0 38 27 65.5t65 27.5t65.5 -27.5t27.5 -65.5v-532q0 -38 -27.5 -65t-65.5 -27t-65 27t-27 65zM440 891v532q0 38 27 65.5t65 27.5t65.5 -27.5t27.5 -65.5v-532q0 -38 -27.5 -65t-65.5 -27t-65 27t-27 65z" />
<glyph unicode="&#xa7;" d="M174 -174q0 38 27 65t65 27h228l174 174l-467 467q-26 28 -26 65.5t26 65.5l200 201l-200 201q-26 28 -26 65.5t26 65.5l266 266q30 27 65 27h267q38 0 65 -27.5t27 -65.5t-27 -65t-65 -27h-228l-174 -174l467 -467q26 -28 26 -65.5t-26 -65.5l-200 -201l200 -200 q26 -28 26 -65.5t-26 -65.5l-266 -267q-29 -26 -66 -26h-266q-38 0 -65 27t-27 65zM397 625l135 -136l136 136l-136 135z" />
<glyph unicode="&#xa8;" d="M174 1104v53q0 38 27 65t65 27t65 -27t27 -65v-53q0 -38 -27 -65t-65 -27t-65 27t-27 65zM707 1104v53q0 38 27 65t65 27t65 -27t27 -65v-53q0 -38 -27 -65t-65 -27t-65 27t-27 65z" />
<glyph unicode="&#xa9;" d="M-92 358v533q0 36 26 65l267 267q29 26 65 26h266q37 0 66 -26l266 -267q27 -30 27 -65v-533q0 -35 -27 -65l-266 -266q-30 -27 -66 -27h-266q-35 0 -65 27l-267 266q-26 29 -26 65zM92 397l213 -213h189l213 213v455l-213 213h-189l-213 -213v-455zM174 358v533 q0 38 27 65t65 27h266q38 0 65.5 -27t27.5 -65t-27.5 -65t-65.5 -27h-174v-348h174q38 0 65.5 -27.5t27.5 -65.5t-27.5 -65t-65.5 -27h-266q-38 0 -65 27t-27 65z" />
<glyph unicode="&#xaa;" d="M174 891v266q0 38 27 65t65 27h174v82h-174q-38 0 -65 27t-27 65t27 65.5t65 27.5h266q38 0 65.5 -27.5t27.5 -65.5v-532q0 -38 -27.5 -65t-65.5 -27h-266q-38 0 -65 27t-27 65zM358 983h82v82h-82v-82z" />
<glyph unicode="&#xab;" d="M-92 624.5q0 37.5 26 65.5l267 266q28 26 65.5 26t65.5 -26q26 -28 26 -65.5t-26 -65.5l-201 -200l201 -201q26 -28 26 -65.5t-26 -65.5q-27 -27 -66 -27q-38 0 -65 27l-267 266q-26 28 -26 65.5zM441 624.5q0 37.5 26 65.5l266 266q28 26 65.5 26t65.5 -26 q26 -28 26 -65.5t-26 -65.5l-200 -200l200 -201q26 -28 26 -65.5t-26 -65.5q-27 -27 -65 -27q-39 0 -66 27l-266 266q-26 28 -26 65.5z" />
<glyph unicode="&#xac;" d="M174 625q0 38 27 65t65 27h533q38 0 65 -27t27 -65v-267q0 -38 -27 -65t-65 -27t-65 27t-27 65v174h-441q-38 0 -65 27.5t-27 65.5z" />
<glyph unicode="&#xad;" d="M174 625q0 38 27 65t65 27h533q38 0 65 -27t27 -65t-27 -65.5t-65 -27.5h-533q-38 0 -65 27.5t-27 65.5z" />
<glyph unicode="&#xae;" d="M174 358v533q0 35 27 65l266 267q29 26 65 26h267q36 0 65 -26l266 -267q27 -30 27 -65v-533q0 -35 -27 -65l-266 -266q-30 -27 -65 -27h-267q-35 0 -65 27l-266 266q-27 30 -27 65zM358 397l213 -213h189l213 213v455l-213 213h-189l-213 -213v-455zM440 358v267v266 q0 38 27 65t65 27h267q38 0 65 -27t27 -65v-266q0 -38 -27 -65.5t-65 -27.5h-43l108 -108q26 -28 26 -65.5t-26 -65.5q-27 -27 -65 -27q-39 0 -66 27l-108 108v-43q0 -38 -27.5 -65t-65.5 -27t-65 27t-27 65zM625 717h82v82h-82v-82z" />
<glyph unicode="&#xaf;" d="M174 1423q0 38 27 65.5t65 27.5h533q38 0 65 -27.5t27 -65.5t-27 -65t-65 -27h-533q-38 0 -65 27t-27 65z" />
<glyph unicode="&#xb0;" d="M175 1157.5q0 37.5 26 65.5l266 266q28 26 65.5 26t65.5 -26l266 -266q26 -28 26 -65.5t-26 -65.5l-266 -267q-26 -26 -66 -26q-39 0 -65 26l-266 267q-26 28 -26 65.5zM397 1157l135 -135l136 135l-136 135z" />
<glyph unicode="&#xb1;" d="M174 92q0 38 27 65t65 27h533q38 0 65 -27t27 -65t-27 -65t-65 -27h-533q-38 0 -65 27t-27 65zM174 625q0 38 27 65t65 27h174v174q0 38 27 65t65 27t65.5 -27t27.5 -65v-174h174q38 0 65 -27t27 -65t-27 -65.5t-65 -27.5h-174v-174q0 -38 -27.5 -65t-65.5 -27t-65 27 t-27 65v174h-174q-38 0 -65 27.5t-27 65.5z" />
<glyph unicode="&#xb2;" d="M174 891v266q0 38 27 65t65 27h174v82h-174q-38 0 -65 27t-27 65t27 65.5t65 27.5h266q38 0 65.5 -27.5t27.5 -65.5v-266q0 -38 -27.5 -65t-65.5 -27h-174v-82h174q38 0 65.5 -27t27.5 -65t-27.5 -65t-65.5 -27h-266q-38 0 -65 27t-27 65z" />
<glyph unicode="&#xb3;" d="M174 891q0 38 27 65t65 27h174v82h-174q-38 0 -65 27t-27 65t27 65t65 27h174v82h-174q-38 0 -65 27t-27 65t27 65.5t65 27.5h266q38 0 65.5 -27.5t27.5 -65.5v-532q0 -38 -27.5 -65t-65.5 -27h-266q-38 0 -65 27t-27 65z" />
<glyph unicode="&#xb4;" d="M441 890.5q0 37.5 26 65.5l266 267q28 26 65.5 26t65.5 -26q26 -28 26 -65.5t-26 -65.5l-266 -267q-26 -26 -66 -26q-39 0 -65 26q-26 28 -26 65.5z" />
<glyph unicode="&#xb5;" d="M174 -440v1331q0 38 27 65t65 27t65 -27t27 -65v-707h349v707q0 38 27 65t65 27t65 -27t27 -65v-799q0 -38 -27 -65t-65 -27h-441v-440q0 -38 -27 -65t-65 -27t-65 27t-27 65z" />
<glyph unicode="&#xb6;" d="M174 891v532q0 38 27 65.5t65 27.5h533q38 0 65 -27.5t27 -65.5v-1331q0 -38 -27 -65t-65 -27t-65 27t-27 65v1239h-82v-1239q0 -38 -27.5 -65t-65.5 -27t-65 27t-27 65v707h-174q-38 0 -65 27t-27 65zM358 983h82v348h-82v-348z" />
<glyph unicode="&#xb7;" d="M440 598v53q0 38 27 65t65 27t65.5 -27t27.5 -65v-53q0 -38 -27.5 -65t-65.5 -27t-65 27t-27 65z" />
<glyph unicode="&#xb8;" d="M440 -174q0 38 27 65t65 27h43l-108 109q-26 28 -26 65.5t26 65.5q28 26 65.5 26t65.5 -26l266 -267q41 -41 21 -100q-10 -26 -34 -41.5t-52 -15.5h-267q-38 0 -65 27t-27 65z" />
<glyph unicode="&#xb9;" d="M175 1157.5q0 37.5 26 65.5l266 266q43 43 100 20q26 -10 42 -34t16 -52v-532q0 -38 -27.5 -65t-65.5 -27t-65 27t-27 65v309l-108 -108q-28 -26 -65.5 -26t-65.5 26q-26 28 -26 65.5z" />
<glyph unicode="&#xba;" d="M174 891v532q0 38 27 65.5t65 27.5h266q38 0 65.5 -27.5t27.5 -65.5v-532q0 -38 -27.5 -65t-65.5 -27h-266q-38 0 -65 27t-27 65zM358 983h82v348h-82v-348z" />
<glyph unicode="&#xbb;" d="M175 358.5q0 37.5 26 65.5l200 201l-200 200q-26 28 -26 65.5t26 65.5q28 26 65.5 26t65.5 -26l266 -266q26 -28 26 -65.5t-26 -65.5l-266 -266q-27 -27 -66 -27q-38 0 -65 27q-26 28 -26 65.5zM707 358.5q0 37.5 26 65.5l201 201l-201 200q-26 28 -26 65.5t26 65.5 q28 26 65.5 26t65.5 -26l266 -266q26 -28 26 -65.5t-26 -65.5l-266 -266q-27 -27 -65 -27q-39 0 -66 27q-26 28 -26 65.5z" />
<glyph unicode="&#xbc;" d="M175 1157.5q0 37.5 26 65.5l266 266q43 43 100 20q26 -10 42 -34t16 -52v-407l92 182q17 34 53 46t70 -5t46 -53t-5 -70l-334 -667q33 -4 55.5 -30.5t22.5 -60.5v-174h82v174q0 38 27 65.5t65 27.5t65 -27.5t27 -65.5v-532q0 -38 -27 -65t-65 -27t-65 27t-27 65v174h-175 q-38 0 -65 27t-27 65v141l-92 -182q-25 -51 -82 -51q-21 0 -41 10q-34 17 -46 53t5 70l334 668q-34 4 -56 30t-22 60v309l-108 -108q-28 -26 -65.5 -26t-65.5 26q-26 28 -26 65.5z" />
<glyph unicode="&#xbd;" d="M175 1157.5q0 37.5 26 65.5l266 266q43 43 100 20q26 -10 42 -34t16 -52v-407l92 182q17 34 53 46t70 -5t46 -53t-5 -70l-332 -665h250q38 0 65 -27.5t27 -65.5v-266q0 -38 -27 -65t-65 -27h-174v-82h174q38 0 65 -27t27 -65t-27 -65t-65 -27h-267q-38 0 -65 27t-27 65 v266q0 38 27 65t65 27h175v82h-175q-34 0 -63 25l-121 -240q-25 -51 -82 -51q-21 0 -41 10q-34 17 -46 53t5 70l334 668q-34 4 -56 30t-22 60v309l-108 -108q-28 -26 -65.5 -26t-65.5 26q-26 28 -26 65.5z" />
<glyph unicode="&#xbe;" d="M174 891q0 38 27 65t65 27h174v82h-174q-38 0 -65 27t-27 65t27 65t65 27h174v82h-174q-38 0 -65 27t-27 65t27 65.5t65 27.5h266q38 0 65.5 -27.5t27.5 -65.5v-407l92 182q17 34 53 46t70 -5t46 -53t-5 -70l-334 -667q33 -4 55.5 -30.5t22.5 -60.5v-174h82v174 q0 38 27 65.5t65 27.5t65 -27.5t27 -65.5v-532q0 -38 -27 -65t-65 -27t-65 27t-27 65v174h-175q-38 0 -65 27t-27 65v141l-92 -182q-25 -51 -82 -51q-21 0 -41 10q-34 17 -46 53t5 70l332 666h-250q-38 0 -65 27t-27 65z" />
<glyph unicode="&#xbf;" d="M175 92.5q0 37.5 26 65.5l239 239v228q0 38 27 65t65 27t65.5 -27t27.5 -65v-267q0 -35 -27 -65l-201 -201l174 -174h228q38 0 65 -27t27 -65t-27 -65t-65 -27h-267q-36 0 -65 26l-266 267q-26 28 -26 65.5zM440 1104v53q0 38 27 65t65 27t65.5 -27t27.5 -65v-53 q0 -38 -27.5 -65t-65.5 -27t-65 27t-27 65z" />
<glyph unicode="&#xc0;" d="M174 92v799q0 35 27 65l266 267q28 26 65.5 26t65.5 -26l266 -267q27 -30 27 -65v-799q0 -38 -27 -65t-65 -27t-65 27t-27 65v440h-349v-440q0 -38 -27 -65t-65 -27t-65 27t-27 65zM175 1689.5q0 37.5 26 65.5q28 26 65.5 26t65.5 -26l266 -266q26 -28 26 -65.5 t-26 -65.5q-27 -27 -66 -27q-38 0 -65 27l-266 266q-26 28 -26 65.5zM358 717h349v135l-175 174l-174 -174v-135z" />
<glyph unicode="&#xc1;" d="M174 92v799q0 35 27 65l266 267q28 26 65.5 26t65.5 -26l266 -267q27 -30 27 -65v-799q0 -38 -27 -65t-65 -27t-65 27t-27 65v440h-349v-440q0 -38 -27 -65t-65 -27t-65 27t-27 65zM358 717h349v135l-175 174l-174 -174v-135zM441 1423.5q0 37.5 26 65.5l266 266 q28 26 65.5 26t65.5 -26q26 -28 26 -65.5t-26 -65.5l-266 -266q-27 -27 -66 -27q-38 0 -65 27q-26 28 -26 65.5z" />
<glyph unicode="&#xc2;" d="M174 92v799q0 35 27 65l266 267q28 26 65.5 26t65.5 -26l266 -267q27 -30 27 -65v-799q0 -38 -27 -65t-65 -27t-65 27t-27 65v440h-349v-440q0 -38 -27 -65t-65 -27t-65 27t-27 65zM175 1423.5q0 37.5 26 65.5l266 266q28 26 65.5 26t65.5 -26l266 -266q26 -28 26 -65.5 t-26 -65.5q-27 -27 -65 -27q-39 0 -66 27l-201 201l-200 -201q-28 -26 -65.5 -26t-65.5 26q-26 28 -26 65.5zM358 717h349v135l-175 174l-174 -174v-135z" />
<glyph unicode="&#xc3;" d="M174 92v799q0 35 27 65l266 267q28 26 65.5 26t65.5 -26l266 -267q27 -30 27 -65v-799q0 -38 -27 -65t-65 -27t-65 27t-27 65v440h-349v-440q0 -38 -27 -65t-65 -27t-65 27t-27 65zM175 1423.5q0 37.5 26 65.5l266 266q28 26 65.5 26t65.5 -26l201 -201l200 201 q28 26 65.5 26t65.5 -26q26 -28 26 -65.5t-26 -65.5l-266 -266q-27 -27 -65 -27q-39 0 -66 27l-201 201l-200 -201q-28 -26 -65.5 -26t-65.5 26q-26 28 -26 65.5zM358 717h349v135l-175 174l-174 -174v-135z" />
<glyph unicode="&#xc4;" d="M174 92v799q0 35 27 65l266 267q28 26 65.5 26t65.5 -26l266 -267q27 -30 27 -65v-799q0 -38 -27 -65t-65 -27t-65 27t-27 65v440h-349v-440q0 -38 -27 -65t-65 -27t-65 27t-27 65zM174 1636v54q0 38 27 65t65 27t65 -27t27 -65v-54q0 -38 -27 -65t-65 -27t-65 27t-27 65 zM358 717h349v135l-175 174l-174 -174v-135zM707 1636v54q0 38 27 65t65 27t65 -27t27 -65v-54q0 -38 -27 -65t-65 -27t-65 27t-27 65z" />
<glyph unicode="&#xc5;" d="M174 92v799q0 35 27 65l200 201l-200 201q-26 28 -26 65.5t26 65.5l266 266q28 26 65.5 26t65.5 -26l266 -266q26 -28 26 -65.5t-26 -65.5l-200 -201l200 -201q27 -30 27 -65v-799q0 -38 -27 -65t-65 -27t-65 27t-27 65v440h-349v-440q0 -38 -27 -65t-65 -27t-65 27 t-27 65zM358 717h349v135l-175 174l-174 -174v-135zM397 1423l135 -135l136 135l-136 136z" />
<glyph unicode="&#xc6;" d="M174 92v799q0 35 27 65l266 267q1 0 2 1t2 1v2q2 0 2 2h2l2 2q2 2 4 2q20 13 43 16h4h4h267q38 0 65 -27t27 -65t-27 -65t-65 -27h-174v-348h174q38 0 65 -27t27 -65t-27 -65.5t-65 -27.5h-174v-348h174q38 0 65 -27t27 -65t-27 -65t-65 -27h-267q-38 0 -65 27t-27 65 v440h-82v-440q0 -38 -27 -65t-65 -27t-65 27t-27 65zM358 717h82v217l-82 -82v-135z" />
<glyph unicode="&#xc7;" d="M174 358v533q0 35 27 65l266 267q29 26 65 26h267q38 0 65 -27t27 -65t-27 -65t-65 -27h-228l-213 -213v-455l213 -213h228q38 0 65 -27t27 -65t-27 -65t-65 -27h-43l108 -109q41 -41 21 -100q-10 -26 -34 -41.5t-52 -15.5h-267q-38 0 -65 27t-27 65t27 65t65 27h43 l-108 109l-266 266q-27 30 -27 65z" />
<glyph unicode="&#xc8;" d="M174 92v1065q0 38 27 65t65 27h533q38 0 65 -27t27 -65t-27 -65t-65 -27h-441v-348h441q38 0 65 -27t27 -65t-27 -65.5t-65 -27.5h-441v-348h441q38 0 65 -27t27 -65t-27 -65t-65 -27h-533q-38 0 -65 27t-27 65zM175 1689.5q0 37.5 26 65.5q28 26 65.5 26t65.5 -26 l266 -266q26 -28 26 -65.5t-26 -65.5q-27 -27 -66 -27q-38 0 -65 27l-266 266q-26 28 -26 65.5z" />
<glyph unicode="&#xc9;" d="M174 92v1065q0 38 27 65t65 27h533q38 0 65 -27t27 -65t-27 -65t-65 -27h-441v-348h441q38 0 65 -27t27 -65t-27 -65.5t-65 -27.5h-441v-348h441q38 0 65 -27t27 -65t-27 -65t-65 -27h-533q-38 0 -65 27t-27 65zM441 1423.5q0 37.5 26 65.5l266 266q28 26 65.5 26 t65.5 -26q26 -28 26 -65.5t-26 -65.5l-266 -266q-27 -27 -66 -27q-38 0 -65 27q-26 28 -26 65.5z" />
<glyph unicode="&#xca;" d="M174 92v1065q0 38 27 65t65 27h533q38 0 65 -27t27 -65t-27 -65t-65 -27h-441v-348h441q38 0 65 -27t27 -65t-27 -65.5t-65 -27.5h-441v-348h441q38 0 65 -27t27 -65t-27 -65t-65 -27h-533q-38 0 -65 27t-27 65zM175 1423.5q0 37.5 26 65.5l266 266q28 26 65.5 26 t65.5 -26l266 -266q26 -28 26 -65.5t-26 -65.5q-27 -27 -65 -27q-39 0 -66 27l-201 201l-200 -201q-28 -26 -65.5 -26t-65.5 26q-26 28 -26 65.5z" />
<glyph unicode="&#xcb;" d="M174 92v1065q0 38 27 65t65 27h533q38 0 65 -27t27 -65t-27 -65t-65 -27h-441v-348h441q38 0 65 -27t27 -65t-27 -65.5t-65 -27.5h-441v-348h441q38 0 65 -27t27 -65t-27 -65t-65 -27h-533q-38 0 -65 27t-27 65zM174 1636v54q0 38 27 65t65 27t65 -27t27 -65v-54 q0 -38 -27 -65t-65 -27t-65 27t-27 65zM707 1636v54q0 38 27 65t65 27t65 -27t27 -65v-54q0 -38 -27 -65t-65 -27t-65 27t-27 65z" />
<glyph unicode="&#xcc;" d="M174 92q0 38 27 65t65 27h174v881h-174q-38 0 -65 27t-27 65t27 65t65 27h533q38 0 65 -27t27 -65t-27 -65t-65 -27h-174v-881h174q38 0 65 -27t27 -65t-27 -65t-65 -27h-533q-38 0 -65 27t-27 65zM175 1689.5q0 37.5 26 65.5q28 26 65.5 26t65.5 -26l266 -266 q26 -28 26 -65.5t-26 -65.5q-27 -27 -66 -27q-38 0 -65 27l-266 266q-26 28 -26 65.5z" />
<glyph unicode="&#xcd;" d="M174 92q0 38 27 65t65 27h174v881h-174q-38 0 -65 27t-27 65t27 65t65 27h533q38 0 65 -27t27 -65t-27 -65t-65 -27h-174v-881h174q38 0 65 -27t27 -65t-27 -65t-65 -27h-533q-38 0 -65 27t-27 65zM441 1423.5q0 37.5 26 65.5l266 266q28 26 65.5 26t65.5 -26 q26 -28 26 -65.5t-26 -65.5l-266 -266q-27 -27 -66 -27q-38 0 -65 27q-26 28 -26 65.5z" />
<glyph unicode="&#xce;" d="M174 92q0 38 27 65t65 27h174v881h-174q-38 0 -65 27t-27 65t27 65t65 27h533q38 0 65 -27t27 -65t-27 -65t-65 -27h-174v-881h174q38 0 65 -27t27 -65t-27 -65t-65 -27h-533q-38 0 -65 27t-27 65zM175 1423.5q0 37.5 26 65.5l266 266q28 26 65.5 26t65.5 -26l266 -266 q26 -28 26 -65.5t-26 -65.5q-27 -27 -65 -27q-39 0 -66 27l-201 201l-200 -201q-28 -26 -65.5 -26t-65.5 26q-26 28 -26 65.5z" />
<glyph unicode="&#xcf;" d="M174 92q0 38 27 65t65 27h174v881h-174q-38 0 -65 27t-27 65t27 65t65 27h533q38 0 65 -27t27 -65t-27 -65t-65 -27h-174v-881h174q38 0 65 -27t27 -65t-27 -65t-65 -27h-533q-38 0 -65 27t-27 65zM174 1636v54q0 38 27 65t65 27t65 -27t27 -65v-54q0 -38 -27 -65 t-65 -27t-65 27t-27 65zM707 1636v54q0 38 27 65t65 27t65 -27t27 -65v-54q0 -38 -27 -65t-65 -27t-65 27t-27 65z" />
<glyph unicode="&#xd0;" d="M-92 625q0 38 27 65t65 27h174v440q0 38 27 65t65 27h266q37 0 66 -26l266 -267q27 -30 27 -65v-533q0 -35 -27 -65l-266 -266q-30 -27 -66 -27h-266q-38 0 -65 27t-27 65v440h-174q-38 0 -65 27.5t-27 65.5zM358 184h136l213 213v455l-213 213h-136v-348h174 q38 0 65.5 -27t27.5 -65t-27.5 -65.5t-65.5 -27.5h-174v-348z" />
<glyph unicode="&#xd1;" d="M174 92v1065q0 32 20 57.5t52 32.5q31 8 60 -6t42 -43l359 -715v674q0 38 27 65t65 27t65 -27t27 -65v-1065q0 -32 -20 -57.5t-52 -32.5q-6 -2 -20 -2q-60 0 -82 51l-359 715v-674q0 -38 -27 -65t-65 -27t-65 27t-27 65zM175 1423.5q0 37.5 26 65.5l266 266 q28 26 65.5 26t65.5 -26l201 -201l200 201q28 26 65.5 26t65.5 -26q26 -28 26 -65.5t-26 -65.5l-266 -266q-27 -27 -65 -27q-39 0 -66 27l-201 201l-200 -201q-28 -26 -65.5 -26t-65.5 26q-26 28 -26 65.5z" />
<glyph unicode="&#xd2;" d="M174 358v533q0 35 27 65l266 267q28 26 65.5 26t65.5 -26l266 -267q27 -30 27 -65v-533q0 -35 -27 -65l-266 -266q-27 -27 -66 -27q-38 0 -65 27l-266 266q-27 30 -27 65zM175 1689.5q0 37.5 26 65.5q28 26 65.5 26t65.5 -26l266 -266q26 -28 26 -65.5t-26 -65.5 q-27 -27 -66 -27q-38 0 -65 27l-266 266q-26 28 -26 65.5zM358 397l174 -174l175 174v455l-175 174l-174 -174v-455z" />
<glyph unicode="&#xd3;" d="M174 358v533q0 35 27 65l266 267q28 26 65.5 26t65.5 -26l266 -267q27 -30 27 -65v-533q0 -35 -27 -65l-266 -266q-27 -27 -66 -27q-38 0 -65 27l-266 266q-27 30 -27 65zM358 397l174 -174l175 174v455l-175 174l-174 -174v-455zM441 1423.5q0 37.5 26 65.5l266 266 q28 26 65.5 26t65.5 -26q26 -28 26 -65.5t-26 -65.5l-266 -266q-27 -27 -66 -27q-38 0 -65 27q-26 28 -26 65.5z" />
<glyph unicode="&#xd4;" d="M174 358v533q0 35 27 65l266 267q28 26 65.5 26t65.5 -26l266 -267q27 -30 27 -65v-533q0 -35 -27 -65l-266 -266q-27 -27 -66 -27q-38 0 -65 27l-266 266q-27 30 -27 65zM175 1423.5q0 37.5 26 65.5l266 266q28 26 65.5 26t65.5 -26l266 -266q26 -28 26 -65.5t-26 -65.5 q-27 -27 -65 -27q-39 0 -66 27l-201 201l-200 -201q-28 -26 -65.5 -26t-65.5 26q-26 28 -26 65.5zM358 397l174 -174l175 174v455l-175 174l-174 -174v-455z" />
<glyph unicode="&#xd5;" d="M174 358v533q0 35 27 65l266 267q28 26 65.5 26t65.5 -26l266 -267q27 -30 27 -65v-533q0 -35 -27 -65l-266 -266q-27 -27 -66 -27q-38 0 -65 27l-266 266q-27 30 -27 65zM175 1423.5q0 37.5 26 65.5l266 266q28 26 65.5 26t65.5 -26l201 -201l200 201q28 26 65.5 26 t65.5 -26q26 -28 26 -65.5t-26 -65.5l-266 -266q-27 -27 -65 -27q-39 0 -66 27l-201 201l-200 -201q-28 -26 -65.5 -26t-65.5 26q-26 28 -26 65.5zM358 397l174 -174l175 174v455l-175 174l-174 -174v-455z" />
<glyph unicode="&#xd6;" d="M174 358v533q0 35 27 65l266 267q28 26 65.5 26t65.5 -26l266 -267q27 -30 27 -65v-533q0 -35 -27 -65l-266 -266q-27 -27 -66 -27q-38 0 -65 27l-266 266q-27 30 -27 65zM174 1636v54q0 38 27 65t65 27t65 -27t27 -65v-54q0 -38 -27 -65t-65 -27t-65 27t-27 65zM358 397 l174 -174l175 174v455l-175 174l-174 -174v-455zM707 1636v54q0 38 27 65t65 27t65 -27t27 -65v-54q0 -38 -27 -65t-65 -27t-65 27t-27 65z" />
<glyph unicode="&#xd7;" d="M175 358.5q0 37.5 26 65.5l200 201l-200 200q-26 28 -26 65.5t26 65.5q28 26 65.5 26t65.5 -26l200 -200l201 200q28 26 65.5 26t65.5 -26q26 -28 26 -65.5t-26 -65.5l-200 -200l200 -201q26 -28 26 -65.5t-26 -65.5q-27 -27 -65 -27q-39 0 -66 27l-201 201l-200 -201 q-27 -27 -66 -27q-38 0 -65 27q-26 28 -26 65.5z" />
<glyph unicode="&#xd8;" d="M174 358v533q0 35 27 65l266 267q28 26 65.5 26t65.5 -26l86 -88l33 63q17 34 53 46t70 -5t46 -53t-5 -70l-60 -119l43 -41q27 -30 27 -65v-533q0 -35 -27 -65l-266 -266q-27 -27 -66 -27q-38 0 -65 27l-86 88l-33 -64q-25 -51 -82 -51q-21 0 -41 10q-34 17 -46 53t5 70 l60 119l-43 41q-27 30 -27 65zM358 483l240 478l-66 65l-174 -174v-369zM467 289l65 -66l175 174v369z" />
<glyph unicode="&#xd9;" d="M174 92v1065q0 38 27 65t65 27t65 -27t27 -65v-973h349v973q0 38 27 65t65 27t65 -27t27 -65v-1065q0 -38 -27 -65t-65 -27h-533q-38 0 -65 27t-27 65zM175 1689.5q0 37.5 26 65.5q28 26 65.5 26t65.5 -26l266 -266q26 -28 26 -65.5t-26 -65.5q-27 -27 -66 -27 q-38 0 -65 27l-266 266q-26 28 -26 65.5z" />
<glyph unicode="&#xda;" d="M174 92v1065q0 38 27 65t65 27t65 -27t27 -65v-973h349v973q0 38 27 65t65 27t65 -27t27 -65v-1065q0 -38 -27 -65t-65 -27h-533q-38 0 -65 27t-27 65zM441 1423.5q0 37.5 26 65.5l266 266q28 26 65.5 26t65.5 -26q26 -28 26 -65.5t-26 -65.5l-266 -266q-27 -27 -66 -27 q-38 0 -65 27q-26 28 -26 65.5z" />
<glyph unicode="&#xdb;" d="M174 92v1065q0 38 27 65t65 27t65 -27t27 -65v-973h349v973q0 38 27 65t65 27t65 -27t27 -65v-1065q0 -38 -27 -65t-65 -27h-533q-38 0 -65 27t-27 65zM175 1423.5q0 37.5 26 65.5l266 266q28 26 65.5 26t65.5 -26l266 -266q26 -28 26 -65.5t-26 -65.5q-27 -27 -65 -27 q-39 0 -66 27l-201 201l-200 -201q-28 -26 -65.5 -26t-65.5 26q-26 28 -26 65.5z" />
<glyph unicode="&#xdc;" d="M174 92v1065q0 38 27 65t65 27t65 -27t27 -65v-973h349v973q0 38 27 65t65 27t65 -27t27 -65v-1065q0 -38 -27 -65t-65 -27h-533q-38 0 -65 27t-27 65zM174 1636v54q0 38 27 65t65 27t65 -27t27 -65v-54q0 -38 -27 -65t-65 -27t-65 27t-27 65zM707 1636v54q0 38 27 65 t65 27t65 -27t27 -65v-54q0 -38 -27 -65t-65 -27t-65 27t-27 65z" />
<glyph unicode="&#xdd;" d="M179 1186q12 36 46 53t70 5t53 -46l184 -367l185 367q17 34 53 46t70 -5t46 -53t-5 -70l-256 -514v-510q0 -38 -27.5 -65t-65.5 -27t-65 27t-27 65v510l-256 514q-17 34 -5 70zM441 1423.5q0 37.5 26 65.5l266 266q28 26 65.5 26t65.5 -26q26 -28 26 -65.5t-26 -65.5 l-266 -266q-27 -27 -66 -27q-38 0 -65 27q-26 28 -26 65.5z" />
<glyph unicode="&#xde;" d="M174 92v1065q0 38 27 65t65 27t65 -27t27 -65v-174h174q36 0 66 -27l266 -266q26 -28 26 -65.5t-26 -65.5l-266 -266q-30 -27 -66 -27h-174v-174q0 -38 -27 -65t-65 -27t-65 27t-27 65zM358 451h136l174 174l-174 174h-136v-348z" />
<glyph unicode="&#xdf;" d="M174 92v1065q0 36 27 66l266 266q28 26 65.5 26t65.5 -26l266 -266q26 -28 26 -65.5t-26 -65.5l-200 -201l200 -201q27 -30 27 -65v-533q0 -38 -27 -65t-65 -27h-267q-38 0 -65 27t-27 65t27 65t65 27h175v402l-240 239q-26 28 -26 65.5t26 65.5l201 201l-136 135 l-174 -174v-1026q0 -38 -27 -65t-65 -27t-65 27t-27 65z" />
<glyph unicode="&#xe0;" d="M174 92v266q0 26 14 49t37 33l418 209l-149 150h-228q-38 0 -65 27t-27 65t27 65t65 27h266q36 0 66 -27l264 -264q14 -14 19 -24v-2q10 -18 10 -43v-531q0 -38 -27 -65t-65 -27h-533q-38 0 -65 27t-27 65zM175 1423.5q0 37.5 26 65.5q28 26 65.5 26t65.5 -26l266 -266 q26 -28 26 -65.5t-26 -65.5q-27 -27 -66 -27q-38 0 -65 27l-266 266q-26 28 -26 65.5zM358 184h349v291l-349 -174v-117z" />
<glyph unicode="&#xe1;" d="M174 92v266q0 26 14 49t37 33l418 209l-149 150h-228q-38 0 -65 27t-27 65t27 65t65 27h266q36 0 66 -27l264 -264q14 -14 19 -24v-2q10 -18 10 -43v-531q0 -38 -27 -65t-65 -27h-533q-38 0 -65 27t-27 65zM358 184h349v291l-349 -174v-117zM441 1157.5q0 37.5 26 65.5 l266 266q28 26 65.5 26t65.5 -26q26 -28 26 -65.5t-26 -65.5l-266 -266q-27 -27 -66 -27q-38 0 -65 27q-26 28 -26 65.5z" />
<glyph unicode="&#xe2;" d="M174 92v266q0 26 14 49t37 33l418 209l-149 150h-228q-38 0 -65 27t-27 65t27 65t65 27h266q36 0 66 -27l264 -264q14 -14 19 -24v-2q10 -18 10 -43v-531q0 -38 -27 -65t-65 -27h-533q-38 0 -65 27t-27 65zM175 1157.5q0 37.5 26 65.5l266 266q28 26 65.5 26t65.5 -26 l266 -266q26 -28 26 -65.5t-26 -65.5q-27 -27 -65 -27q-39 0 -66 27l-201 200l-200 -200q-28 -26 -65.5 -26t-65.5 26q-26 28 -26 65.5zM358 184h349v291l-349 -174v-117z" />
<glyph unicode="&#xe3;" d="M174 92v266q0 26 14 49t37 33l418 209l-149 150h-228q-38 0 -65 27t-27 65t27 65t65 27h266q36 0 66 -27l264 -264q14 -14 19 -24v-2q10 -18 10 -43v-531q0 -38 -27 -65t-65 -27h-533q-38 0 -65 27t-27 65zM175 1157.5q0 37.5 26 65.5l266 266q28 26 65.5 26t65.5 -26 l201 -201l200 201q28 26 65.5 26t65.5 -26q26 -28 26 -65.5t-26 -65.5l-266 -266q-27 -27 -65 -27q-39 0 -66 27l-201 200l-200 -200q-28 -26 -65.5 -26t-65.5 26q-26 28 -26 65.5zM358 184h349v291l-349 -174v-117z" />
<glyph unicode="&#xe4;" d="M174 92v266q0 26 14 49t37 33l418 209l-149 150h-228q-38 0 -65 27t-27 65t27 65t65 27h266q36 0 66 -27l264 -264q14 -14 19 -24v-2q10 -18 10 -43v-531q0 -38 -27 -65t-65 -27h-533q-38 0 -65 27t-27 65zM174 1370v53q0 38 27 65.5t65 27.5t65 -27.5t27 -65.5v-53 q0 -38 -27 -65t-65 -27t-65 27t-27 65zM358 184h349v291l-349 -174v-117zM707 1370v53q0 38 27 65.5t65 27.5t65 -27.5t27 -65.5v-53q0 -38 -27 -65t-65 -27t-65 27t-27 65z" />
<glyph unicode="&#xe5;" d="M174 92v266q0 26 14 49t37 33l418 209l-149 150h-228q-38 0 -65 27t-27 65t27 65t65 27h43l-108 109q-26 28 -26 65.5t26 65.5l266 266q28 26 65.5 26t65.5 -26l266 -266q26 -28 26 -65.5t-26 -65.5l-200 -201l198 -199q14 -14 19 -24v-2q10 -18 10 -43v-531 q0 -38 -27 -65t-65 -27h-533q-38 0 -65 27t-27 65zM358 184h349v291l-349 -174v-117zM397 1157l135 -135l136 135l-136 135z" />
<glyph unicode="&#xe6;" d="M174 92v266q0 26 14 49t37 33l215 109v250h-174q-38 0 -65 27t-27 65t27 65t65 27h533q38 0 65 -27t27 -65v-266q0 -26 -14 -49t-37 -33l-215 -109v-250h174q38 0 65 -27t27 -65t-27 -65t-65 -27h-267h-266q-38 0 -65 27t-27 65zM358 184h82v158l-82 -41v-117zM625 641 l82 41v117h-82v-158z" />
<glyph unicode="&#xe7;" d="M174 360v267q0 36 27 63l266 266q29 29 65 29h267q38 0 65 -27.5t27 -64.5q0 -38 -27 -65t-65 -27h-228l-213 -213v-191l213 -211h228q38 0 65 -27.5t27 -64.5q0 -38 -27 -65t-65 -27h-43l108 -111q41 -41 21 -100q-10 -26 -34 -40.5t-52 -14.5h-267q-38 0 -65 27t-27 65 q0 37 27 64.5t65 27.5h43l-108 109l-266 266q-27 27 -27 65z" />
<glyph unicode="&#xe8;" d="M174 360v531q0 38 27 65t65 27h533q38 0 65 -27t27 -65v-266q0 -26 -14 -49t-37 -33l-418 -209l149 -150h228q38 0 65 -27t27 -65t-27 -65t-65 -27h-267q-35 0 -65 27l-264 264q-14 14 -19 24v2q-10 17 -10 43zM175 1423.5q0 37.5 26 65.5q28 26 65.5 26t65.5 -26 l266 -266q26 -28 26 -65.5t-26 -65.5q-27 -27 -66 -27q-38 0 -65 27l-266 266q-26 28 -26 65.5zM358 508l349 174v117h-349v-291z" />
<glyph unicode="&#xe9;" d="M174 360v531q0 38 27 65t65 27h533q38 0 65 -27t27 -65v-266q0 -26 -14 -49t-37 -33l-418 -209l149 -150h228q38 0 65 -27t27 -65t-27 -65t-65 -27h-267q-35 0 -65 27l-264 264q-14 14 -19 24v2q-10 17 -10 43zM358 508l349 174v117h-349v-291zM441 1157.5 q0 37.5 26 65.5l266 266q28 26 65.5 26t65.5 -26q26 -28 26 -65.5t-26 -65.5l-266 -266q-27 -27 -66 -27q-38 0 -65 27q-26 28 -26 65.5z" />
<glyph unicode="&#xea;" d="M174 360v531q0 38 27 65t65 27h533q38 0 65 -27t27 -65v-266q0 -26 -14 -49t-37 -33l-418 -209l149 -150h228q38 0 65 -27t27 -65t-27 -65t-65 -27h-267q-35 0 -65 27l-264 264q-14 14 -19 24v2q-10 17 -10 43zM175 1157.5q0 37.5 26 65.5l266 266q28 26 65.5 26 t65.5 -26l266 -266q26 -28 26 -65.5t-26 -65.5q-27 -27 -65 -27q-39 0 -66 27l-201 200l-200 -200q-28 -26 -65.5 -26t-65.5 26q-26 28 -26 65.5zM358 508l349 174v117h-349v-291z" />
<glyph unicode="&#xeb;" d="M174 360v531q0 38 27 65t65 27h533q38 0 65 -27t27 -65v-266q0 -26 -14 -49t-37 -33l-418 -209l149 -150h228q38 0 65 -27t27 -65t-27 -65t-65 -27h-267q-35 0 -65 27l-264 264q-14 14 -19 24v2q-10 17 -10 43zM174 1370v53q0 38 27 65.5t65 27.5t65 -27.5t27 -65.5v-53 q0 -38 -27 -65t-65 -27t-65 27t-27 65zM358 508l349 174v117h-349v-291zM707 1370v53q0 38 27 65.5t65 27.5t65 -27.5t27 -65.5v-53q0 -38 -27 -65t-65 -27t-65 27t-27 65z" />
<glyph unicode="&#xec;" d="M174 92q0 38 27 65t65 27h174v615h-174q-38 0 -65 27t-27 65t27 65t65 27h266q38 0 65.5 -27t27.5 -65v-707h174q38 0 65 -27t27 -65t-27 -65t-65 -27h-533q-38 0 -65 27t-27 65zM175 1423.5q0 37.5 26 65.5q28 26 65.5 26t65.5 -26l266 -266q26 -28 26 -65.5t-26 -65.5 q-27 -27 -66 -27q-38 0 -65 27l-266 266q-26 28 -26 65.5z" />
<glyph unicode="&#xed;" d="M174 92q0 38 27 65t65 27h174v615h-174q-38 0 -65 27t-27 65t27 65t65 27h266q38 0 65.5 -27t27.5 -65v-707h174q38 0 65 -27t27 -65t-27 -65t-65 -27h-533q-38 0 -65 27t-27 65zM441 1157.5q0 37.5 26 65.5l266 266q28 26 65.5 26t65.5 -26q26 -28 26 -65.5t-26 -65.5 l-266 -266q-27 -27 -66 -27q-38 0 -65 27q-26 28 -26 65.5z" />
<glyph unicode="&#xee;" d="M174 92q0 38 27 65t65 27h174v615h-174q-38 0 -65 27t-27 65t27 65t65 27h266q38 0 65.5 -27t27.5 -65v-707h174q38 0 65 -27t27 -65t-27 -65t-65 -27h-533q-38 0 -65 27t-27 65zM175 1157.5q0 37.5 26 65.5l266 266q28 26 65.5 26t65.5 -26l266 -266q26 -28 26 -65.5 t-26 -65.5q-27 -27 -65 -27q-39 0 -66 27l-201 200l-200 -200q-28 -26 -65.5 -26t-65.5 26q-26 28 -26 65.5z" />
<glyph unicode="&#xef;" d="M174 92q0 38 27 65t65 27h174v615h-174q-38 0 -65 27t-27 65t27 65t65 27h266q38 0 65.5 -27t27.5 -65v-707h174q38 0 65 -27t27 -65t-27 -65t-65 -27h-533q-38 0 -65 27t-27 65zM174 1370v53q0 38 27 65.5t65 27.5t65 -27.5t27 -65.5v-53q0 -38 -27 -65t-65 -27t-65 27 t-27 65zM707 1370v53q0 38 27 65.5t65 27.5t65 -27.5t27 -65.5v-53q0 -38 -27 -65t-65 -27t-65 27t-27 65z" />
<glyph unicode="&#xf0;" d="M174 358v267q0 35 27 65l266 266q28 26 65.5 26t65.5 -26l109 -108v270l-41 41l-68 -67q-27 -27 -66 -27q-38 0 -65 27q-26 28 -26 65.5t26 65.5l68 67l-68 68q-26 28 -26 65.5t26 65.5q28 26 65.5 26t65.5 -26l68 -68l67 68q28 26 65.5 26t65.5 -26q26 -28 26 -65.5 t-26 -65.5l-67 -68l67 -67q27 -30 27 -66v-532v-267q0 -35 -27 -65l-266 -266q-27 -27 -66 -27q-38 0 -65 27l-266 266q-27 30 -27 65zM358 397l174 -174l175 174v189l-175 174l-174 -174v-189z" />
<glyph unicode="&#xf1;" d="M174 92v799q0 38 27 65t65 27h533q38 0 65 -27t27 -65v-799q0 -38 -27 -65t-65 -27t-65 27t-27 65v707h-349v-707q0 -38 -27 -65t-65 -27t-65 27t-27 65zM175 1157.5q0 37.5 26 65.5l266 266q28 26 65.5 26t65.5 -26l201 -201l200 201q28 26 65.5 26t65.5 -26 q26 -28 26 -65.5t-26 -65.5l-266 -266q-27 -27 -65 -27q-39 0 -66 27l-201 200l-200 -200q-28 -26 -65.5 -26t-65.5 26q-26 28 -26 65.5z" />
<glyph unicode="&#xf2;" d="M174 358v267q0 35 27 65l266 266q28 26 65.5 26t65.5 -26l266 -266q27 -30 27 -65v-267q0 -35 -27 -65l-266 -266q-27 -27 -66 -27q-38 0 -65 27l-266 266q-27 30 -27 65zM175 1423.5q0 37.5 26 65.5q28 26 65.5 26t65.5 -26l266 -266q26 -28 26 -65.5t-26 -65.5 q-27 -27 -66 -27q-38 0 -65 27l-266 266q-26 28 -26 65.5zM358 397l174 -174l175 174v189l-175 174l-174 -174v-189z" />
<glyph unicode="&#xf3;" d="M174 358v267q0 35 27 65l266 266q28 26 65.5 26t65.5 -26l266 -266q27 -30 27 -65v-267q0 -35 -27 -65l-266 -266q-27 -27 -66 -27q-38 0 -65 27l-266 266q-27 30 -27 65zM358 397l174 -174l175 174v189l-175 174l-174 -174v-189zM441 1157.5q0 37.5 26 65.5l266 266 q28 26 65.5 26t65.5 -26q26 -28 26 -65.5t-26 -65.5l-266 -266q-27 -27 -66 -27q-38 0 -65 27q-26 28 -26 65.5z" />
<glyph unicode="&#xf4;" d="M174 358v267q0 35 27 65l266 266q28 26 65.5 26t65.5 -26l266 -266q27 -30 27 -65v-267q0 -35 -27 -65l-266 -266q-27 -27 -66 -27q-38 0 -65 27l-266 266q-27 30 -27 65zM175 1157.5q0 37.5 26 65.5l266 266q28 26 65.5 26t65.5 -26l266 -266q26 -28 26 -65.5t-26 -65.5 q-27 -27 -65 -27q-39 0 -66 27l-201 200l-200 -200q-28 -26 -65.5 -26t-65.5 26q-26 28 -26 65.5zM358 397l174 -174l175 174v189l-175 174l-174 -174v-189z" />
<glyph unicode="&#xf5;" d="M174 358v267q0 35 27 65l266 266q28 26 65.5 26t65.5 -26l266 -266q27 -30 27 -65v-267q0 -35 -27 -65l-266 -266q-27 -27 -66 -27q-38 0 -65 27l-266 266q-27 30 -27 65zM175 1157.5q0 37.5 26 65.5l266 266q28 26 65.5 26t65.5 -26l201 -201l200 201q28 26 65.5 26 t65.5 -26q26 -28 26 -65.5t-26 -65.5l-266 -266q-27 -27 -65 -27q-39 0 -66 27l-201 200l-200 -200q-28 -26 -65.5 -26t-65.5 26q-26 28 -26 65.5zM358 397l174 -174l175 174v189l-175 174l-174 -174v-189z" />
<glyph unicode="&#xf6;" d="M174 358v267q0 35 27 65l266 266q28 26 65.5 26t65.5 -26l266 -266q27 -30 27 -65v-267q0 -35 -27 -65l-266 -266q-27 -27 -66 -27q-38 0 -65 27l-266 266q-27 30 -27 65zM174 1370v53q0 38 27 65.5t65 27.5t65 -27.5t27 -65.5v-53q0 -38 -27 -65t-65 -27t-65 27t-27 65z M358 397l174 -174l175 174v189l-175 174l-174 -174v-189zM707 1370v53q0 38 27 65.5t65 27.5t65 -27.5t27 -65.5v-53q0 -38 -27 -65t-65 -27t-65 27t-27 65z" />
<glyph unicode="&#xf7;" d="M174 625q0 38 27 65t65 27h533q38 0 65 -27t27 -65t-27 -65.5t-65 -27.5h-533q-38 0 -65 27.5t-27 65.5zM440 305v53q0 38 27 65.5t65 27.5t65.5 -27.5t27.5 -65.5v-53q0 -38 -27.5 -65t-65.5 -27t-65 27t-27 65zM440 891v53q0 38 27 65t65 27t65.5 -27t27.5 -65v-53 q0 -38 -27.5 -65t-65.5 -27t-65 27t-27 65z" />
<glyph unicode="&#xf8;" d="M174 358v267q0 35 27 65l266 266q28 26 65.5 26t65.5 -26l80 -79l45 65q20 32 57.5 39.5t69.5 -14.5q32 -20 39 -57.5t-15 -69.5l-63 -97l53 -53q27 -30 27 -65v-267q0 -35 -27 -65l-266 -266q-27 -27 -66 -27q-38 0 -65 27l-80 79l-45 -65q-24 -41 -76 -41q-30 0 -51 16 q-32 20 -39.5 57.5t14.5 69.5l64 97l-53 53q-27 30 -27 65zM358 397l215 322l-41 41l-174 -174v-189zM492 264l40 -41l175 174v189z" />
<glyph unicode="&#xf9;" d="M174 92v799q0 38 27 65t65 27t65 -27t27 -65v-707h349v707q0 38 27 65t65 27t65 -27t27 -65v-799q0 -38 -27 -65t-65 -27h-533q-38 0 -65 27t-27 65zM175 1423.5q0 37.5 26 65.5q28 26 65.5 26t65.5 -26l266 -266q26 -28 26 -65.5t-26 -65.5q-27 -27 -66 -27 q-38 0 -65 27l-266 266q-26 28 -26 65.5z" />
<glyph unicode="&#xfa;" d="M174 92v799q0 38 27 65t65 27t65 -27t27 -65v-707h349v707q0 38 27 65t65 27t65 -27t27 -65v-799q0 -38 -27 -65t-65 -27h-533q-38 0 -65 27t-27 65zM441 1157.5q0 37.5 26 65.5l266 266q28 26 65.5 26t65.5 -26q26 -28 26 -65.5t-26 -65.5l-266 -266q-27 -27 -66 -27 q-38 0 -65 27q-26 28 -26 65.5z" />
<glyph unicode="&#xfb;" d="M174 92v799q0 38 27 65t65 27t65 -27t27 -65v-707h349v707q0 38 27 65t65 27t65 -27t27 -65v-799q0 -38 -27 -65t-65 -27h-533q-38 0 -65 27t-27 65zM175 1157.5q0 37.5 26 65.5l266 266q28 26 65.5 26t65.5 -26l266 -266q26 -28 26 -65.5t-26 -65.5q-27 -27 -65 -27 q-39 0 -66 27l-201 200l-200 -200q-28 -26 -65.5 -26t-65.5 26q-26 28 -26 65.5z" />
<glyph unicode="&#xfc;" d="M174 92v799q0 38 27 65t65 27t65 -27t27 -65v-707h349v707q0 38 27 65t65 27t65 -27t27 -65v-799q0 -38 -27 -65t-65 -27h-533q-38 0 -65 27t-27 65zM174 1370v53q0 38 27 65.5t65 27.5t65 -27.5t27 -65.5v-53q0 -38 -27 -65t-65 -27t-65 27t-27 65zM707 1370v53 q0 38 27 65.5t65 27.5t65 -27.5t27 -65.5v-53q0 -38 -27 -65t-65 -27t-65 27t-27 65z" />
<glyph unicode="&#xfd;" d="M178 862q-12 35 5.5 70t54.5 47q35 12 69.5 -5t46.5 -54l178 -537l179 537q12 37 46.5 54t69.5 5q37 -12 54.5 -47t5.5 -70l-266 -799q-1 -2 -3 -2v-2q0 -2 -2 -4q0 -2 -2 -4l-266 -532q-25 -51 -82 -51q-21 0 -41 10q-34 17 -46 53t5 70l248 497zM441 1157.5 q0 37.5 26 65.5l266 266q28 26 65.5 26t65.5 -26q26 -28 26 -65.5t-26 -65.5l-266 -266q-27 -27 -66 -27q-38 0 -65 27q-26 28 -26 65.5z" />
<glyph unicode="&#xfe;" d="M174 -440v1863q0 38 27 65.5t65 27.5t65 -27.5t27 -65.5v-440h174q36 0 66 -27l266 -266q27 -30 27 -65v-267q0 -35 -27 -65l-266 -266q-30 -27 -66 -27h-174v-440q0 -38 -27 -65t-65 -27t-65 27t-27 65zM358 184h136l213 213v189l-213 213h-136v-615z" />
<glyph unicode="&#xff;" d="M174 1370v53q0 38 27 65.5t65 27.5t65 -27.5t27 -65.5v-53q0 -38 -27 -65t-65 -27t-65 27t-27 65zM178 862q-12 35 5.5 70t54.5 47q35 12 69.5 -5t46.5 -54l178 -537l179 537q12 37 46.5 54t69.5 5q37 -12 54.5 -47t5.5 -70l-266 -799q-1 -2 -3 -2v-2q0 -2 -2 -4 q0 -2 -2 -4l-266 -532q-25 -51 -82 -51q-21 0 -41 10q-34 17 -46 53t5 70l248 497zM707 1370v53q0 38 27 65.5t65 27.5t65 -27.5t27 -65.5v-53q0 -38 -27 -65t-65 -27t-65 27t-27 65z" />
<glyph unicode="&#x102;" d="M174 92v799q0 35 27 65l266 267q28 26 65.5 26t65.5 -26l266 -267q27 -30 27 -65v-799q0 -38 -27 -65t-65 -27t-65 27t-27 65v440h-349v-440q0 -38 -27 -65t-65 -27t-65 27t-27 65zM174 1423v267q0 38 27 65t65 27t65 -27t27 -65v-174h349v174q0 38 27 65t65 27t65 -27 t27 -65v-267q0 -38 -27 -65t-65 -27h-533q-38 0 -65 27t-27 65zM358 717h349v135l-175 174l-174 -174v-135z" />
<glyph unicode="&#x103;" d="M174 92v266q0 26 14 49t37 33l418 209l-149 150h-228q-38 0 -65 27t-27 65t27 65t65 27h266q36 0 66 -27l264 -264q14 -14 19 -24v-2q10 -18 10 -43v-531q0 -38 -27 -65t-65 -27h-533q-38 0 -65 27t-27 65zM174 1157v266q0 38 27 65.5t65 27.5t65 -27.5t27 -65.5v-174 h349v174q0 38 27 65.5t65 27.5t65 -27.5t27 -65.5v-266q0 -38 -27 -65t-65 -27h-533q-38 0 -65 27t-27 65zM358 184h349v291l-349 -174v-117z" />
<glyph unicode="&#x104;" d="M174 92v799q0 35 27 65l266 267q28 26 65.5 26t65.5 -26l266 -267q27 -30 27 -65v-799q0 -35 -27 -65l-108 -109h43q38 0 65 -27t27 -65t-27 -65t-65 -27h-267q-28 0 -52 15.5t-34 41.5q-23 56 21 100l240 240v401h-349v-440q0 -38 -27 -65t-65 -27t-65 27t-27 65z M358 717h349v135l-175 174l-174 -174v-135z" />
<glyph unicode="&#x105;" d="M174 94v266q0 56 51 82l418 209l-149 150h-228q-38 0 -65 27t-27 65q0 37 27 64.5t65 27.5h266q37 0 66 -29l266 -266l2 -2l4 -4l2 -2v-2l2 -2q1 -2 3 -2v-2l2 -2v-2l2 -2v-2l2 -2v-2l2 -3v-2v-2l2 -2v-2q0 -2 2 -2v-2q2 -6 2 -20v-533v-6v-4q-3 -20 -17 -41q0 -4 -2 -4 q0 -1 -1 -2t-1 -2l-2 -2l-2 -2l-2 -2l-108 -109h43q38 0 65 -27.5t27 -64.5q0 -38 -27 -65t-65 -27h-267q-28 0 -52 14.5t-34 40.5q-23 56 21 100l108 111h-309q-38 0 -65 27t-27 65zM358 186h349v291l-349 -174v-117z" />
<glyph unicode="&#x106;" d="M174 358v533q0 35 27 65l266 267q29 26 65 26h267q38 0 65 -27t27 -65t-27 -65t-65 -27h-228l-213 -213v-455l213 -213h228q38 0 65 -27t27 -65t-27 -65t-65 -27h-267q-35 0 -65 27l-266 266q-27 30 -27 65zM441 1423.5q0 37.5 26 65.5l266 266q28 26 65.5 26t65.5 -26 q26 -28 26 -65.5t-26 -65.5l-266 -266q-27 -27 -66 -27q-38 0 -65 27q-26 28 -26 65.5z" />
<glyph unicode="&#x107;" d="M174 358v267q0 35 27 65l266 266q30 27 65 27h267q38 0 65 -27t27 -65t-27 -65t-65 -27h-228l-213 -213v-189l213 -213h228q38 0 65 -27t27 -65t-27 -65t-65 -27h-267q-35 0 -65 27l-266 266q-27 30 -27 65zM441 1157.5q0 37.5 26 65.5l266 266q28 26 65.5 26t65.5 -26 q26 -28 26 -65.5t-26 -65.5l-266 -266q-27 -27 -66 -27q-38 0 -65 27q-26 28 -26 65.5z" />
<glyph unicode="&#x10c;" d="M174 358v533q0 35 27 65l266 267q29 26 65 26h267q38 0 65 -27t27 -65t-27 -65t-65 -27h-228l-213 -213v-455l213 -213h228q38 0 65 -27t27 -65t-27 -65t-65 -27h-267q-35 0 -65 27l-266 266q-27 30 -27 65zM175 1689.5q0 37.5 26 65.5q28 26 65.5 26t65.5 -26l200 -201 l201 201q28 26 65.5 26t65.5 -26q26 -28 26 -65.5t-26 -65.5l-266 -266q-27 -27 -66 -27q-38 0 -65 27l-266 266q-26 28 -26 65.5z" />
<glyph unicode="&#x10d;" d="M174 358v267q0 35 27 65l266 266q30 27 65 27h267q38 0 65 -27t27 -65t-27 -65t-65 -27h-228l-213 -213v-189l213 -213h228q38 0 65 -27t27 -65t-27 -65t-65 -27h-267q-35 0 -65 27l-266 266q-27 30 -27 65zM175 1423.5q0 37.5 26 65.5q28 26 65.5 26t65.5 -26l200 -201 l201 201q28 26 65.5 26t65.5 -26q26 -28 26 -65.5t-26 -65.5l-266 -266q-27 -27 -66 -27q-38 0 -65 27l-266 266q-26 28 -26 65.5z" />
<glyph unicode="&#x10e;" d="M174 92v1065q0 38 27 65t65 27h266q37 0 66 -26l266 -267q27 -30 27 -65v-533q0 -35 -27 -65l-266 -266q-30 -27 -66 -27h-266q-38 0 -65 27t-27 65zM175 1689.5q0 37.5 26 65.5q28 26 65.5 26t65.5 -26l200 -201l201 201q28 26 65.5 26t65.5 -26q26 -28 26 -65.5 t-26 -65.5l-266 -266q-27 -27 -66 -27q-38 0 -65 27l-266 266q-26 28 -26 65.5zM358 184h136l213 213v455l-213 213h-136v-881z" />
<glyph unicode="&#x10f;" d="M174 358v267q0 35 27 65l266 266q30 27 65 27h175v440q0 38 27 65.5t65 27.5t65 -27.5t27 -65.5v-43l108 109q28 26 65.5 26t65.5 -26q26 -28 26 -65.5t-26 -65.5l-239 -240v-1026q0 -38 -27 -65t-65 -27h-267q-35 0 -65 27l-266 266q-27 30 -27 65zM358 397l213 -213 h136v615h-136l-213 -213v-189z" />
<glyph unicode="&#x110;" d="M-92 625q0 38 27 65t65 27h174v440q0 38 27 65t65 27h266q37 0 66 -26l266 -267q27 -30 27 -65v-533q0 -35 -27 -65l-266 -266q-30 -27 -66 -27h-266q-38 0 -65 27t-27 65v440h-174q-38 0 -65 27.5t-27 65.5zM358 184h136l213 213v455l-213 213h-136v-348h174 q38 0 65.5 -27t27.5 -65t-27.5 -65.5t-65.5 -27.5h-174v-348z" />
<glyph unicode="&#x111;" d="M174 358v267q0 35 27 65l266 266q30 27 65 27h175v82h-175q-38 0 -65 27t-27 65t27 65t65 27h175v174q0 38 27 65.5t65 27.5t65 -27.5t27 -65.5v-174h174q38 0 65 -27t27 -65t-27 -65t-65 -27h-174v-973q0 -38 -27 -65t-65 -27h-267q-35 0 -65 27l-266 266q-27 30 -27 65 zM358 397l213 -213h136v615h-136l-213 -213v-189z" />
<glyph unicode="&#x118;" d="M174 92v1065q0 38 27 65t65 27h533q38 0 65 -27t27 -65t-27 -65t-65 -27h-441v-348h441q38 0 65 -27t27 -65t-27 -65.5t-65 -27.5h-441v-348h441q28 0 52 -15.5t34 -41.5q20 -59 -21 -100l-108 -109h43q38 0 65 -27t27 -65t-27 -65t-65 -27h-267q-28 0 -52 15.5t-34 41.5 q-23 56 21 100l108 109h-309q-38 0 -65 27t-27 65z" />
<glyph unicode="&#x119;" d="M174 360v533q0 37 27 64.5t65 27.5h533q38 0 65 -27.5t27 -64.5v-266q0 -58 -51 -84l-418 -209l149 -148h228q28 0 52 -15.5t34 -41.5q20 -59 -21 -100l-108 -109h43q38 0 65 -27.5t27 -64.5q0 -38 -27 -65t-65 -27h-267q-28 0 -52 14.5t-34 40.5q-23 56 21 100l108 111 h-43q-38 0 -65 27l-264 264q-13 10 -19 24v2q-10 15 -10 41zM358 508l349 174v119h-349v-293z" />
<glyph unicode="&#x11a;" d="M174 92v1065q0 38 27 65t65 27h533q38 0 65 -27t27 -65t-27 -65t-65 -27h-441v-348h441q38 0 65 -27t27 -65t-27 -65.5t-65 -27.5h-441v-348h441q38 0 65 -27t27 -65t-27 -65t-65 -27h-533q-38 0 -65 27t-27 65zM175 1689.5q0 37.5 26 65.5q28 26 65.5 26t65.5 -26 l200 -201l201 201q28 26 65.5 26t65.5 -26q26 -28 26 -65.5t-26 -65.5l-266 -266q-27 -27 -66 -27q-38 0 -65 27l-266 266q-26 28 -26 65.5z" />
<glyph unicode="&#x11b;" d="M174 360v531q0 38 27 65t65 27h533q38 0 65 -27t27 -65v-266q0 -26 -14 -49t-37 -33l-418 -209l149 -150h228q38 0 65 -27t27 -65t-27 -65t-65 -27h-267q-35 0 -65 27l-264 264q-14 14 -19 24v2q-10 17 -10 43zM175 1423.5q0 37.5 26 65.5q28 26 65.5 26t65.5 -26 l200 -201l201 201q28 26 65.5 26t65.5 -26q26 -28 26 -65.5t-26 -65.5l-266 -266q-27 -27 -66 -27q-38 0 -65 27l-266 266q-26 28 -26 65.5zM358 508l349 174v117h-349v-291z" />
<glyph unicode="&#x131;" d="M174 92q0 38 27 65t65 27h174v615h-174q-38 0 -65 27t-27 65t27 65t65 27h266q38 0 65.5 -27t27.5 -65v-707h174q38 0 65 -27t27 -65t-27 -65t-65 -27h-533q-38 0 -65 27t-27 65z" />
<glyph unicode="&#x139;" d="M174 92v1065q0 38 27 65t65 27t65 -27t27 -65v-973h441q38 0 65 -27t27 -65t-27 -65t-65 -27h-533q-38 0 -65 27t-27 65zM175 1423.5q0 37.5 26 65.5l266 266q28 26 65.5 26t65.5 -26q26 -28 26 -65.5t-26 -65.5l-266 -266q-27 -27 -66 -27q-38 0 -65 27q-26 28 -26 65.5 z" />
<glyph unicode="&#x13a;" d="M174 1423q0 38 27 65.5t65 27.5h266q38 0 65.5 -27.5t27.5 -65.5v-1239h174q38 0 65 -27t27 -65t-27 -65t-65 -27h-267q-38 0 -65 27t-27 65v1239h-174q-38 0 -65 27t-27 65zM441 1689.5q0 37.5 26 65.5l266 266q28 26 65.5 26t65.5 -26q26 -28 26 -65.5t-26 -65.5 l-266 -266q-27 -27 -66 -27q-38 0 -65 27q-26 28 -26 65.5z" />
<glyph unicode="&#x13d;" d="M-92 1689.5q0 37.5 26 65.5q28 26 66 26t66 -26l200 -201l201 201q28 26 65.5 26t65.5 -26q26 -28 26 -65.5t-26 -65.5l-266 -266q-27 -27 -66 -27q-38 0 -65 27l-267 266q-26 28 -26 65.5zM174 92v1065q0 38 27 65t65 27t65 -27t27 -65v-973h441q38 0 65 -27t27 -65 t-27 -65t-65 -27h-533q-38 0 -65 27t-27 65z" />
<glyph unicode="&#x13e;" d="M174 1423q0 38 27 65.5t65 27.5h266q38 0 65.5 -27.5t27.5 -65.5v-43l108 109q28 26 65.5 26t65.5 -26q26 -28 26 -65.5t-26 -65.5l-239 -240v-934h174q38 0 65 -27t27 -65t-27 -65t-65 -27h-267q-38 0 -65 27t-27 65v1239h-174q-38 0 -65 27t-27 65z" />
<glyph unicode="&#x141;" d="M-87 654q12 36 46 53l215 108v342q0 38 27 65t65 27t65 -27t27 -65v-250l134 66q34 17 69.5 5t52.5 -46t5 -70t-46 -53l-215 -109v-516h441q38 0 65 -27t27 -65t-27 -65t-65 -27h-533q-38 0 -65 27t-27 65v516l-133 -65q-16 -11 -41 -11q-57 0 -82 52q-17 34 -5 70z" />
<glyph unicode="&#x142;" d="M174 1423q0 38 27 65.5t65 27.5h266q38 0 65.5 -27.5t27.5 -65.5v-516l133 66q34 17 70 5t53 -46t5 -70t-46 -53l-215 -109v-516h174q38 0 65 -27t27 -65t-27 -65t-65 -27h-267q-38 0 -65 27t-27 65v516l-133 -65q-17 -11 -41 -11q-57 0 -82 52q-17 34 -5 70t46 53 l215 108v516h-174q-38 0 -65 27t-27 65z" />
<glyph unicode="&#x143;" d="M174 92v1065q0 32 20 57.5t52 32.5q31 8 60 -6t42 -43l359 -715v674q0 38 27 65t65 27t65 -27t27 -65v-1065q0 -32 -20 -57.5t-52 -32.5q-6 -2 -20 -2q-60 0 -82 51l-359 715v-674q0 -38 -27 -65t-65 -27t-65 27t-27 65zM441 1423.5q0 37.5 26 65.5l266 266 q28 26 65.5 26t65.5 -26q26 -28 26 -65.5t-26 -65.5l-266 -266q-27 -27 -66 -27q-38 0 -65 27q-26 28 -26 65.5z" />
<glyph unicode="&#x144;" d="M174 92v799q0 38 27 65t65 27h533q38 0 65 -27t27 -65v-799q0 -38 -27 -65t-65 -27t-65 27t-27 65v707h-349v-707q0 -38 -27 -65t-65 -27t-65 27t-27 65zM441 1157.5q0 37.5 26 65.5l266 266q28 26 65.5 26t65.5 -26q26 -28 26 -65.5t-26 -65.5l-266 -266 q-27 -27 -66 -27q-38 0 -65 27q-26 28 -26 65.5z" />
<glyph unicode="&#x147;" d="M174 92v1065q0 32 20 57.5t52 32.5q31 8 60 -6t42 -43l359 -715v674q0 38 27 65t65 27t65 -27t27 -65v-1065q0 -32 -20 -57.5t-52 -32.5q-6 -2 -20 -2q-60 0 -82 51l-359 715v-674q0 -38 -27 -65t-65 -27t-65 27t-27 65zM175 1689.5q0 37.5 26 65.5q28 26 65.5 26 t65.5 -26l200 -201l201 201q28 26 65.5 26t65.5 -26q26 -28 26 -65.5t-26 -65.5l-266 -266q-27 -27 -66 -27q-38 0 -65 27l-266 266q-26 28 -26 65.5z" />
<glyph unicode="&#x148;" d="M174 92v799q0 38 27 65t65 27h533q38 0 65 -27t27 -65v-799q0 -38 -27 -65t-65 -27t-65 27t-27 65v707h-349v-707q0 -38 -27 -65t-65 -27t-65 27t-27 65zM175 1423.5q0 37.5 26 65.5q28 26 65.5 26t65.5 -26l200 -201l201 201q28 26 65.5 26t65.5 -26q26 -28 26 -65.5 t-26 -65.5l-266 -266q-27 -27 -66 -27q-38 0 -65 27l-266 266q-26 28 -26 65.5z" />
<glyph unicode="&#x150;" d="M174 358v533q0 35 27 65l266 267q28 26 65.5 26t65.5 -26l266 -267q27 -30 27 -65v-533q0 -35 -27 -65l-266 -266q-27 -27 -66 -27q-38 0 -65 27l-266 266q-27 30 -27 65zM175 1423.5q0 37.5 26 65.5l266 266q28 26 65.5 26t65.5 -26q26 -28 26 -65.5t-26 -65.5 l-266 -266q-27 -27 -66 -27q-38 0 -65 27q-26 28 -26 65.5zM358 397l174 -174l175 174v455l-175 174l-174 -174v-455zM707 1423.5q0 37.5 26 65.5l266 266q28 26 65.5 26t65.5 -26q26 -28 26 -65.5t-26 -65.5l-266 -266q-27 -27 -65 -27q-39 0 -66 27q-26 28 -26 65.5z" />
<glyph unicode="&#x151;" d="M174 358v267q0 35 27 65l266 266q28 26 65.5 26t65.5 -26l266 -266q27 -30 27 -65v-267q0 -35 -27 -65l-266 -266q-27 -27 -66 -27q-38 0 -65 27l-266 266q-27 30 -27 65zM175 1157.5q0 37.5 26 65.5l266 266q28 26 65.5 26t65.5 -26q26 -28 26 -65.5t-26 -65.5 l-266 -266q-27 -27 -66 -27q-38 0 -65 27q-26 28 -26 65.5zM358 397l174 -174l175 174v189l-175 174l-174 -174v-189zM707 1157.5q0 37.5 26 65.5l266 266q28 26 65.5 26t65.5 -26q26 -28 26 -65.5t-26 -65.5l-266 -266q-27 -27 -65 -27q-39 0 -66 27q-26 28 -26 65.5z" />
<glyph unicode="&#x152;" d="M174 92v1065q0 38 27 65t65 27h533q38 0 65 -27t27 -65t-27 -65t-65 -27h-174v-348h174q38 0 65 -27t27 -65t-27 -65.5t-65 -27.5h-174v-348h174q38 0 65 -27t27 -65t-27 -65t-65 -27h-533q-38 0 -65 27t-27 65zM358 184h82v881h-82v-881z" />
<glyph unicode="&#x153;" d="M174 92v799q0 38 27 65t65 27h533q38 0 65 -27t27 -65v-266q0 -36 -27 -66l-239 -240v-135h174q38 0 65 -27t27 -65t-27 -65t-65 -27h-533q-38 0 -65 27t-27 65zM358 184h82v615h-82v-615zM625 582l82 82v135h-82v-217z" />
<glyph unicode="&#x154;" d="M174 92v1065q0 38 27 65t65 27h266q37 0 66 -26l266 -267q26 -28 26 -65.5t-26 -65.5l-219 -219l236 -473q17 -34 5 -70t-46 -53q-15 -10 -41 -10q-57 0 -82 51l-242 481h-117v-440q0 -38 -27 -65t-65 -27t-65 27t-27 65zM358 717h136l174 174l-174 174h-136v-348z M441 1423.5q0 37.5 26 65.5l266 266q28 26 65.5 26t65.5 -26q26 -28 26 -65.5t-26 -65.5l-266 -266q-27 -27 -66 -27q-38 0 -65 27q-26 28 -26 65.5z" />
<glyph unicode="&#x155;" d="M174 92v799q0 38 27 65t65 27h533q38 0 65 -27t27 -65v-266q0 -38 -27 -65.5t-65 -27.5t-65 27.5t-27 65.5v174h-349v-707q0 -38 -27 -65t-65 -27t-65 27t-27 65zM441 1157.5q0 37.5 26 65.5l266 266q28 26 65.5 26t65.5 -26q26 -28 26 -65.5t-26 -65.5l-266 -266 q-27 -27 -66 -27q-38 0 -65 27q-26 28 -26 65.5z" />
<glyph unicode="&#x158;" d="M174 92v1065q0 38 27 65t65 27h266q37 0 66 -26l266 -267q26 -28 26 -65.5t-26 -65.5l-219 -219l236 -473q17 -34 5 -70t-46 -53q-15 -10 -41 -10q-57 0 -82 51l-242 481h-117v-440q0 -38 -27 -65t-65 -27t-65 27t-27 65zM175 1689.5q0 37.5 26 65.5q28 26 65.5 26 t65.5 -26l200 -201l201 201q28 26 65.5 26t65.5 -26q26 -28 26 -65.5t-26 -65.5l-266 -266q-27 -27 -66 -27q-38 0 -65 27l-266 266q-26 28 -26 65.5zM358 717h136l174 174l-174 174h-136v-348z" />
<glyph unicode="&#x159;" d="M174 92v799q0 38 27 65t65 27h533q38 0 65 -27t27 -65v-266q0 -38 -27 -65.5t-65 -27.5t-65 27.5t-27 65.5v174h-349v-707q0 -38 -27 -65t-65 -27t-65 27t-27 65zM175 1423.5q0 37.5 26 65.5q28 26 65.5 26t65.5 -26l200 -201l201 201q28 26 65.5 26t65.5 -26 q26 -28 26 -65.5t-26 -65.5l-266 -266q-27 -27 -66 -27q-38 0 -65 27l-266 266q-26 28 -26 65.5z" />
<glyph unicode="&#x15a;" d="M174 92q0 38 27 65t65 27h228l174 174l-467 467q-26 28 -26 65.5t26 65.5l266 267q29 26 65 26h267q38 0 65 -27t27 -65t-27 -65t-65 -27h-228l-174 -174l467 -467q26 -28 26 -65.5t-26 -65.5l-266 -266q-30 -27 -66 -27h-266q-38 0 -65 27t-27 65zM441 1423.5 q0 37.5 26 65.5l266 266q28 26 65.5 26t65.5 -26q26 -28 26 -65.5t-26 -65.5l-266 -266q-27 -27 -66 -27q-38 0 -65 27q-26 28 -26 65.5z" />
<glyph unicode="&#x15b;" d="M174 92q0 38 27 65t65 27h228l149 150l-418 209q-42 19 -49 67q-9 46 25 80l266 266q30 27 65 27h267q38 0 65 -27t27 -65t-27 -65t-65 -27h-228l-149 -150l418 -209q42 -19 49 -67q9 -46 -25 -80l-266 -266q-30 -27 -66 -27h-266q-38 0 -65 27t-27 65zM441 1157.5 q0 37.5 26 65.5l266 266q28 26 65.5 26t65.5 -26q26 -28 26 -65.5t-26 -65.5l-266 -266q-27 -27 -66 -27q-38 0 -65 27q-26 28 -26 65.5z" />
<glyph unicode="&#x15e;" d="M174 90q0 38 27 65t65 27h228l174 174l-467 469q-26 26 -26 64.5t26 64.5l266 267q26 26 65 26h267q38 0 65 -27t27 -65q0 -37 -27 -64.5t-65 -27.5h-228l-174 -174l467 -467q26 -26 26 -64.5t-26 -64.5l-200 -203l200 -201q41 -41 21 -100q-10 -26 -34 -41.5t-52 -15.5 h-267q-38 0 -65 27.5t-27 64.5q0 38 27 65t65 27h43l-81 82h-228q-38 0 -65 27.5t-27 64.5z" />
<glyph unicode="&#x15f;" d="M174 92q0 38 27 65t65 27h228l149 150l-418 209q-43 19 -49 67q-9 46 25 80l266 266q30 27 65 27h267q38 0 65 -27t27 -65t-27 -65t-65 -27h-228l-149 -150l418 -209q42 -19 49 -67q9 -46 -25 -80l-200 -201l200 -201q41 -41 21 -100q-10 -26 -34 -41.5t-52 -15.5h-267 q-38 0 -65 27t-27 65t27 65t65 27h43l-81 82h-228q-38 0 -65 27t-27 65z" />
<glyph unicode="&#x160;" d="M174 92q0 38 27 65t65 27h228l174 174l-467 467q-26 28 -26 65.5t26 65.5l266 267q29 26 65 26h267q38 0 65 -27t27 -65t-27 -65t-65 -27h-228l-174 -174l467 -467q26 -28 26 -65.5t-26 -65.5l-266 -266q-30 -27 -66 -27h-266q-38 0 -65 27t-27 65zM175 1689.5 q0 37.5 26 65.5q28 26 65.5 26t65.5 -26l200 -201l201 201q28 26 65.5 26t65.5 -26q26 -28 26 -65.5t-26 -65.5l-266 -266q-27 -27 -66 -27q-38 0 -65 27l-266 266q-26 28 -26 65.5z" />
<glyph unicode="&#x161;" d="M174 92q0 38 27 65t65 27h228l149 150l-418 209q-42 19 -49 67q-9 46 25 80l266 266q30 27 65 27h267q38 0 65 -27t27 -65t-27 -65t-65 -27h-228l-149 -150l418 -209q42 -19 49 -67q9 -46 -25 -80l-266 -266q-30 -27 -66 -27h-266q-38 0 -65 27t-27 65zM175 1423.5 q0 37.5 26 65.5q28 26 65.5 26t65.5 -26l200 -201l201 201q28 26 65.5 26t65.5 -26q26 -28 26 -65.5t-26 -65.5l-266 -266q-27 -27 -66 -27q-38 0 -65 27l-266 266q-26 28 -26 65.5z" />
<glyph unicode="&#x162;" d="M174 1157q0 38 27 65t65 27h533q38 0 65 -27t27 -65t-27 -65t-65 -27h-174v-934l239 -240q41 -41 21 -100q-10 -26 -34 -41.5t-52 -15.5h-267q-38 0 -65 27t-27 65t27 65t65 27h43l-108 109q-27 30 -27 65v973h-174q-38 0 -65 27t-27 65z" />
<glyph unicode="&#x163;" d="M174 891q0 38 27 65t65 27h174v440q0 38 27 65.5t65 27.5t65.5 -27.5t27.5 -65.5v-440h174q38 0 65 -27t27 -65t-27 -65t-65 -27h-174v-402l239 -239q41 -41 21 -101q-10 -26 -34 -41.5t-52 -15.5h-43l108 -109q41 -41 21 -100q-10 -26 -34 -41.5t-52 -15.5h-267 q-38 0 -65 27t-27 65t27 65t65 27h43l-108 109q-44 44 -21 100q10 26 34 41.5t52 15.5h43l-108 109q-27 30 -27 65v441h-174q-38 0 -65 27t-27 65z" />
<glyph unicode="&#x164;" d="M174 1157q0 38 27 65t65 27h533q38 0 65 -27t27 -65t-27 -65t-65 -27h-174v-973q0 -38 -27.5 -65t-65.5 -27t-65 27t-27 65v973h-174q-38 0 -65 27t-27 65zM175 1689.5q0 37.5 26 65.5q28 26 65.5 26t65.5 -26l200 -201l201 201q28 26 65.5 26t65.5 -26q26 -28 26 -65.5 t-26 -65.5l-266 -266q-27 -27 -66 -27q-38 0 -65 27l-266 266q-26 28 -26 65.5z" />
<glyph unicode="&#x165;" d="M174 891q0 38 27 65t65 27h174v440q0 38 27 65.5t65 27.5t65.5 -27.5t27.5 -65.5v-43l108 109q28 26 65.5 26t65.5 -26q26 -28 26 -65.5t-26 -65.5l-239 -240v-135h174q38 0 65 -27t27 -65t-27 -65t-65 -27h-174v-402l239 -239q26 -28 26 -65.5t-26 -65.5 q-27 -27 -65 -27q-39 0 -66 27l-266 266q-27 30 -27 65v441h-174q-38 0 -65 27t-27 65z" />
<glyph unicode="&#x16e;" d="M174 92v1065q0 38 27 65t65 27t65 -27t27 -65v-973h349v973q0 38 27 65t65 27t65 -27t27 -65v-1065q0 -38 -27 -65t-65 -27h-533q-38 0 -65 27t-27 65zM175 1423.5q0 37.5 26 65.5l266 266q28 26 65.5 26t65.5 -26l266 -266q26 -28 26 -65.5t-26 -65.5l-266 -266 q-27 -27 -66 -27q-38 0 -65 27l-266 266q-26 28 -26 65.5zM397 1423l135 -135l136 135l-136 136z" />
<glyph unicode="&#x16f;" d="M174 92v799q0 38 27 65t65 27t65 -27t27 -65v-707h349v707q0 38 27 65t65 27t65 -27t27 -65v-799q0 -38 -27 -65t-65 -27h-533q-38 0 -65 27t-27 65zM175 1157.5q0 37.5 26 65.5l266 266q28 26 65.5 26t65.5 -26l266 -266q26 -28 26 -65.5t-26 -65.5l-266 -267 q-26 -26 -66 -26q-39 0 -65 26l-266 267q-26 28 -26 65.5zM397 1157l135 -135l136 135l-136 135z" />
<glyph unicode="&#x170;" d="M174 92v1065q0 38 27 65t65 27t65 -27t27 -65v-973h349v973q0 38 27 65t65 27t65 -27t27 -65v-1065q0 -38 -27 -65t-65 -27h-533q-38 0 -65 27t-27 65zM175 1423.5q0 37.5 26 65.5l266 266q28 26 65.5 26t65.5 -26q26 -28 26 -65.5t-26 -65.5l-266 -266q-27 -27 -66 -27 q-38 0 -65 27q-26 28 -26 65.5zM707 1423.5q0 37.5 26 65.5l266 266q28 26 65.5 26t65.5 -26q26 -28 26 -65.5t-26 -65.5l-266 -266q-27 -27 -65 -27q-39 0 -66 27q-26 28 -26 65.5z" />
<glyph unicode="&#x171;" d="M174 92v799q0 38 27 65t65 27t65 -27t27 -65v-707h349v707q0 38 27 65t65 27t65 -27t27 -65v-799q0 -38 -27 -65t-65 -27h-533q-38 0 -65 27t-27 65zM175 1157.5q0 37.5 26 65.5l266 266q28 26 65.5 26t65.5 -26q26 -28 26 -65.5t-26 -65.5l-266 -266q-27 -27 -66 -27 q-38 0 -65 27q-26 28 -26 65.5zM707 1157.5q0 37.5 26 65.5l266 266q28 26 65.5 26t65.5 -26q26 -28 26 -65.5t-26 -65.5l-266 -266q-27 -27 -65 -27q-39 0 -66 27q-26 28 -26 65.5z" />
<glyph unicode="&#x178;" d="M174 1636v54q0 38 27 65t65 27t65 -27t27 -65v-54q0 -38 -27 -65t-65 -27t-65 27t-27 65zM179 1186q12 36 46 53t70 5t53 -46l184 -367l185 367q17 34 53 46t70 -5t46 -53t-5 -70l-256 -514v-510q0 -38 -27.5 -65t-65.5 -27t-65 27t-27 65v510l-256 514q-17 34 -5 70z M707 1636v54q0 38 27 65t65 27t65 -27t27 -65v-54q0 -38 -27 -65t-65 -27t-65 27t-27 65z" />
<glyph unicode="&#x179;" d="M174 1157q0 38 27 65t65 27h533q53 0 78 -43q25 -46 4 -90l-465 -932h383q38 0 65 -27t27 -65t-27 -65t-65 -27h-533q-53 0 -78 43q-27 43 -4 90l465 932h-383q-38 0 -65 27t-27 65zM441 1423.5q0 37.5 26 65.5l266 266q28 26 65.5 26t65.5 -26q26 -28 26 -65.5 t-26 -65.5l-266 -266q-27 -27 -66 -27q-38 0 -65 27q-26 28 -26 65.5z" />
<glyph unicode="&#x17a;" d="M174 891q0 38 27 65t65 27h533q57 0 82 -49q26 -47 -7 -94l-436 -656h361q38 0 65 -27t27 -65t-27 -65t-65 -27h-533q-57 0 -82 49q-26 47 6 94l437 656h-361q-38 0 -65 27t-27 65zM441 1157.5q0 37.5 26 65.5l266 266q28 26 65.5 26t65.5 -26q26 -28 26 -65.5t-26 -65.5 l-266 -266q-27 -27 -66 -27q-38 0 -65 27q-26 28 -26 65.5z" />
<glyph unicode="&#x17b;" d="M174 1157q0 38 27 65t65 27h533q53 0 78 -43q25 -46 4 -90l-465 -932h383q38 0 65 -27t27 -65t-27 -65t-65 -27h-533q-53 0 -78 43q-27 43 -4 90l465 932h-383q-38 0 -65 27t-27 65zM440 1636v54q0 38 27 65t65 27t65.5 -27t27.5 -65v-54q0 -38 -27.5 -65t-65.5 -27 t-65 27t-27 65z" />
<glyph unicode="&#x17c;" d="M174 891q0 38 27 65t65 27h533q57 0 82 -49q26 -47 -7 -94l-436 -656h361q38 0 65 -27t27 -65t-27 -65t-65 -27h-533q-57 0 -82 49q-26 47 6 94l437 656h-361q-38 0 -65 27t-27 65zM440 1370v53q0 38 27 65.5t65 27.5t65.5 -27.5t27.5 -65.5v-53q0 -38 -27.5 -65 t-65.5 -27t-65 27t-27 65z" />
<glyph unicode="&#x17d;" d="M174 1157q0 38 27 65t65 27h533q53 0 78 -43q25 -46 4 -90l-465 -932h383q38 0 65 -27t27 -65t-27 -65t-65 -27h-533q-53 0 -78 43q-27 43 -4 90l465 932h-383q-38 0 -65 27t-27 65zM175 1689.5q0 37.5 26 65.5q28 26 65.5 26t65.5 -26l200 -201l201 201q28 26 65.5 26 t65.5 -26q26 -28 26 -65.5t-26 -65.5l-266 -266q-27 -27 -66 -27q-38 0 -65 27l-266 266q-26 28 -26 65.5z" />
<glyph unicode="&#x17e;" d="M174 891q0 38 27 65t65 27h533q57 0 82 -49q26 -47 -7 -94l-436 -656h361q38 0 65 -27t27 -65t-27 -65t-65 -27h-533q-57 0 -82 49q-26 47 6 94l437 656h-361q-38 0 -65 27t-27 65zM175 1423.5q0 37.5 26 65.5q28 26 65.5 26t65.5 -26l200 -201l201 201q28 26 65.5 26 t65.5 -26q26 -28 26 -65.5t-26 -65.5l-266 -266q-27 -27 -66 -27q-38 0 -65 27l-266 266q-26 28 -26 65.5z" />
<glyph unicode="&#x192;" d="M174 -174q0 38 27 65t65 27h174v881h-174q-38 0 -65 27t-27 65t27 65t65 27h174v174q0 38 27 65t65 27h267q38 0 65 -27t27 -65t-27 -65t-65 -27h-174v-82h174q38 0 65 -27t27 -65t-27 -65t-65 -27h-174v-973q0 -38 -27.5 -65t-65.5 -27h-266q-38 0 -65 27t-27 65z" />
<glyph unicode="&#x218;" d="M174 92q0 38 27 65t65 27h228l174 174l-467 467q-26 28 -26 65.5t26 65.5l266 267q29 26 65 26h267q38 0 65 -27t27 -65t-27 -65t-65 -27h-228l-174 -174l467 -467q26 -28 26 -65.5t-26 -65.5l-239 -240v-227q0 -38 -27.5 -65t-65.5 -27t-65 27t-27 65v174h-174 q-38 0 -65 27t-27 65z" />
<glyph unicode="&#x219;" d="M174 92q0 38 27 65t65 27h228l149 150l-418 209q-43 19 -49 67q-9 46 25 80l266 266q30 27 65 27h267q38 0 65 -27t27 -65t-27 -65t-65 -27h-228l-149 -150l418 -209q42 -19 49 -67q9 -46 -25 -80l-239 -240v-227q0 -38 -27.5 -65t-65.5 -27t-65 27t-27 65v174h-174 q-38 0 -65 27t-27 65z" />
<glyph unicode="&#x2c6;" d="M175 890.5q0 37.5 26 65.5l266 267q28 26 65.5 26t65.5 -26l266 -267q26 -28 26 -65.5t-26 -65.5q-26 -26 -65 -26q-40 0 -66 26l-201 201l-200 -201q-28 -26 -65.5 -26t-65.5 26q-26 28 -26 65.5z" />
<glyph unicode="&#x2c7;" d="M175 1157.5q0 37.5 26 65.5q28 26 65.5 26t65.5 -26l200 -201l201 201q28 26 65.5 26t65.5 -26q26 -28 26 -65.5t-26 -65.5l-266 -267q-26 -26 -66 -26q-39 0 -65 26l-266 267q-26 28 -26 65.5z" />
<glyph unicode="&#x2d8;" d="M174 891v266q0 38 27 65t65 27t65 -27t27 -65v-174h349v174q0 38 27 65t65 27t65 -27t27 -65v-266q0 -38 -27 -65t-65 -27h-533q-38 0 -65 27t-27 65z" />
<glyph unicode="&#x2d9;" d="M440 1104v53q0 38 27 65t65 27t65.5 -27t27.5 -65v-53q0 -38 -27.5 -65t-65.5 -27t-65 27t-27 65z" />
<glyph unicode="&#x2db;" d="M180 -209q-23 56 21 100l266 267q28 26 65.5 26t65.5 -26q26 -28 26 -65.5t-26 -65.5l-109 -109h43q38 0 65.5 -27t27.5 -65t-27.5 -65t-65.5 -27h-266q-28 0 -52 15.5t-34 41.5z" />
<glyph unicode="&#x2dc;" d="M175 890.5q0 37.5 26 65.5l266 267q28 26 65.5 26t65.5 -26l201 -201l200 201q28 26 65.5 26t65.5 -26q26 -28 26 -65.5t-26 -65.5l-266 -267q-26 -26 -65 -26q-40 0 -66 26l-201 201l-200 -201q-28 -26 -65.5 -26t-65.5 26q-26 28 -26 65.5z" />
<glyph unicode="&#x2dd;" d="M175 890.5q0 37.5 26 65.5l266 267q28 26 65.5 26t65.5 -26q26 -28 26 -65.5t-26 -65.5l-266 -267q-26 -26 -66 -26q-39 0 -65 26q-26 28 -26 65.5zM707 890.5q0 37.5 26 65.5l266 267q28 26 65.5 26t65.5 -26q26 -28 26 -65.5t-26 -65.5l-266 -267q-26 -26 -65 -26 q-40 0 -66 26q-26 28 -26 65.5z" />
<glyph unicode="&#x2000;" horiz-adv-x="1023" />
<glyph unicode="&#x2001;" horiz-adv-x="2047" />
<glyph unicode="&#x2002;" horiz-adv-x="1023" />
<glyph unicode="&#x2003;" horiz-adv-x="2047" />
<glyph unicode="&#x2004;" horiz-adv-x="682" />
<glyph unicode="&#x2005;" horiz-adv-x="511" />
<glyph unicode="&#x2006;" horiz-adv-x="341" />
<glyph unicode="&#x2007;" horiz-adv-x="341" />
<glyph unicode="&#x2008;" horiz-adv-x="255" />
<glyph unicode="&#x2009;" horiz-adv-x="409" />
<glyph unicode="&#x200a;" horiz-adv-x="113" />
<glyph unicode="&#x2010;" d="M174 625q0 38 27 65t65 27h533q38 0 65 -27t27 -65t-27 -65.5t-65 -27.5h-533q-38 0 -65 27.5t-27 65.5z" />
<glyph unicode="&#x2011;" d="M174 625q0 38 27 65t65 27h533q38 0 65 -27t27 -65t-27 -65.5t-65 -27.5h-533q-38 0 -65 27.5t-27 65.5z" />
<glyph unicode="&#x2012;" d="M174 625q0 38 27 65t65 27h533q38 0 65 -27t27 -65t-27 -65.5t-65 -27.5h-533q-38 0 -65 27.5t-27 65.5z" />
<glyph unicode="&#x2013;" d="M174 625q0 38 27 65t65 27h533q38 0 65 -27t27 -65t-27 -65.5t-65 -27.5h-533q-38 0 -65 27.5t-27 65.5z" />
<glyph unicode="&#x2014;" d="M-92 625q0 38 27 65t65 27h1065q38 0 65 -27t27 -65t-27 -65.5t-65 -27.5h-1065q-38 0 -65 27.5t-27 65.5z" />
<glyph unicode="&#x2018;" d="M440 1157v266q0 38 27 65.5t65 27.5t65.5 -27.5t27.5 -65.5v-266q0 -38 -27.5 -65t-65.5 -27t-65 27t-27 65z" />
<glyph unicode="&#x2019;" d="M440 1157v266q0 38 27 65.5t65 27.5t65.5 -27.5t27.5 -65.5v-266q0 -38 -27.5 -65t-65.5 -27t-65 27t-27 65z" />
<glyph unicode="&#x201a;" d="M440 145q0 38 27 65.5t65 27.5t65.5 -27.5t27.5 -65.5v-319q0 -38 -27.5 -65t-65.5 -27t-65 27t-27 65v319z" />
<glyph unicode="&#x201c;" d="M174 1157v266q0 38 27 65.5t65 27.5t65 -27.5t27 -65.5v-266q0 -38 -27 -65t-65 -27t-65 27t-27 65zM440 1157v266q0 38 27 65.5t65 27.5t65.5 -27.5t27.5 -65.5v-266q0 -38 -27.5 -65t-65.5 -27t-65 27t-27 65z" />
<glyph unicode="&#x201d;" d="M174 1157v266q0 38 27 65.5t65 27.5t65 -27.5t27 -65.5v-266q0 -38 -27 -65t-65 -27t-65 27t-27 65zM440 1157v266q0 38 27 65.5t65 27.5t65.5 -27.5t27.5 -65.5v-266q0 -38 -27.5 -65t-65.5 -27t-65 27t-27 65z" />
<glyph unicode="&#x201e;" d="M174 145q0 38 27 65.5t65 27.5t65 -27.5t27 -65.5v-319q0 -38 -27 -65t-65 -27t-65 27t-27 65v319zM440 145q0 38 27 65.5t65 27.5t65.5 -27.5t27.5 -65.5v-319q0 -38 -27.5 -65t-65.5 -27t-65 27t-27 65v319z" />
<glyph unicode="&#x2020;" d="M174 891q0 38 27 65t65 27h174v174q0 38 27 65t65 27t65.5 -27t27.5 -65v-174h174q38 0 65 -27t27 -65t-27 -65t-65 -27h-174v-973q0 -38 -27.5 -65t-65.5 -27t-65 27t-27 65v973h-174q-38 0 -65 27t-27 65z" />
<glyph unicode="&#x2021;" d="M174 92q0 38 27 65t65 27h174v615h-174q-38 0 -65 27t-27 65t27 65t65 27h174v174q0 38 27 65t65 27t65.5 -27t27.5 -65v-174h174q38 0 65 -27t27 -65t-27 -65t-65 -27h-174v-615h174q38 0 65 -27t27 -65t-27 -65t-65 -27h-174v-174q0 -38 -27.5 -65t-65.5 -27t-65 27 t-27 65v174h-174q-38 0 -65 27t-27 65z" />
<glyph unicode="&#x2022;" d="M175 624.5q0 37.5 26 65.5l266 266q28 26 65.5 26t65.5 -26l266 -266q26 -28 26 -65.5t-26 -65.5l-266 -266q-27 -27 -66 -27q-38 0 -65 27l-266 266q-26 28 -26 65.5zM397 625l135 -136l136 136l-136 135z" />
<glyph unicode="&#x2026;" d="M174 92v53q0 38 27 65.5t65 27.5t65 -27.5t27 -65.5v-53q0 -38 -27 -65t-65 -27t-65 27t-27 65zM440 92v53q0 38 27 65.5t65 27.5t65.5 -27.5t27.5 -65.5v-53q0 -38 -27.5 -65t-65.5 -27t-65 27t-27 65zM707 92v53q0 38 27 65.5t65 27.5t65 -27.5t27 -65.5v-53 q0 -38 -27 -65t-65 -27t-65 27t-27 65z" />
<glyph unicode="&#x202f;" horiz-adv-x="409" />
<glyph unicode="&#x2039;" d="M175 624.5q0 37.5 26 65.5l266 266q28 26 65.5 26t65.5 -26q26 -28 26 -65.5t-26 -65.5l-201 -200l201 -201q26 -28 26 -65.5t-26 -65.5q-27 -27 -66 -27q-38 0 -65 27l-266 266q-26 28 -26 65.5z" />
<glyph unicode="&#x203a;" d="M441 358.5q0 37.5 26 65.5l201 201l-201 200q-26 28 -26 65.5t26 65.5q28 26 65.5 26t65.5 -26l266 -266q26 -28 26 -65.5t-26 -65.5l-266 -266q-27 -27 -66 -27q-38 0 -65 27q-26 28 -26 65.5z" />
<glyph unicode="&#x205f;" horiz-adv-x="511" />
<glyph unicode="&#x20ac;" d="M-92 625q0 38 27 65t65 27h174v82h-174q-38 0 -65 27t-27 65t27 65t65 27h227l240 240q29 26 65 26h267q38 0 65 -27t27 -65t-27 -65t-65 -27h-228l-82 -82h310q38 0 65 -27t27 -65t-27 -65t-65 -27h-441v-82h441q38 0 65 -27t27 -65t-27 -65.5t-65 -27.5h-441v-135 l213 -213h228q38 0 65 -27t27 -65t-27 -65t-65 -27h-267q-35 0 -65 27l-266 266q-27 30 -27 65v174h-174q-38 0 -65 27.5t-27 65.5z" />
<glyph unicode="&#x25fc;" horiz-adv-x="983" d="M0 0v983h983v-983h-983z" />
</font>
</defs>
</svg>
