<svg width="124" height="124" viewBox="0 0 124 124" fill="none" xmlns="http://www.w3.org/2000/svg">
<path d="M27 24.5H69V48.5C53.5 54.5 45 54.5 27 48.5V24.5Z" fill="url(#paint0_linear)"/>
<path d="M47 12.5C35.5 17.8333 12.4 28.6 12 29L48 44.5L86 29L47 12.5Z" fill="url(#paint1_linear)"/>
<path d="M47.5 27L71 33.5V57.5" stroke="#13303E" stroke-width="2"/>
<path d="M43.0697 27.2343L47.5403 24.4923L52.5697 27.2343L47.5403 29.5217L43.0697 27.2343Z" fill="#13303E"/>
<rect x="44" y="58" width="66" height="52" rx="2" fill="#DDE8E8" stroke="url(#paint2_linear)" stroke-width="4"/>
<path d="M53.5558 80.5173C53.6919 78.5414 54.0406 78.2707 54.4915 78.2707C54.5936 78.2707 54.9083 78.2887 55.1295 78.4872C54.8403 78.5323 54.7637 78.7669 54.7637 78.9203C54.7637 79.218 54.9934 79.3534 55.1805 79.3534C55.3847 79.3534 55.6144 79.218 55.6144 78.8932C55.6144 78.379 55.104 78 54.4915 78C53.5217 78 53.1219 79.0466 52.9518 79.8677C52.8242 80.4541 52.4584 83.4947 52.3648 84.794L52.1777 87.4827C52.0416 89.2421 51.6758 89.7293 51.0974 89.7293C50.9612 89.7293 50.655 89.7022 50.4423 89.5128C50.7656 89.4677 50.8507 89.2331 50.8507 89.0887C50.8507 88.782 50.621 88.6466 50.4253 88.6466C50.2297 88.6466 50 88.791 50 89.1068C50 89.6211 50.5104 90 51.1144 90C52.0756 90 52.5605 89.0617 52.7817 88.0962C52.9093 87.5368 53.275 84.397 53.3601 83.206" fill="#13303E"/>
<path d="M59.638 84.2256C59.9187 84.2256 60.6333 84.1985 61.1267 83.9549C61.9178 83.6391 61.9943 82.9985 61.9943 82.8C61.9943 82.3218 61.5945 81.8797 60.914 81.8797C59.8251 81.8797 58.2514 82.9083 58.2514 84.8301C58.2514 85.9669 58.8639 86.7519 59.7996 86.7519C61.1947 86.7519 62.0794 85.6241 62.0794 85.4887C62.0794 85.4165 62.0113 85.3714 61.9773 85.3714C61.9433 85.3714 61.9348 85.3805 61.8412 85.4707C61.1862 86.3278 60.2079 86.4812 59.8251 86.4812C59.2382 86.4812 58.9319 86.0211 58.9319 85.2722C58.9319 85.1278 58.9319 84.8752 59.0851 84.2256H59.638ZM59.1616 83.9549C59.5955 82.3128 60.5652 82.1504 60.897 82.1504C61.3478 82.1504 61.6541 82.4301 61.6541 82.8361C61.6541 83.9549 60.0208 83.9549 59.587 83.9549" fill="#13303E"/>
<path d="M65.8138 79.8045C65.499 79.8857 65.482 80.1564 65.482 80.1744C65.482 80.3368 65.6011 80.4361 65.7628 80.4361C65.9159 80.4361 66.1626 80.3188 66.1626 80.0301C66.1626 79.6421 65.7372 79.5338 65.482 79.5338C65.1588 79.5338 64.9036 79.7684 64.7505 80.0391C64.5973 79.6692 64.2401 79.5338 63.9679 79.5338C63.2193 79.5338 62.8024 80.4271 62.8024 80.6256C62.8024 80.6887 62.8535 80.7158 62.913 80.7158C62.9896 80.7158 63.0066 80.6797 63.0236 80.5985C63.1767 80.1203 63.5851 79.8045 63.9423 79.8045C64.206 79.8045 64.3336 79.994 64.3336 80.2466C64.3336 80.382 64.2486 80.6978 64.1975 80.9143C64.1465 81.1128 64.0019 81.7173 63.9679 81.8526C63.8743 82.2226 63.6276 82.5113 63.3214 82.5113C63.2958 82.5113 63.1172 82.5113 62.9811 82.4211C63.2703 82.3399 63.2703 82.0511 63.2703 82.0421C63.2703 81.8887 63.1427 81.7895 62.9896 81.7895C62.8024 81.7895 62.5898 81.9609 62.5898 82.2406C62.5898 82.5835 62.93 82.782 63.2788 82.782C63.6446 82.782 63.8998 82.4842 64.0189 82.2496C64.172 82.6105 64.4868 82.782 64.8185 82.782C65.5671 82.782 65.9839 81.8707 65.9839 81.6632C65.9839 81.591 65.9244 81.5729 65.8818 81.5729C65.7968 81.5729 65.7798 81.6181 65.7628 81.6902C65.6266 82.1414 65.2438 82.5113 64.844 82.5113C64.6229 82.5113 64.4612 82.3579 64.4612 82.0692C64.4612 81.9338 64.5038 81.7805 64.5973 81.3925C64.6484 81.185 64.793 80.5895 64.827 80.4541C64.9206 80.1023 65.1588 79.8045 65.465 79.8045C65.499 79.8045 65.6777 79.8045 65.8138 79.8045Z" fill="#13303E"/>
<path d="M76.5577 83.1429C76.6938 83.1429 76.8809 83.1429 76.8809 82.9714C76.8809 82.782 76.7108 82.782 76.5577 82.782H70.569C70.4329 82.782 70.2457 82.782 70.2457 82.9534C70.2457 83.1429 70.4159 83.1429 70.569 83.1429H76.5577ZM76.5577 85.218C76.6938 85.218 76.8809 85.2181 76.8809 85.0466C76.8809 84.8571 76.7108 84.8571 76.5577 84.8571H70.569C70.4329 84.8571 70.2457 84.8571 70.2457 85.0286C70.2457 85.218 70.4159 85.218 70.569 85.218" fill="#13303E"/>
<path d="M84.8176 82.2406C85.0217 82.2406 85.1068 82.2406 85.1068 82.0602C85.1068 81.9699 85.0217 81.9699 84.8346 81.9699H84.018C84.2051 80.9053 84.3497 80.1744 84.4263 79.8406C84.4858 79.588 84.6985 79.3534 84.9622 79.3534C85.1749 79.3534 85.396 79.3985 85.4981 79.4436C85.0898 79.4887 84.9622 79.8045 84.9622 79.994C84.9622 80.2105 85.1153 80.3459 85.3025 80.3459C85.5066 80.3459 85.8128 80.1654 85.8128 79.7684C85.8128 79.3263 85.3875 79.0827 84.9452 79.0827C84.5113 79.0827 84.086 79.4256 83.8818 79.8316C83.6947 80.2015 83.6011 80.5804 83.3629 81.9699H82.6824C82.4953 81.9699 82.3932 81.9699 82.3932 82.1413C82.3932 82.2406 82.4527 82.2406 82.6569 82.2406H83.3034C83.1248 83.2421 82.7079 85.6782 82.4783 86.8331C82.2996 87.7714 82.155 88.5564 81.6446 88.5564C81.6106 88.5564 81.3214 88.5564 81.1342 88.4662C81.6446 88.4211 81.6446 87.9338 81.6446 87.9248C81.6446 87.6993 81.4915 87.5639 81.3043 87.5639C81.1002 87.5639 80.7939 87.7444 80.7939 88.1414C80.7939 88.5925 81.2448 88.8271 81.6446 88.8271C82.6824 88.8271 83.1077 86.8421 83.2183 86.2917C83.4055 85.4617 83.9074 82.5654 83.9584 82.2406" fill="#13303E"/>
<path d="M89.6323 89.2782C89.6323 89.2511 89.6323 89.2241 89.4537 89.0436C88.4329 87.9519 87.8545 86.1654 87.8545 83.9639C87.8545 81.8616 88.3393 80.0571 89.5303 78.7759C89.6323 78.6857 89.6323 78.6586 89.6323 78.6316C89.6323 78.5594 89.5813 78.5414 89.5388 78.5414C89.4112 78.5414 88.586 79.3173 88.0926 80.3819C87.5737 81.4737 87.3441 82.6286 87.3441 83.9639C87.3441 84.9293 87.4887 86.2105 88.0076 87.3654C88.603 88.6647 89.4282 89.3684 89.5388 89.3684C89.5813 89.3684 89.6323 89.3504 89.6323 89.2872" fill="#13303E"/>
<path d="M93.724 86.0391C93.8601 86.6256 94.3365 86.7519 94.5832 86.7519C94.8979 86.7519 95.1446 86.5263 95.3062 86.1654C95.4764 85.7774 95.604 85.1459 95.604 85.1188C95.604 85.0647 95.57 85.0195 95.5104 85.0195C95.4168 85.0195 95.4083 85.0737 95.3658 85.2271C95.1872 85.9398 95.0085 86.4812 94.6172 86.4812C94.3195 86.4812 94.3195 86.1293 94.3195 85.985C94.3195 85.7414 94.345 85.6331 94.4471 85.182C94.5151 84.8932 94.5832 84.6045 94.6427 84.3068C94.7873 83.6842 94.9149 83.1429 95.0425 82.5654C95.1106 82.2947 95.1106 82.2767 95.1106 82.2406C95.1106 82.0782 94.9915 81.9699 94.8384 81.9699C94.5577 81.9699 94.4811 82.2406 94.4216 82.5113C94.328 82.9263 93.7921 85.2271 93.724 85.606C93.7155 85.606 93.3157 86.4812 92.5671 86.4812C92.0397 86.4812 91.9376 86.003 91.9376 85.606C91.9376 85.0015 92.2098 84.1444 92.4565 83.4316C92.5756 83.0887 92.6267 82.9534 92.6267 82.7368C92.6267 82.2767 92.3119 81.8797 91.8185 81.8797C90.8828 81.8797 90.5085 83.4677 90.5085 83.5579C90.5085 83.594 90.551 83.6481 90.6191 83.6481C90.7127 83.6481 90.7212 83.612 90.7637 83.4586C91.0104 82.5564 91.4017 82.1504 91.793 82.1504C91.8951 82.1504 92.0567 82.1594 92.0567 82.5023C92.0567 82.782 91.9546 83.0887 91.81 83.4947C91.3847 84.7669 91.3422 85.1729 91.3422 85.4887C91.3422 86.5805 92.1163 86.7519 92.5331 86.7519C93.1711 86.7519 93.5284 86.2917 93.724 86.0391Z" fill="#13303E"/>
<path d="M98.7429 83.9639C98.7429 83.1338 98.6408 81.7985 98.0879 80.5444C97.5094 79.2451 96.6928 78.5414 96.5822 78.5414C96.5482 78.5414 96.4972 78.5594 96.4972 78.6316C96.4972 78.6586 96.4972 78.6857 96.6673 78.8662C97.6711 79.9579 98.2325 81.7353 98.2325 83.9368C98.2325 86.021 97.7646 87.8256 96.5992 89.0977C96.4972 89.206 96.4972 89.2331 96.4972 89.2692C96.4972 89.3414 96.5482 89.3684 96.5822 89.3684C96.7183 89.3684 97.5265 88.5925 98.0113 87.5278C98.5132 86.4271 98.7429 85.2541 98.7429 83.9639Z" fill="#13303E"/>
<path d="M101.193 81.5549C101.21 81.4556 101.278 81.185 101.295 81.0767C101.388 80.6978 101.388 80.6977 101.542 80.4632C101.763 80.1113 102.077 79.8045 102.528 79.8045C102.767 79.8045 102.911 79.9489 102.911 80.2827C102.911 80.6707 102.673 81.4737 102.562 81.8165C102.486 82.0511 102.486 82.0962 102.486 82.1865C102.486 82.5835 102.792 82.782 103.081 82.782C103.728 82.782 104 81.7624 104 81.6632C104 81.591 103.94 81.5729 103.898 81.5729C103.813 81.5729 103.796 81.6181 103.779 81.6902C103.617 82.2496 103.328 82.5113 103.073 82.5113C102.962 82.5113 102.911 82.4391 102.911 82.2767C102.911 82.1143 102.962 81.9609 103.03 81.7895C103.124 81.5188 103.422 80.7158 103.422 80.3188C103.422 79.7865 103.073 79.5338 102.579 79.5338C102.035 79.5338 101.686 79.8857 101.491 80.1474C101.439 79.7594 101.142 79.5338 100.801 79.5338C100.555 79.5338 100.385 79.7053 100.283 79.9218C100.121 80.2556 100.053 80.6075 100.053 80.6256C100.053 80.6887 100.095 80.7158 100.146 80.7158C100.24 80.7158 100.24 80.6887 100.291 80.5173C100.368 80.1925 100.487 79.8045 100.776 79.8045C100.946 79.8045 100.989 79.985 100.989 80.1384C100.989 80.2647 100.955 80.4 100.904 80.6346C100.887 80.6887 100.784 81.1038 100.759 81.203C100.657 81.6632 100.606 81.8436 100.512 82.2586C100.487 82.3579 100.444 82.5384 100.444 82.5654C100.444 82.7278 100.572 82.782 100.657 82.782C100.784 82.782 100.878 82.7008 100.929 82.6105C100.946 82.5744 100.997 82.3308 101.04 82.1865" fill="#13303E"/>
<defs>
<linearGradient id="paint0_linear" x1="48" y1="24.5" x2="48" y2="57.8755" gradientUnits="userSpaceOnUse">
<stop offset="0.453125" stop-color="#6E2A4A"/>
<stop offset="1" stop-color="#DB5393"/>
</linearGradient>
<linearGradient id="paint1_linear" x1="49" y1="12.5" x2="49" y2="44.5" gradientUnits="userSpaceOnUse">
<stop stop-color="#DB5393"/>
<stop offset="1" stop-color="#6E2A4A"/>
</linearGradient>
<linearGradient id="paint2_linear" x1="77" y1="56" x2="77" y2="112" gradientUnits="userSpaceOnUse">
<stop stop-color="#731ECC"/>
<stop offset="1" stop-color="#493662"/>
</linearGradient>
</defs>
</svg>
