<svg width="124" height="124" viewBox="0 0 124 124" fill="none" xmlns="http://www.w3.org/2000/svg">
<g filter="url(#filter0_d)">
<path d="M27.9775 28.1253L32.2372 25.2984L34.977 25.2984L30.7538 28.1253L27.9775 28.1253Z" fill="#DDE8E8"/>
</g>
<g filter="url(#filter1_d)">
<path d="M23.5826 28.1253L27.8422 25.2984L30.582 25.2984L26.3588 28.1253L23.5826 28.1253Z" fill="#DDE8E8"/>
</g>
<g filter="url(#filter2_d)">
<path d="M19.1875 28.1253L23.4472 25.2984L26.187 25.2984L21.9638 28.1253L19.1875 28.1253Z" fill="#DDE8E8"/>
</g>
<g filter="url(#filter3_d)">
<path d="M32.8717 30.5013H33.045L33.1811 30.394L41.7292 23.6592H91.1875V54.2381H23.9243H23.8097L23.7066 54.2881L12.6558 59.6352L17.4122 48.2199L17.4507 48.1276V48.0276V30.5013H32.8717Z" stroke="#DDE8E8"/>
</g>
<g filter="url(#filter4_d)">
<path d="M40.1665 36.0387V39.8607H44.0445V36.0387H45.7945V45.6987H44.0445V41.2327H40.1665V45.6987H38.4165V36.0387H40.1665Z" fill="#DDE8E8"/>
<path d="M50.8858 38.6567C51.9965 38.6567 52.7945 38.8527 53.2798 39.2447C53.7652 39.6273 54.0125 40.1967 54.0218 40.9527C54.0218 41.578 53.8725 42.054 53.5738 42.3807C53.2752 42.698 52.7758 42.8567 52.0758 42.8567H49.3178C49.3738 43.5193 49.5465 43.958 49.8358 44.1727C50.1252 44.3873 50.5732 44.4947 51.1798 44.4947C51.5252 44.4947 51.9218 44.4807 52.3698 44.4527C52.8272 44.4247 53.2658 44.3873 53.6858 44.3407L53.8538 45.4187C53.4805 45.5773 53.0232 45.6893 52.4818 45.7547C51.9405 45.8293 51.4412 45.8667 50.9838 45.8667C49.7238 45.8667 48.8278 45.5867 48.2958 45.0267C47.7732 44.4573 47.5118 43.538 47.5118 42.2687C47.5118 41.3633 47.6238 40.6493 47.8478 40.1267C48.0812 39.5947 48.4452 39.2167 48.9398 38.9927C49.4345 38.7687 50.0832 38.6567 50.8858 38.6567ZM50.9558 39.9167C50.5452 39.9167 50.2232 39.968 49.9898 40.0707C49.7565 40.1733 49.5838 40.3647 49.4718 40.6447C49.3598 40.9153 49.2992 41.3027 49.2898 41.8067H51.6138C51.9312 41.8067 52.1318 41.7227 52.2158 41.5547C52.3092 41.3867 52.3558 41.1813 52.3558 40.9387C52.3558 40.5653 52.2485 40.304 52.0338 40.1547C51.8192 39.996 51.4598 39.9167 50.9558 39.9167Z" fill="#DDE8E8"/>
<path d="M57.2524 35.8987L57.2384 43.6267C57.2384 44.1587 57.5278 44.4247 58.1064 44.4247H58.7084L58.9044 45.6147C58.8018 45.6613 58.6571 45.7033 58.4704 45.7407C58.2931 45.778 58.1064 45.8013 57.9104 45.8107C57.7238 45.8293 57.5604 45.8387 57.4204 45.8387C56.8511 45.8387 56.3984 45.6847 56.0624 45.3767C55.7264 45.0687 55.5584 44.6253 55.5584 44.0467V35.8987H57.2524Z" fill="#DDE8E8"/>
<path d="M61.6685 35.8987L61.6545 43.6267C61.6545 44.1587 61.9438 44.4247 62.5225 44.4247H63.1245L63.3205 45.6147C63.2178 45.6613 63.0731 45.7033 62.8865 45.7407C62.7091 45.778 62.5225 45.8013 62.3265 45.8107C62.1398 45.8293 61.9765 45.8387 61.8365 45.8387C61.2671 45.8387 60.8145 45.6847 60.4785 45.3767C60.1425 45.0687 59.9745 44.6253 59.9745 44.0467V35.8987H61.6685Z" fill="#DDE8E8"/>
<path d="M67.4845 38.6567C68.3245 38.6567 68.9918 38.7733 69.4865 39.0067C69.9811 39.24 70.3405 39.6227 70.5645 40.1547C70.7885 40.6867 70.9005 41.3913 70.9005 42.2687C70.9005 43.146 70.7885 43.8507 70.5645 44.3827C70.3405 44.9147 69.9811 45.2973 69.4865 45.5307C68.9918 45.764 68.3245 45.8807 67.4845 45.8807C66.6538 45.8807 65.9865 45.764 65.4825 45.5307C64.9878 45.2973 64.6285 44.9147 64.4045 44.3827C64.1898 43.8507 64.0825 43.146 64.0825 42.2687C64.0825 41.3913 64.1898 40.6867 64.4045 40.1547C64.6285 39.6227 64.9878 39.24 65.4825 39.0067C65.9865 38.7733 66.6538 38.6567 67.4845 38.6567ZM67.4845 39.9447C67.0738 39.9447 66.7471 40.0147 66.5045 40.1547C66.2711 40.2853 66.1031 40.5187 66.0005 40.8547C65.8978 41.1907 65.8465 41.662 65.8465 42.2687C65.8465 42.8753 65.8978 43.3467 66.0005 43.6827C66.1031 44.0187 66.2711 44.252 66.5045 44.3827C66.7471 44.5133 67.0738 44.5787 67.4845 44.5787C67.9045 44.5787 68.2311 44.5133 68.4645 44.3827C68.7071 44.252 68.8798 44.0187 68.9825 43.6827C69.0851 43.3467 69.1365 42.8753 69.1365 42.2687C69.1365 41.662 69.0851 41.1907 68.9825 40.8547C68.8798 40.5187 68.7071 40.2853 68.4645 40.1547C68.2311 40.0147 67.9045 39.9447 67.4845 39.9447Z" fill="#DDE8E8"/>
<path d="M74.4156 35.9687V39.9587L74.2476 42.6747H72.9036L72.7216 39.9587V35.9687H74.4156ZM73.7856 43.7807C74.0096 43.7807 74.1636 43.8227 74.2476 43.9067C74.3409 43.9907 74.3876 44.1493 74.3876 44.3827V45.0827C74.3876 45.316 74.3409 45.4793 74.2476 45.5727C74.1636 45.6567 74.0096 45.6987 73.7856 45.6987H73.3656C73.1416 45.6987 72.9829 45.6567 72.8896 45.5727C72.8056 45.4793 72.7636 45.316 72.7636 45.0827V44.3827C72.7636 44.1493 72.8056 43.9907 72.8896 43.9067C72.9829 43.8227 73.1416 43.7807 73.3656 43.7807H73.7856Z" fill="#DDE8E8"/>
</g>
<g filter="url(#filter5_d)">
<path d="M96.0225 68.3069L91.7628 65.48L89.023 65.48L93.2462 68.3069L96.0225 68.3069Z" fill="#DDE8E8"/>
</g>
<g filter="url(#filter6_d)">
<path d="M100.417 68.3069L96.1578 65.48L93.418 65.48L97.6412 68.3069L100.417 68.3069Z" fill="#DDE8E8"/>
</g>
<g filter="url(#filter7_d)">
<path d="M104.812 68.3069L100.553 65.48L97.813 65.48L102.036 68.3069L104.812 68.3069Z" fill="#DDE8E8"/>
</g>
<g filter="url(#filter8_d)">
<path d="M91.1283 70.6829H90.955L90.8189 70.5757L82.2708 63.8408H32.8125V94.4198H100.076H100.19L100.293 94.4697L111.344 99.8168L106.588 88.4015L106.549 88.3092V88.2092V70.6829H91.1283Z" stroke="#DDE8E8"/>
</g>
<g filter="url(#filter9_d)">
<path d="M39.0334 78.3668V79.9508C40.0054 80.0348 41.0494 80.0828 42.3094 80.0828C43.4494 80.0828 44.9374 80.0108 45.7774 79.9388V78.3428C44.8534 78.4388 43.4854 78.5108 42.2974 78.5108C41.0374 78.5108 39.9214 78.4628 39.0334 78.3668ZM40.0414 83.4548L38.4694 83.3108C38.3734 83.7548 38.2294 84.3428 38.2294 85.0388C38.2294 86.6828 39.6094 87.6068 42.3574 87.6068C44.0374 87.6068 45.4774 87.4508 46.5214 87.1988L46.5094 85.5068C45.4534 85.8068 43.9174 85.9868 42.2974 85.9868C40.5694 85.9868 39.8374 85.4348 39.8374 84.6668C39.8374 84.2588 39.9214 83.8868 40.0414 83.4548Z" fill="#DDE8E8"/>
<path d="M55.3414 78.1748L53.6374 77.4908C53.4334 77.9948 53.2054 78.3908 53.0494 78.7148C52.4134 79.8548 49.9534 84.7508 49.0654 87.1508L50.7574 87.7268C50.9374 87.0908 51.3574 85.7468 51.6694 85.0508C52.1014 84.0788 52.7734 83.2388 53.5894 83.2388C54.0214 83.2388 54.2614 83.4908 54.2974 83.9108C54.3334 84.4028 54.3214 85.3868 54.3694 86.0228C54.4174 86.8988 55.0414 87.6908 56.3734 87.6908C58.2094 87.6908 59.3254 86.3228 59.9494 84.2708L58.6534 83.2148C58.3054 84.7028 57.6694 86.0468 56.6254 86.0468C56.2294 86.0468 55.8934 85.8668 55.8454 85.3988C55.7854 84.8948 55.8214 83.9348 55.7974 83.3948C55.7494 82.3988 55.2094 81.8348 54.3094 81.8348C53.8534 81.8348 53.3734 81.9428 52.9294 82.1948C53.5294 81.1388 54.3694 79.6028 54.9574 78.7388C55.0894 78.5468 55.2214 78.3428 55.3414 78.1748Z" fill="#DDE8E8"/>
<path d="M65.7934 78.7028V80.2388C67.3054 80.3828 69.4774 80.3708 70.9534 80.2388V78.6908C69.6574 78.8468 67.2694 78.9068 65.7934 78.7028ZM66.7534 83.8268L65.3734 83.6948C65.2414 84.3068 65.1694 84.7868 65.1694 85.2548C65.1694 86.4908 66.1654 87.2228 68.2294 87.2228C69.5854 87.2228 70.5454 87.1388 71.3254 86.9948L71.3014 85.3748C70.2454 85.5908 69.3574 85.6868 68.2894 85.6868C67.0654 85.6868 66.6094 85.3628 66.6094 84.8348C66.6094 84.5108 66.6574 84.2228 66.7534 83.8268ZM63.9454 77.8988L62.2654 77.7548C62.2534 78.1388 62.1814 78.5948 62.1454 78.9308C62.0134 79.8548 61.6414 81.8828 61.6414 83.6828C61.6414 85.3148 61.8694 86.7788 62.1094 87.6068L63.5014 87.5108C63.4894 87.3428 63.4774 87.1508 63.4774 87.0188C63.4774 86.8988 63.5014 86.6348 63.5374 86.4548C63.6694 85.8188 64.0654 84.5108 64.4014 83.5148L63.6574 82.9268C63.4894 83.3228 63.2974 83.7428 63.1174 84.1508C63.0814 83.9108 63.0694 83.5988 63.0694 83.3708C63.0694 82.1708 63.4894 79.7708 63.6454 78.9668C63.6934 78.7508 63.8494 78.1508 63.9454 77.8988Z" fill="#DDE8E8"/>
<path d="M77.8534 77.5268L76.1494 77.4548C76.1734 77.8508 76.1614 78.1508 76.0894 78.6668C76.0654 78.8108 76.0414 78.9788 76.0174 79.1588C75.2854 79.1468 74.3854 79.0508 73.6654 78.9308V80.4188C74.2774 80.4788 74.9854 80.5148 75.7414 80.5268C75.4294 81.8468 74.9494 83.4428 74.3734 84.5588L75.7894 85.0628C75.9094 84.8588 75.9934 84.7028 76.1254 84.5348C76.8454 83.6228 78.0694 83.1308 79.4494 83.1308C80.6254 83.1308 81.2374 83.7308 81.2374 84.4508C81.2374 86.2148 78.5854 86.5388 75.9574 86.1068L76.3774 87.6548C80.2534 88.0748 82.8574 87.1028 82.8574 84.4028C82.8574 82.8668 81.5734 81.8348 79.6294 81.8348C78.5614 81.8348 77.6254 82.0508 76.6534 82.5908C76.8334 82.0028 77.0254 81.2348 77.1934 80.5028C78.8014 80.4188 80.7094 80.1908 81.9574 79.9868L81.9334 78.5588C80.4814 78.8708 78.8614 79.0508 77.4934 79.1228C77.5174 78.9908 77.5414 78.8588 77.5654 78.7508C77.6494 78.3548 77.7214 77.9468 77.8534 77.5268Z" fill="#DDE8E8"/>
<path d="M87.6814 78.4388C87.6814 78.5708 87.6574 78.9068 87.6334 79.3628C87.1174 79.4348 86.5894 79.4948 86.2414 79.5188C85.8214 79.5428 85.5454 79.5428 85.1974 79.5308L85.3534 81.0668C86.0254 80.9708 86.9494 80.8508 87.5374 80.7788C87.5254 81.0668 87.5014 81.3548 87.4774 81.6308C86.7934 82.6388 85.5934 84.2228 84.9094 85.0628L85.8574 86.3708C86.2774 85.8068 86.8654 84.9308 87.3694 84.1748C87.3574 85.1828 87.3454 85.8788 87.3214 86.8148C87.3214 87.0068 87.3094 87.4388 87.2854 87.7028H88.9414C88.9054 87.4268 88.8694 86.9948 88.8574 86.7788C88.7854 85.6508 88.7854 84.6428 88.7854 83.6588C88.7854 83.3468 88.7974 82.9988 88.8094 82.6508C89.8174 81.7268 90.9334 81.1148 92.2054 81.1148C93.4054 81.1148 94.1614 81.9788 94.1614 82.9148C94.1734 84.7868 92.6614 85.6508 90.5494 85.9628L91.2694 87.4148C94.2454 86.8268 95.7694 85.3748 95.7694 82.9508C95.7574 81.0188 94.3054 79.7108 92.4574 79.7108C91.3774 79.7108 90.1414 80.0468 88.9294 80.9468C88.9414 80.8388 88.9414 80.7188 88.9534 80.6108C89.1574 80.2988 89.3974 79.9028 89.5654 79.6868L89.1214 79.1228C89.2174 78.3668 89.3134 77.7548 89.3854 77.4188L87.6334 77.3588C87.6934 77.7308 87.6814 78.0908 87.6814 78.4388Z" fill="#DDE8E8"/>
<path d="M98.8774 78.7508V82.1708L98.7334 84.4988H97.5814L97.4254 82.1708V78.7508H98.8774ZM98.3374 85.4468C98.5294 85.4468 98.6614 85.4828 98.7334 85.5548C98.8134 85.6268 98.8534 85.7628 98.8534 85.9628V86.5628C98.8534 86.7628 98.8134 86.9028 98.7334 86.9828C98.6614 87.0548 98.5294 87.0908 98.3374 87.0908H97.9774C97.7854 87.0908 97.6494 87.0548 97.5694 86.9828C97.4974 86.9028 97.4614 86.7628 97.4614 86.5628V85.9628C97.4614 85.7628 97.4974 85.6268 97.5694 85.5548C97.6494 85.4828 97.7854 85.4468 97.9774 85.4468H98.3374Z" fill="#DDE8E8"/>
</g>
<defs>
<filter id="filter0_d" x="25.9775" y="23.2984" width="10.9995" height="6.82686" filterUnits="userSpaceOnUse" color-interpolation-filters="sRGB">
<feFlood flood-opacity="0" result="BackgroundImageFix"/>
<feColorMatrix in="SourceAlpha" type="matrix" values="0 0 0 0 0 0 0 0 0 0 0 0 0 0 0 0 0 0 127 0"/>
<feOffset/>
<feGaussianBlur stdDeviation="1"/>
<feColorMatrix type="matrix" values="0 0 0 0 0.443137 0 0 0 0 0.803922 0 0 0 0 0.972549 0 0 0 0.25 0"/>
<feBlend mode="normal" in2="BackgroundImageFix" result="effect1_dropShadow"/>
<feBlend mode="normal" in="SourceGraphic" in2="effect1_dropShadow" result="shape"/>
</filter>
<filter id="filter1_d" x="21.5826" y="23.2984" width="10.9995" height="6.82686" filterUnits="userSpaceOnUse" color-interpolation-filters="sRGB">
<feFlood flood-opacity="0" result="BackgroundImageFix"/>
<feColorMatrix in="SourceAlpha" type="matrix" values="0 0 0 0 0 0 0 0 0 0 0 0 0 0 0 0 0 0 127 0"/>
<feOffset/>
<feGaussianBlur stdDeviation="1"/>
<feColorMatrix type="matrix" values="0 0 0 0 0.443137 0 0 0 0 0.803922 0 0 0 0 0.972549 0 0 0 0.25 0"/>
<feBlend mode="normal" in2="BackgroundImageFix" result="effect1_dropShadow"/>
<feBlend mode="normal" in="SourceGraphic" in2="effect1_dropShadow" result="shape"/>
</filter>
<filter id="filter2_d" x="17.1875" y="23.2984" width="10.9995" height="6.82686" filterUnits="userSpaceOnUse" color-interpolation-filters="sRGB">
<feFlood flood-opacity="0" result="BackgroundImageFix"/>
<feColorMatrix in="SourceAlpha" type="matrix" values="0 0 0 0 0 0 0 0 0 0 0 0 0 0 0 0 0 0 127 0"/>
<feOffset/>
<feGaussianBlur stdDeviation="1"/>
<feColorMatrix type="matrix" values="0 0 0 0 0.443137 0 0 0 0 0.803922 0 0 0 0 0.972549 0 0 0 0.25 0"/>
<feBlend mode="normal" in2="BackgroundImageFix" result="effect1_dropShadow"/>
<feBlend mode="normal" in="SourceGraphic" in2="effect1_dropShadow" result="shape"/>
</filter>
<filter id="filter3_d" x="9.6875" y="21.1592" width="84" height="41.5" filterUnits="userSpaceOnUse" color-interpolation-filters="sRGB">
<feFlood flood-opacity="0" result="BackgroundImageFix"/>
<feColorMatrix in="SourceAlpha" type="matrix" values="0 0 0 0 0 0 0 0 0 0 0 0 0 0 0 0 0 0 127 0"/>
<feOffset/>
<feGaussianBlur stdDeviation="1"/>
<feColorMatrix type="matrix" values="0 0 0 0 0.443137 0 0 0 0 0.803922 0 0 0 0 0.972549 0 0 0 0.25 0"/>
<feBlend mode="normal" in2="BackgroundImageFix" result="effect1_dropShadow"/>
<feBlend mode="normal" in="SourceGraphic" in2="effect1_dropShadow" result="shape"/>
</filter>
<filter id="filter4_d" x="36.4165" y="33.8987" width="39.999" height="13.982" filterUnits="userSpaceOnUse" color-interpolation-filters="sRGB">
<feFlood flood-opacity="0" result="BackgroundImageFix"/>
<feColorMatrix in="SourceAlpha" type="matrix" values="0 0 0 0 0 0 0 0 0 0 0 0 0 0 0 0 0 0 127 0"/>
<feOffset/>
<feGaussianBlur stdDeviation="1"/>
<feColorMatrix type="matrix" values="0 0 0 0 0.858824 0 0 0 0 0.32549 0 0 0 0 0.576471 0 0 0 1 0"/>
<feBlend mode="normal" in2="BackgroundImageFix" result="effect1_dropShadow"/>
<feBlend mode="normal" in="SourceGraphic" in2="effect1_dropShadow" result="shape"/>
</filter>
<filter id="filter5_d" x="87.023" y="63.48" width="10.9995" height="6.82686" filterUnits="userSpaceOnUse" color-interpolation-filters="sRGB">
<feFlood flood-opacity="0" result="BackgroundImageFix"/>
<feColorMatrix in="SourceAlpha" type="matrix" values="0 0 0 0 0 0 0 0 0 0 0 0 0 0 0 0 0 0 127 0"/>
<feOffset/>
<feGaussianBlur stdDeviation="1"/>
<feColorMatrix type="matrix" values="0 0 0 0 0.443137 0 0 0 0 0.803922 0 0 0 0 0.972549 0 0 0 0.25 0"/>
<feBlend mode="normal" in2="BackgroundImageFix" result="effect1_dropShadow"/>
<feBlend mode="normal" in="SourceGraphic" in2="effect1_dropShadow" result="shape"/>
</filter>
<filter id="filter6_d" x="91.418" y="63.48" width="10.9995" height="6.82686" filterUnits="userSpaceOnUse" color-interpolation-filters="sRGB">
<feFlood flood-opacity="0" result="BackgroundImageFix"/>
<feColorMatrix in="SourceAlpha" type="matrix" values="0 0 0 0 0 0 0 0 0 0 0 0 0 0 0 0 0 0 127 0"/>
<feOffset/>
<feGaussianBlur stdDeviation="1"/>
<feColorMatrix type="matrix" values="0 0 0 0 0.443137 0 0 0 0 0.803922 0 0 0 0 0.972549 0 0 0 0.25 0"/>
<feBlend mode="normal" in2="BackgroundImageFix" result="effect1_dropShadow"/>
<feBlend mode="normal" in="SourceGraphic" in2="effect1_dropShadow" result="shape"/>
</filter>
<filter id="filter7_d" x="95.813" y="63.48" width="10.9995" height="6.82686" filterUnits="userSpaceOnUse" color-interpolation-filters="sRGB">
<feFlood flood-opacity="0" result="BackgroundImageFix"/>
<feColorMatrix in="SourceAlpha" type="matrix" values="0 0 0 0 0 0 0 0 0 0 0 0 0 0 0 0 0 0 127 0"/>
<feOffset/>
<feGaussianBlur stdDeviation="1"/>
<feColorMatrix type="matrix" values="0 0 0 0 0.443137 0 0 0 0 0.803922 0 0 0 0 0.972549 0 0 0 0.25 0"/>
<feBlend mode="normal" in2="BackgroundImageFix" result="effect1_dropShadow"/>
<feBlend mode="normal" in="SourceGraphic" in2="effect1_dropShadow" result="shape"/>
</filter>
<filter id="filter8_d" x="30.3125" y="61.3408" width="84" height="41.5" filterUnits="userSpaceOnUse" color-interpolation-filters="sRGB">
<feFlood flood-opacity="0" result="BackgroundImageFix"/>
<feColorMatrix in="SourceAlpha" type="matrix" values="0 0 0 0 0 0 0 0 0 0 0 0 0 0 0 0 0 0 127 0"/>
<feOffset/>
<feGaussianBlur stdDeviation="1"/>
<feColorMatrix type="matrix" values="0 0 0 0 0.443137 0 0 0 0 0.803922 0 0 0 0 0.972549 0 0 0 0.25 0"/>
<feBlend mode="normal" in2="BackgroundImageFix" result="effect1_dropShadow"/>
<feBlend mode="normal" in="SourceGraphic" in2="effect1_dropShadow" result="shape"/>
</filter>
<filter id="filter9_d" x="36.2294" y="75.3588" width="64.648" height="14.3899" filterUnits="userSpaceOnUse" color-interpolation-filters="sRGB">
<feFlood flood-opacity="0" result="BackgroundImageFix"/>
<feColorMatrix in="SourceAlpha" type="matrix" values="0 0 0 0 0 0 0 0 0 0 0 0 0 0 0 0 0 0 127 0"/>
<feOffset/>
<feGaussianBlur stdDeviation="1"/>
<feColorMatrix type="matrix" values="0 0 0 0 0.858824 0 0 0 0 0.32549 0 0 0 0 0.576471 0 0 0 1 0"/>
<feBlend mode="normal" in2="BackgroundImageFix" result="effect1_dropShadow"/>
<feBlend mode="normal" in="SourceGraphic" in2="effect1_dropShadow" result="shape"/>
</filter>
</defs>
</svg>
