<svg width="124" height="124" viewBox="0 0 124 124" fill="none" xmlns="http://www.w3.org/2000/svg">
<g filter="url(#filter0_d)">
<path fill-rule="evenodd" clip-rule="evenodd" d="M22.7731 19.7851L13.4139 28.7894L22.4182 38.1486L31.7774 29.1443L22.7731 19.7851ZM12.7206 28.0687L12 28.7621L12.6933 29.4827L21.6976 38.8419L22.3909 39.5625L23.1116 38.8692L32.4707 29.8649L33.0715 29.287H51.491C44.9518 31.8056 40.1488 36.5086 36.7633 41.1756C34.2806 44.598 32.5471 48.0164 31.4343 50.5776C30.8868 51.8378 30.4885 52.8927 30.2246 53.6414H26.5965L22.9254 57.4083V64.7417L26.5965 68.6288H34.2038L37.9128 64.7417V57.4083L34.2038 53.6414H31.5516C31.8006 52.96 32.1406 52.0862 32.5798 51.0753C33.6673 48.5723 35.3587 45.2387 37.7742 41.909C41.3018 37.0463 46.3461 32.2249 53.2904 29.9752V32.2691L56.9616 36.1562H64.5688L68.2778 32.2691V29.3086C77.0581 31.1261 83.0928 36.5038 87.0954 41.9137C89.5572 45.2408 91.2423 48.5716 92.3118 51.072C92.7451 52.0849 93.0767 52.96 93.3175 53.6414H90.2929L86.6217 57.4083V64.7417L90.2929 68.6288H97.9001L101.609 64.7417V57.4083L97.9001 53.6414H94.6394C94.3846 52.8921 93.9981 51.8386 93.4601 50.5808C92.3635 48.0171 90.6335 44.5958 88.0994 41.1708C84.642 36.4979 79.6728 31.8024 72.771 29.287H91.1166L91.5019 29.6875L100.506 39.0466L101.2 39.7673L101.92 39.074L111.279 30.0697L112 29.3764L111.307 28.6557L102.302 19.2965L101.609 18.5759L100.888 19.2692L91.774 28.038H68.3002L68.2778 28.0336V24.9357L64.5688 21.1688H56.9616L53.2904 24.9357V28.038H32.1008L23.4938 19.0918L22.8005 18.3711L22.0798 19.0644L12.7206 28.0687ZM54.2904 31.8715V25.3424L57.3833 22.1688H64.15L67.2778 25.3454V31.8685L64.1408 35.1562H57.3926L54.2904 31.8715ZM23.9254 64.3441V57.815L27.0183 54.6414H33.785L36.9128 57.818V64.3412L33.7758 67.6288H27.0276L23.9254 64.3441ZM48.9043 93.8272H78.128V104.629H48.9043V93.8272ZM47.9043 92.8272H48.9043H78.128H79.128V93.8272V104.629V105.629H78.128H48.9043H47.9043V104.629V93.8272V92.8272ZM87.6217 57.815V64.3441L90.7239 67.6288H97.4721L100.609 64.3412V57.818L97.4813 54.6414H90.7146L87.6217 57.815ZM92.2226 28.9942L101.582 19.9899L110.586 29.349L101.227 38.3533L92.2226 28.9942ZM60.2693 46.5381V44.8523L59.3502 46.2654L40.616 75.0693L40.4607 75.3081L40.5869 75.5635L47.4561 89.458L47.5938 89.7364H47.9043H78.3474H78.7065L78.8212 89.3961L83.5048 75.5016L83.5821 75.2722L83.4501 75.0693L64.7159 46.2654L63.7968 44.8523V46.5381V66.287V66.4352L63.8774 66.5594L68.5795 73.7991L62.2613 80.4013L55.7181 73.787L60.1946 66.5501L60.2693 66.4292V66.287V46.5381ZM48.2149 88.7364L41.6096 75.3757L59.2693 48.2238V66.1449L54.6606 73.5957L54.4535 73.9305L54.7303 74.2104L61.9118 81.4699L62.2732 81.8352L62.6285 81.464L69.5757 74.2045L69.8495 73.9184L69.6338 73.5864L64.7968 66.1389V48.2238L82.4799 75.4116L77.9883 88.7364H48.2149Z" fill="#DDE8E8"/>
</g>
<defs>
<filter id="filter0_d" x="10" y="16.3711" width="104" height="91.2577" filterUnits="userSpaceOnUse" color-interpolation-filters="sRGB">
<feFlood flood-opacity="0" result="BackgroundImageFix"/>
<feColorMatrix in="SourceAlpha" type="matrix" values="0 0 0 0 0 0 0 0 0 0 0 0 0 0 0 0 0 0 127 0"/>
<feOffset/>
<feGaussianBlur stdDeviation="1"/>
<feColorMatrix type="matrix" values="0 0 0 0 0.45098 0 0 0 0 0.117647 0 0 0 0 0.8 0 0 0 1 0"/>
<feBlend mode="normal" in2="BackgroundImageFix" result="effect1_dropShadow"/>
<feBlend mode="normal" in="SourceGraphic" in2="effect1_dropShadow" result="shape"/>
</filter>
</defs>
</svg>
