<?xml version="1.0" encoding="utf-8"?>
<!-- Generator: Adobe Illustrator 25.0.0, SVG Export Plug-In . SVG Version: 6.00 Build 0)  -->
<svg version="1.1" id="Camada_1" xmlns="http://www.w3.org/2000/svg" xmlns:xlink="http://www.w3.org/1999/xlink" x="0px" y="0px"
	 viewBox="0 0 3763.98 2079.68" style="enable-background:new 0 0 3763.98 2079.68;" xml:space="preserve">
<style type="text/css">
	.st0{fill:#481380;}
	.st1{fill:#C6D8D9;}
	.st2{fill:url(#SVGID_1_);}
	.st3{fill:url(#SVGID_2_);}
	.st4{fill:url(#SVGID_3_);}
	.st5{fill:url(#SVGID_4_);}
	.st6{fill:url(#SVGID_5_);}
	.st7{fill:url(#SVGID_6_);}
	.st8{fill:url(#SVGID_7_);}
	.st9{fill:url(#SVGID_8_);}
	.st10{fill:url(#SVGID_9_);}
	.st11{fill:url(#SVGID_10_);}
	.st12{fill:url(#SVGID_11_);}
	.st13{fill:url(#SVGID_12_);}
	.st14{fill:url(#SVGID_13_);}
	.st15{fill:url(#SVGID_14_);}
	.st16{fill:url(#SVGID_15_);}
	.st17{fill:url(#SVGID_16_);}
	.st18{fill:#DB5393;}
	.st19{fill:#4DC0F6;}
	.st20{clip-path:url(#SVGID_18_);}
	.st21{clip-path:url(#SVGID_20_);}
	.st22{fill:url(#SVGID_23_);}
	.st23{fill:url(#SVGID_24_);}
	.st24{fill:url(#SVGID_25_);}
	.st25{fill:url(#SVGID_26_);}
	.st26{fill:url(#SVGID_27_);}
	.st27{fill:url(#SVGID_28_);}
	.st28{fill:url(#SVGID_29_);}
	.st29{fill:url(#SVGID_30_);}
	.st30{fill:url(#SVGID_31_);}
	.st31{fill:url(#SVGID_32_);}
	.st32{fill:url(#SVGID_33_);}
	.st33{fill:url(#SVGID_34_);}
	.st34{fill:url(#SVGID_35_);}
	.st35{fill:url(#SVGID_36_);}
	.st36{fill:url(#SVGID_37_);}
	.st37{fill:url(#SVGID_38_);}
	.st38{fill:url(#SVGID_39_);}
</style>
<g>
	<g>
		<path class="st1" d="M1048.18,1204.93v170.71c0,13.26-10.75,24-24,24H865.72c-13.24,0-23.98-10.73-23.98-24v-170.71h47.99v146.73
			h110.47v-146.73H1048.18z"/>
		<path class="st1" d="M1370.56,1204.93v47.98h-58.68v146.73h-47.99v-146.73h-33.63l-23.98,41.54l-46.22,80.07
			c-0.37,0.68-0.76,1.36-1.16,2.01c-8.41,13.85-23.63,23.11-41.02,23.11h-45.71v-47.99h45.69l23.98-41.54l46.24-80.05
			c0.37-0.68,0.76-1.36,1.16-2.01c8.41-13.85,23.65-23.11,41.02-23.11H1370.56z"/>
		<polygon class="st1" points="1678.83,1343.19 1598.81,1204.91 1543.17,1204.95 1655.85,1399.64 1701.55,1399.65 1814.08,1204.94 
			1758.57,1204.93 		"/>
		<path class="st1" d="M1612.35,1399.64h-55.67l-60.94-105.6l-23.98-41.54h-29.24v147.14h-47.98v-195.13h77.23
			c17.38,0,32.61,9.26,41.02,23.11c0.41,0.66,0.79,1.33,1.16,2.01L1612.35,1399.64z"/>
		<path class="st1" d="M2037.38,1226.46c-1.24-12.11-11.44-21.52-23.85-21.52h-158.42c-12.42,0-22.65,9.41-23.89,21.52
			c-0.08,0.79-0.11,1.62-0.11,2.45v146.72c0,13.28,10.72,24,23.96,24h158.46c13.24,0,23.96-10.72,23.96-24v-146.72
			C2037.5,1228.08,2037.46,1227.25,2037.38,1226.46z M1989.53,1351.63h-110.49v-98.72h110.49V1351.63z"/>
		<path class="st1" d="M653.45,1252.91v98.76h110.47v-37.04h47.98v61.02c0,13.26-10.73,24-23.98,24H629.45
			c-13.24,0-23.98-10.73-23.98-24v-146.71c0-13.24,10.74-24,23.98-24H811.9v47.98H653.45z"/>
		<path class="st1" d="M2205.46,1252.91v98.76l158.46-0.02v47.99h-182.46c-13.24,0-23.98-10.75-23.98-24v-147.14
			c0-11.69,8.37-21.45,19.46-23.57h186.98v47.98H2205.46z"/>
		<path class="st1" d="M2594.21,1226.46c-1.24-12.11-11.44-21.52-23.85-21.52h-158.42c-12.42,0-22.65,9.41-23.89,21.52
			c-0.08,0.79-0.11,1.62-0.11,2.45v146.72c0,13.24,10.72,24,23.96,24h158.46c13.24,0,23.97-10.76,23.97-24v-146.72
			C2594.32,1228.08,2594.28,1227.25,2594.21,1226.46z M2546.35,1351.63h-110.49v-98.72h110.49V1351.63z"/>
		<path class="st1" d="M2916.72,1204.93v47.98h-58.69v146.73h-47.98v-146.73h-33.63l-23.98,41.54l-46.22,80.07
			c-0.37,0.68-0.76,1.36-1.16,2.01c-8.41,13.85-23.65,23.11-41.02,23.11h-45.71v-47.99h45.69l23.98-41.52l46.22-80.07
			c0.37-0.68,0.76-1.36,1.16-2.01c8.41-13.85,23.65-23.11,41.02-23.11H2916.72z"/>
		<path class="st1" d="M3158.51,1399.64h-55.67l-60.96-105.6l-23.98-41.56h-29.22v147.16h-47.98v-195.13h77.21
			c17.39,0,32.61,9.24,41.02,23.09c0.41,0.66,0.79,1.33,1.16,2.01L3158.51,1399.64z"/>
	</g>
	<g>
		<g>
			<g>
				<g>
					
						<linearGradient id="SVGID_1_" gradientUnits="userSpaceOnUse" x1="5975.6636" y1="-623.6633" x2="6579.8267" y2="-623.6633" gradientTransform="matrix(0.7071 -0.7071 0.7071 0.7071 -2116.0386 5635.4912)">
						<stop  offset="0" style="stop-color:#DB5393"/>
						<stop  offset="1" style="stop-color:#4DC0F6"/>
					</linearGradient>
					<path class="st2" d="M2095.61,541.86c-44.4-44.4-111.89-53.29-165.92-22.52l-6.89,4.14c-13.85,8.53-27.45,17.49-40.79,26.87
						c-11.31,7.92-22.48,16.17-33.41,24.7c-10.49,8.1-20.77,16.52-30.87,25.2c-16.27,13.96-32.01,28.55-47.22,43.72l-1.04,1.04
						c-24.23,24.34-46.97,50.11-67.95,77.09c-8.49,10.92-16.74,22.02-24.66,33.33c-9.71,13.85-18.95,27.95-27.77,42.33
						c-0.32,0.46-0.61,0.96-0.93,1.46c-3.28,5.35-6.17,10.89-8.67,16.49c-6.39,14.45-10.14,29.62-11.31,44.86
						c-3.11,39.22,10.71,79.02,40.22,108.5c45.4,45.43,115.21,53.68,169.85,20.2c0.5-0.32,1-0.61,1.5-0.93
						c14.35-8.78,28.45-18.06,42.26-27.73c11.35-7.96,22.48-16.2,33.41-24.73c10.49-8.14,20.81-16.56,30.91-25.23
						c16.24-13.95,31.98-28.52,47.15-43.68l1.04-1.04c24.23-24.34,46.97-50.11,67.92-77.09c8.53-10.92,16.74-22.06,24.7-33.37
						c9.39-13.35,18.34-27.02,26.87-40.86l4.18-6.92c2.32-4.1,4.42-8.28,6.32-12.53c6.39-14.42,10.17-29.55,11.35-44.79
						C2138.98,611.14,2125.17,571.41,2095.61,541.86z M2092.69,668.21c-2.32,7.64-5.6,15.1-9.89,22.2l-3.89,6.25v0.07
						c-5.32,8.57-10.81,17.02-16.49,25.38c-7.64,11.31-15.6,22.45-23.84,33.37c-22.24,29.48-46.61,57.5-72.88,83.73
						c-11.42,11.42-23.2,22.48-35.23,33.16c-15.67,13.88-31.84,27.12-48.5,39.65c-0.46,0.39-0.93,0.75-1.43,1.11
						c-10.46,7.85-21.09,15.45-31.91,22.77c-9.78,6.6-19.67,12.99-29.69,19.17l-0.5,0.32l-0.5,0.29
						c-39.15,24.13-89.22,18.24-121.77-14.35c-15.92-15.92-25.48-36.05-28.23-57.03c-1.89-13.78-0.79-27.91,3.35-41.51
						c2.43-8.03,5.93-15.85,10.49-23.27l0.64-0.96c6.14-10.03,12.49-19.92,19.13-29.69c7.64-11.31,15.6-22.45,23.84-33.37
						c22.23-29.48,46.58-57.46,72.88-83.73c11.42-11.42,23.2-22.52,35.3-33.23c15.63-13.85,31.76-27.05,48.4-39.62
						c0.46-0.36,0.96-0.75,1.46-1.11c10.46-7.85,21.13-15.45,31.94-22.77c8.35-5.67,16.81-11.13,25.38-16.45l6.28-3.89
						c39.01-23.45,88.44-17.38,120.81,14.95c15.95,15.95,25.52,36.08,28.27,57.03C2097.93,640.47,2096.83,654.61,2092.69,668.21z"/>
				</g>
			</g>
		</g>
		<g>
			<g>
				<g>
					<linearGradient id="SVGID_2_" gradientUnits="userSpaceOnUse" x1="1579.8953" y1="755.4501" x2="2184.0891" y2="755.4501">
						<stop  offset="0" style="stop-color:#DB5393"/>
						<stop  offset="1" style="stop-color:#4DC0F6"/>
					</linearGradient>
					<path class="st3" d="M2135.84,650.36c-11.64-9.96-24.98-18.02-39.72-23.7c-4.35-1.68-8.82-3.18-13.42-4.42l-7.82-1.96
						c-42.11-9.99-85.16-16.7-128.59-20.02c-20.88-1.61-41.86-2.43-62.85-2.46h-2.93c-20.99,0.04-41.94,0.86-62.78,2.46
						c-44.08,3.35-87.69,10.21-130.3,20.41c-0.57,0.14-1.14,0.29-1.71,0.43c-6.14,1.46-12.1,3.35-17.84,5.57
						c-14.7,5.67-28.05,13.74-39.65,23.66c-29.94,25.52-48.32,63.42-48.32,105.14s18.34,79.62,48.29,105.11
						c11.63,9.96,25.02,18.02,39.76,23.7c5.75,2.25,11.67,4.1,17.81,5.57c0.57,0.18,1.14,0.28,1.71,0.43
						c42.61,10.21,86.19,17.02,130.23,20.38c20.88,1.61,41.83,2.43,62.85,2.46h2.89c21.02-0.04,42.01-0.86,62.89-2.46
						c43.43-3.32,86.48-10.03,128.59-20.02l7.85-1.96c4.57-1.25,9.03-2.71,13.35-4.43c14.74-5.67,28.09-13.71,39.69-23.63
						c29.94-25.48,48.29-63.39,48.29-105.14S2165.74,675.84,2135.84,650.36z M2124.49,815.78c-8.46,11.06-19.27,20.27-31.8,26.95
						c-7.03,3.75-14.63,6.71-22.7,8.71l-7.17,1.68l-0.03,0.03c-22.48,5.25-45.29,9.53-68.28,12.78c-21.2,3-42.58,5.18-64.03,6.42
						c-16.1,1-32.26,1.5-48.47,1.5s-32.37-0.5-48.47-1.5c-21.49-1.25-42.86-3.43-64.06-6.46c-24.66-3.46-49.11-8.1-73.2-13.88
						l-0.57-0.14l-0.57-0.14c-8.46-2-16.45-5.03-23.84-8.96c-12.56-6.71-23.34-15.95-31.8-27.05
						c-12.88-16.77-20.34-37.76-20.34-60.24c0-22.52,7.46-43.51,20.38-60.28c8.42-11.06,19.24-20.31,31.76-27.02
						c7.39-3.93,15.38-6.96,23.84-8.96l1.14-0.29c24.09-5.78,48.54-10.42,73.2-13.92c21.2-3.03,42.61-5.21,64.1-6.5
						c16.1-0.96,32.26-1.46,48.43-1.46s32.34,0.5,48.43,1.5c21.45,1.29,42.83,3.43,64.06,6.46c22.98,3.25,45.79,7.53,68.28,12.78
						l7.17,1.68c8.07,2.03,15.67,5,22.73,8.74c12.56,6.67,23.34,15.92,31.8,26.95c12.88,16.81,20.34,37.76,20.34,60.32
						C2144.83,778.06,2137.37,799.01,2124.49,815.78z"/>
				</g>
			</g>
		</g>
		<g>
			<g>
				<g>
					
						<linearGradient id="SVGID_3_" gradientUnits="userSpaceOnUse" x1="-553.1672" y1="4838.9185" x2="50.9969" y2="4838.9185" gradientTransform="matrix(0.7071 0.7071 -0.7071 0.7071 5481.1592 -2488.6289)">
						<stop  offset="0" style="stop-color:#DB5393"/>
						<stop  offset="1" style="stop-color:#4DC0F6"/>
					</linearGradient>
					<path class="st4" d="M2135.8,860.61c-1.18-15.24-4.93-30.37-11.31-44.83c-1.89-4.28-4.03-8.49-6.39-12.63l-4.14-6.85
						c-8.53-13.85-17.49-27.48-26.84-40.83c-7.92-11.31-16.13-22.45-24.7-33.37c-20.95-26.98-43.65-52.75-67.92-77.09l-1.04-1.04
						c-15.2-15.2-30.94-29.76-47.18-43.72c-10.1-8.64-20.41-17.1-30.91-25.23c-10.92-8.49-22.06-16.74-33.37-24.66
						c-13.85-9.71-27.94-18.99-42.29-27.77c-0.5-0.32-1-0.64-1.5-0.93c-54.64-33.48-124.41-25.2-169.85,20.2
						c-29.48,29.48-43.29,69.24-40.15,108.46c1.18,15.24,4.93,30.41,11.31,44.86c2.5,5.64,5.39,11.13,8.67,16.52
						c0.29,0.53,0.61,1.04,0.93,1.5c8.78,14.35,18.06,28.41,27.73,42.22c7.92,11.31,16.17,22.45,24.7,33.41
						c20.95,26.95,43.65,52.71,67.92,77.05c0.32,0.36,0.68,0.71,1.04,1.07c15.17,15.17,30.94,29.73,47.18,43.68
						c10.1,8.67,20.41,17.1,30.94,25.23c10.92,8.57,22.06,16.77,33.37,24.73c13.35,9.35,26.98,18.34,40.83,26.87l6.92,4.14
						c54.07,30.73,121.45,21.81,165.82-22.56C2125.09,939.56,2138.94,899.8,2135.8,860.61z M2067.81,941.31
						c-32.34,32.34-81.73,38.4-120.74,14.95l-6.28-3.89h-0.04c-8.53-5.32-16.99-10.82-25.34-16.49
						c-10.85-7.28-21.52-14.88-31.98-22.77c-0.5-0.36-1-0.71-1.46-1.11c-16.63-12.53-32.8-25.77-48.43-39.65
						c-12.06-10.67-23.84-21.74-35.26-33.16c-26.3-26.3-50.64-54.28-72.88-83.73c-8.24-10.92-16.2-22.06-23.88-33.37
						c-6.6-9.78-12.95-19.67-19.09-29.69l-0.32-0.5l-0.32-0.46c-4.57-7.42-8.07-15.24-10.49-23.27c-4.14-13.6-5.25-27.73-3.43-41.51
						c2.78-20.99,12.31-41.08,28.27-57.03c32.58-32.58,82.69-38.47,121.81-14.35l1,0.61c10.03,6.14,19.91,12.53,29.66,19.17
						c10.82,7.28,21.45,14.88,31.91,22.73c0.5,0.36,1,0.75,1.46,1.11c16.63,12.53,32.8,25.77,48.47,39.65
						c12.06,10.67,23.8,21.74,35.26,33.19c26.27,26.23,50.64,54.25,72.88,83.73c8.24,10.92,16.2,22.06,23.84,33.37
						c5.67,8.35,11.17,16.81,16.49,25.38l3.85,6.28c4.28,7.1,7.57,14.6,9.92,22.23c4.14,13.6,5.25,27.73,3.43,41.51
						C2093.33,905.22,2083.77,925.35,2067.81,941.31z"/>
				</g>
			</g>
		</g>
		<g>
			<linearGradient id="SVGID_4_" gradientUnits="userSpaceOnUse" x1="1817.0546" y1="755.4676" x2="1946.9298" y2="755.4676">
				<stop  offset="0" style="stop-color:#DB5393"/>
				<stop  offset="1" style="stop-color:#4DC0F6"/>
			</linearGradient>
			<path class="st5" d="M1946.93,755.47c0,35.8-29.12,64.92-64.92,64.92c-35.83,0-64.96-29.12-64.96-64.92s29.12-64.92,64.96-64.92
				C1917.81,690.55,1946.93,719.67,1946.93,755.47z"/>
		</g>
	</g>
	<g>
		<path class="st1" d="M925.88,1577.2v-33.51l-17.71,33.51h-12.36l-17.71-33.51v33.51h-12.88v-47.71h17.5l19.27,36.11l19.27-36.11
			h17.43v47.71H925.88z"/>
		<path class="st1" d="M1026.67,1567.86c-1.19,2.1-2.95,3.95-5.31,5.52c-2.37,1.58-5.31,2.82-8.84,3.73
			c-3.53,0.91-7.66,1.37-12.38,1.37c-4.72,0-8.86-0.46-12.41-1.37c-3.55-0.91-6.52-2.16-8.88-3.73c-2.36-1.57-4.13-3.41-5.31-5.52
			c-1.18-2.11-1.77-4.35-1.77-6.74v-31.63h12.85v27.01c0,1.6,0.21,3.11,0.61,4.53c0.4,1.42,1.17,2.67,2.29,3.73
			c1.13,1.07,2.69,1.91,4.73,2.53c2.02,0.62,4.66,0.94,7.89,0.94c3.22,0,5.84-0.31,7.85-0.94c2.02-0.62,3.59-1.47,4.7-2.53
			c1.13-1.07,1.88-2.31,2.28-3.73c0.4-1.42,0.59-2.93,0.59-4.53v-27.01h12.88v31.63
			C1028.44,1563.51,1027.85,1565.75,1026.67,1567.86z"/>
		<path class="st1" d="M1061.51,1577.2v-47.71h12.88v37.26h34.83v10.45H1061.51z"/>
		<path class="st1" d="M1160.24,1539.87v37.33h-12.88v-37.33h-20.25v-10.38h53.4v10.38H1160.24z"/>
		<path class="st1" d="M1207.52,1577.2v-47.71h12.88v47.71H1207.52z"/>
		<path class="st1" d="M1312.26,1553.31c0,3.06-0.33,5.77-1,8.14c-0.67,2.37-1.61,4.44-2.83,6.2c-1.21,1.76-2.67,3.25-4.37,4.48
			c-1.7,1.23-3.6,2.21-5.68,2.95c-2.09,0.74-4.33,1.28-6.74,1.62c-2.41,0.33-4.92,0.5-7.54,0.5h-30.28v-47.71h30.21
			c2.61,0,5.12,0.17,7.54,0.51c2.41,0.33,4.66,0.87,6.75,1.61c2.09,0.74,4,1.72,5.71,2.93c1.71,1.21,3.18,2.71,4.39,4.48
			c1.22,1.77,2.16,3.84,2.83,6.2C1311.92,1547.58,1312.26,1550.28,1312.26,1553.31z M1299.27,1553.31c0-2.29-0.29-4.28-0.88-5.97
			c-0.59-1.69-1.54-3.09-2.85-4.19c-1.31-1.1-3.01-1.92-5.12-2.46s-4.67-0.82-7.71-0.82h-16.01v26.95h16.01
			c3.04,0,5.6-0.27,7.71-0.81c2.11-0.54,3.81-1.38,5.12-2.5c1.31-1.12,2.26-2.53,2.85-4.22
			C1298.98,1557.59,1299.27,1555.6,1299.27,1553.31z"/>
		<path class="st1" d="M1342.49,1577.2v-47.71h12.88v47.71H1342.49z"/>
		<path class="st1" d="M1432.75,1542.93c-0.91-0.44-2.1-0.94-3.58-1.49c-1.48-0.56-3.16-1.08-5.04-1.58
			c-1.87-0.5-3.91-0.92-6.1-1.25c-2.2-0.33-4.46-0.5-6.77-0.5c-1.85,0-3.43,0.06-4.74,0.18c-1.31,0.11-2.41,0.27-3.3,0.45
			c-0.89,0.19-1.6,0.4-2.12,0.64c-0.53,0.24-0.92,0.49-1.2,0.75c-0.27,0.26-0.46,0.51-0.53,0.77c-0.08,0.26-0.12,0.49-0.12,0.69
			c0,0.7,0.34,1.3,1.04,1.82c0.7,0.52,1.64,0.99,2.85,1.39c1.2,0.41,2.6,0.79,4.2,1.15c1.59,0.36,3.29,0.73,5.08,1.11
			c1.79,0.38,3.65,0.8,5.56,1.25c1.91,0.45,3.76,0.98,5.56,1.58c1.79,0.6,3.49,1.3,5.08,2.1c1.6,0.8,3,1.73,4.2,2.79
			c1.2,1.07,2.15,2.29,2.85,3.68c0.69,1.39,1.04,2.98,1.04,4.76c0,2.29-0.4,4.26-1.22,5.9c-0.81,1.64-1.9,3.03-3.24,4.17
			c-1.35,1.13-2.92,2.04-4.71,2.73c-1.78,0.69-3.65,1.21-5.6,1.58c-1.96,0.37-3.94,0.61-5.94,0.73c-2,0.11-3.91,0.18-5.72,0.18
			c-4.72,0-9.09-0.39-13.11-1.16c-4.01-0.78-7.57-1.74-10.64-2.9v-11.39c3.17,1.76,6.79,3.14,10.85,4.13c4.06,1,8.4,1.5,13.04,1.5
			c2.73,0,4.96-0.14,6.68-0.43c1.72-0.29,3.07-0.66,4.04-1.11c0.97-0.45,1.63-0.94,1.98-1.48c0.35-0.53,0.53-1.04,0.53-1.53
			c0-0.76-0.35-1.43-1.04-1.99c-0.7-0.57-1.64-1.07-2.85-1.49c-1.21-0.43-2.61-0.82-4.2-1.18c-1.6-0.36-3.3-0.72-5.09-1.08
			c-1.79-0.36-3.64-0.75-5.53-1.16c-1.9-0.42-3.74-0.91-5.54-1.48c-1.8-0.57-3.49-1.23-5.08-1.98s-3-1.64-4.2-2.67
			c-1.2-1.03-2.15-2.22-2.85-3.58c-0.69-1.35-1.04-2.92-1.04-4.7c0-2.11,0.37-3.92,1.11-5.45c0.74-1.53,1.74-2.83,3.01-3.9
			c1.26-1.08,2.72-1.95,4.37-2.62c1.66-0.67,3.4-1.19,5.23-1.56c1.83-0.37,3.68-0.62,5.56-0.76c1.87-0.14,3.65-0.21,5.34-0.21
			c1.86,0,3.76,0.09,5.72,0.28c1.96,0.19,3.88,0.45,5.78,0.78c1.9,0.33,3.74,0.72,5.5,1.16c1.77,0.44,3.41,0.9,4.92,1.39V1542.93z"
			/>
		<path class="st1" d="M1514.92,1575.81c-1.69,0.56-3.44,1.04-5.24,1.44c-1.8,0.4-3.71,0.71-5.71,0.92c-2,0.21-4.15,0.32-6.44,0.32
			c-4.86,0-9.34-0.52-13.42-1.56c-4.09-1.04-7.61-2.61-10.56-4.7c-2.95-2.1-5.25-4.71-6.9-7.85s-2.47-6.8-2.47-10.99
			s0.82-7.85,2.47-10.99c1.64-3.14,3.94-5.75,6.9-7.85c2.95-2.1,6.47-3.67,10.56-4.7c4.08-1.04,8.56-1.56,13.42-1.56
			c2.29,0,4.44,0.1,6.44,0.31c2,0.21,3.9,0.51,5.71,0.92c1.8,0.4,3.55,0.88,5.24,1.44s3.37,1.18,5.04,1.88v11.6
			c-1.32-0.72-2.71-1.43-4.17-2.14c-1.45-0.7-3.07-1.34-4.83-1.91c-1.76-0.56-3.69-1.03-5.8-1.39c-2.11-0.36-4.48-0.54-7.12-0.54
			c-4.05,0-7.41,0.42-10.09,1.25c-2.67,0.83-4.81,1.94-6.41,3.33c-1.6,1.39-2.72,2.98-3.36,4.78c-0.65,1.79-0.97,3.65-0.97,5.57
			c0,1.28,0.14,2.53,0.42,3.77c0.27,1.24,0.74,2.41,1.39,3.51c0.65,1.1,1.49,2.11,2.53,3.04s2.34,1.72,3.89,2.39
			c1.55,0.67,3.36,1.2,5.43,1.58c2.07,0.38,4.46,0.57,7.17,0.57c2.64,0,5.01-0.17,7.12-0.5c2.11-0.33,4.04-0.78,5.8-1.34
			s3.37-1.19,4.83-1.9c1.46-0.7,2.85-1.43,4.17-2.17v11.6C1518.29,1574.63,1516.61,1575.26,1514.92,1575.81z"/>
		<path class="st1" d="M1550.46,1577.2v-47.71h12.88v47.71H1550.46z"/>
		<path class="st1" d="M1650.37,1545.78c0,2.39-0.34,4.58-1.04,6.58c-0.7,2-1.81,3.73-3.36,5.18c-1.54,1.45-3.53,2.57-5.99,3.38
			c-2.45,0.81-5.43,1.21-8.96,1.21h-21.39v15.07h-12.88v-47.71h34.27c3.52,0,6.51,0.4,8.96,1.2c2.46,0.8,4.45,1.92,5.99,3.37
			c1.55,1.45,2.66,3.17,3.36,5.16C1650.03,1541.2,1650.37,1543.39,1650.37,1545.78z M1637.36,1545.98c0-1.11-0.16-2.07-0.47-2.87
			c-0.31-0.8-0.83-1.45-1.55-1.96c-0.72-0.51-1.65-0.89-2.81-1.13s-2.58-0.37-4.27-0.37h-18.62v12.29h18.62
			c1.69,0,3.11-0.1,4.27-0.29c1.16-0.2,2.09-0.53,2.81-1.01c0.72-0.48,1.23-1.09,1.55-1.86
			C1637.2,1548.03,1637.36,1547.1,1637.36,1545.98z"/>
		<path class="st1" d="M1679.53,1577.2v-47.71h12.88v37.26h34.82v10.45H1679.53z"/>
		<path class="st1" d="M1756.04,1577.2v-47.71h12.88v47.71H1756.04z"/>
		<path class="st1" d="M1847.41,1577.2l-32.19-32.78v32.78h-12.88v-47.71h13.99l32.22,32.92v-32.92h12.82v47.71H1847.41z"/>
		<path class="st1" d="M1894.79,1577.2v-47.71h48.3v10.17h-35.07v7.89h33.26v10.17h-33.26v9.31h35.55v10.17H1894.79z"/>
		<path class="st1" d="M2032.93,1553.31c0,3.06-0.33,5.77-1,8.14c-0.68,2.37-1.61,4.44-2.83,6.2s-2.67,3.25-4.38,4.48
			c-1.7,1.23-3.59,2.21-5.68,2.95c-2.08,0.74-4.32,1.28-6.74,1.62c-2.41,0.33-4.92,0.5-7.54,0.5h-30.27v-47.71h30.2
			c2.62,0,5.13,0.17,7.54,0.51c2.41,0.33,4.66,0.87,6.75,1.61c2.1,0.74,4,1.72,5.72,2.93c1.71,1.21,3.17,2.71,4.39,4.48
			c1.22,1.77,2.15,3.84,2.83,6.2C2032.6,1547.58,2032.93,1550.28,2032.93,1553.31z M2019.95,1553.31c0-2.29-0.3-4.28-0.88-5.97
			c-0.59-1.69-1.55-3.09-2.85-4.19c-1.3-1.1-3.01-1.92-5.12-2.46c-2.11-0.54-4.68-0.82-7.71-0.82h-16.01v26.95h16.01
			c3.03,0,5.6-0.27,7.71-0.81c2.1-0.54,3.81-1.38,5.12-2.5c1.31-1.12,2.26-2.53,2.85-4.22
			C2019.65,1557.59,2019.95,1555.6,2019.95,1553.31z"/>
		<path class="st1" d="M2121.27,1539.66v8.3h31.01v10.17h-31.01v19.06h-12.88v-47.71h45.59v10.17H2121.27z"/>
		<path class="st1" d="M2196.35,1577.2h-12.88v-47.71h32.29c3.48,0,6.42,0.36,8.84,1.08c2.42,0.72,4.39,1.74,5.91,3.06
			c1.51,1.32,2.62,2.91,3.3,4.77c0.69,1.86,1.03,3.94,1.03,6.23c0,2.01-0.28,3.78-0.85,5.28c-0.56,1.5-1.33,2.79-2.29,3.87
			c-0.96,1.08-2.08,1.99-3.35,2.72c-1.27,0.74-2.62,1.35-4.03,1.84l15.62,18.85h-15.06l-14.45-17.57h-14.07V1577.2z
			 M2221.81,1544.56c0-0.92-0.12-1.71-0.37-2.36c-0.24-0.65-0.66-1.17-1.26-1.58c-0.6-0.4-1.41-0.7-2.41-0.88
			c-1.01-0.19-2.27-0.28-3.77-0.28h-17.64v10.21H2214c1.5,0,2.76-0.09,3.77-0.28c1-0.19,1.81-0.48,2.41-0.89
			c0.6-0.4,1.02-0.93,1.26-1.58C2221.68,1546.27,2221.81,1545.49,2221.81,1544.56z"/>
		<path class="st1" d="M2267.66,1577.2v-47.71h48.3v10.17h-35.07v7.89h33.26v10.17h-33.26v9.31h35.55v10.17H2267.66z"/>
		<path class="st1" d="M2347.37,1577.2v-47.71h48.3v10.17h-35.07v7.89h33.26v10.17h-33.26v9.31h35.55v10.17H2347.37z"/>
		<path class="st1" d="M2427.07,1577.2v-47.71h12.88v37.26h34.83v10.45H2427.07z"/>
		<path class="st1" d="M2541.92,1568.17h-26.6l-4.48,9.03h-14.38l24.97-47.71h14.38l24.97,47.71h-14.38L2541.92,1568.17z
			 M2519.94,1558.87h17.43l-8.68-17.57L2519.94,1558.87z"/>
		<path class="st1" d="M2632.15,1577.2l-32.19-32.78v32.78h-12.88v-47.71h13.99l32.22,32.92v-32.92h12.82v47.71H2632.15z"/>
		<path class="st1" d="M2727.06,1575.81c-1.69,0.56-3.44,1.04-5.24,1.44c-1.8,0.4-3.71,0.71-5.71,0.92c-2,0.21-4.15,0.32-6.44,0.32
			c-4.86,0-9.34-0.52-13.42-1.56c-4.09-1.04-7.61-2.61-10.56-4.7c-2.95-2.1-5.25-4.71-6.9-7.85c-1.64-3.14-2.47-6.8-2.47-10.99
			s0.82-7.85,2.47-10.99c1.64-3.14,3.94-5.75,6.9-7.85c2.95-2.1,6.47-3.67,10.56-4.7c4.08-1.04,8.56-1.56,13.42-1.56
			c2.29,0,4.44,0.1,6.44,0.31c2,0.21,3.9,0.51,5.71,0.92c1.8,0.4,3.55,0.88,5.24,1.44c1.69,0.56,3.37,1.18,5.04,1.88v11.6
			c-1.32-0.72-2.71-1.43-4.17-2.14c-1.45-0.7-3.07-1.34-4.83-1.91c-1.76-0.56-3.69-1.03-5.8-1.39c-2.11-0.36-4.48-0.54-7.12-0.54
			c-4.05,0-7.41,0.42-10.09,1.25s-4.81,1.94-6.41,3.33c-1.6,1.39-2.72,2.98-3.36,4.78c-0.65,1.79-0.97,3.65-0.97,5.57
			c0,1.28,0.14,2.53,0.42,3.77c0.27,1.24,0.74,2.41,1.39,3.51c0.65,1.1,1.49,2.11,2.53,3.04c1.04,0.92,2.34,1.72,3.89,2.39
			c1.55,0.67,3.36,1.2,5.43,1.58c2.07,0.38,4.46,0.57,7.17,0.57c2.64,0,5.01-0.17,7.12-0.5c2.11-0.33,4.04-0.78,5.8-1.34
			s3.37-1.19,4.83-1.9c1.46-0.7,2.85-1.43,4.17-2.17v11.6C2730.43,1574.63,2728.75,1575.26,2727.06,1575.81z"/>
		<path class="st1" d="M2762.6,1577.2v-47.71h48.3v10.17h-35.07v7.89h33.26v10.17h-33.26v9.31h35.55v10.17H2762.6z"/>
		<path class="st1" d="M2855.18,1577.2h-12.88v-47.71h32.29c3.48,0,6.42,0.36,8.84,1.08c2.42,0.72,4.39,1.74,5.91,3.06
			c1.51,1.32,2.62,2.91,3.3,4.77c0.69,1.86,1.03,3.94,1.03,6.23c0,2.01-0.28,3.78-0.85,5.28c-0.56,1.5-1.33,2.79-2.29,3.87
			c-0.96,1.08-2.08,1.99-3.35,2.72c-1.27,0.74-2.62,1.35-4.03,1.84l15.62,18.85h-15.06l-14.45-17.57h-14.07V1577.2z
			 M2880.64,1544.56c0-0.92-0.12-1.71-0.37-2.36c-0.24-0.65-0.66-1.17-1.26-1.58c-0.6-0.4-1.41-0.7-2.41-0.88
			c-1.01-0.19-2.27-0.28-3.77-0.28h-17.64v10.21h17.64c1.5,0,2.76-0.09,3.77-0.28c1-0.19,1.81-0.48,2.41-0.89
			c0.6-0.4,1.02-0.93,1.26-1.58C2880.51,1546.27,2880.64,1545.49,2880.64,1544.56z"/>
	</g>
</g>
</svg>
