<svg width="124" height="124" viewBox="0 0 124 124" fill="none" xmlns="http://www.w3.org/2000/svg">
<path fill-rule="evenodd" clip-rule="evenodd" d="M44.4508 81.9015H109.702V108.63L105.873 112H48.2801L44.4508 108.63V81.9015Z" fill="#6E2A4A"/>
<path d="M87.1433 62.3528C87.1433 67.6496 82.6438 72.0175 77 72.0175C71.3562 72.0175 66.8567 67.6496 66.8567 62.3528C66.8567 57.0561 71.3562 52.6882 77 52.6882C82.6438 52.6882 87.1433 57.0561 87.1433 62.3528Z" stroke="#13303E" stroke-width="2"/>
<path d="M74.8939 86.8797H79.2593V98.8271L77.1532 100.053L74.8939 98.8271V86.8797Z" fill="#13303E"/>
<g filter="url(#filter0_d)">
<path fill-rule="evenodd" clip-rule="evenodd" d="M45.8293 61.453H107.941L112 65.4355V81.7576C112 82.5444 111.528 83.2639 110.809 83.5828C84.3589 95.3123 70.0377 95.3521 43.1992 83.5804C42.4759 83.2632 42 82.5415 42 81.7517V65.4355L45.8293 61.453Z" fill="url(#paint0_linear)"/>
</g>
<rect x="18.4348" y="20.89" width="61.6646" height="31.8509" fill="#DDE8E8" stroke="url(#paint1_linear)" stroke-width="2"/>
<g filter="url(#filter1_d)">
<path fill-rule="evenodd" clip-rule="evenodd" d="M50.8199 59.4862H47.2484V66.701C45.7378 67.3823 44.6863 68.9015 44.6863 70.6663C44.6863 73.0676 46.6329 75.0142 49.0342 75.0142C51.4354 75.0142 53.382 73.0676 53.382 70.6663C53.382 68.9015 52.3305 67.3823 50.8199 66.701V59.4862Z" fill="#481380"/>
</g>
<g filter="url(#filter2_d)">
<path d="M83.4286 53.7409H15.1056V57.0794L18.8323 60.4179H79.7019L83.4286 57.0794V53.7409Z" fill="#481380"/>
</g>
<path d="M38.6581 26.8775C39.3908 26.8775 39.9728 26.974 40.4043 27.1671C40.8357 27.3601 41.1491 27.6767 41.3445 28.1169C41.5399 28.557 41.6376 29.14 41.6376 29.8658C41.6376 30.5917 41.5399 31.1747 41.3445 31.6148C41.1491 32.0549 40.8357 32.3715 40.4043 32.5646C39.9728 32.7576 39.3908 32.8542 38.6581 32.8542C37.9336 32.8542 37.3516 32.7576 36.912 32.5646C36.4806 32.3715 36.1672 32.0549 35.9718 31.6148C35.7846 31.1747 35.691 30.5917 35.691 29.8658C35.691 29.14 35.7846 28.557 35.9718 28.1169C36.1672 27.6767 36.4806 27.3601 36.912 27.1671C37.3516 26.974 37.9336 26.8775 38.6581 26.8775ZM38.6581 27.9431C38.3 27.9431 38.0151 28.001 37.8034 28.1169C37.5999 28.225 37.4534 28.418 37.3638 28.696C37.2743 28.974 37.2295 29.3639 37.2295 29.8658C37.2295 30.3677 37.2743 30.7577 37.3638 31.0357C37.4534 31.3137 37.5999 31.5067 37.8034 31.6148C38.0151 31.7229 38.3 31.777 38.6581 31.777C39.0245 31.777 39.3094 31.7229 39.5129 31.6148C39.7245 31.5067 39.8751 31.3137 39.9647 31.0357C40.0542 30.7577 40.099 30.3677 40.099 29.8658C40.099 29.3639 40.0542 28.974 39.9647 28.696C39.8751 28.418 39.7245 28.225 39.5129 28.1169C39.3094 28.001 39.0245 27.9431 38.6581 27.9431Z" fill="url(#paint2_linear)"/>
<path d="M44.2272 27.0165L44.3493 27.8968C44.6261 27.5956 44.9842 27.3524 45.4238 27.1671C45.8634 26.974 46.3071 26.8775 46.7548 26.8775C47.5037 26.8775 48.0369 27.1362 48.3544 27.6536C48.68 28.1709 48.8428 28.9199 48.8428 29.9006C48.8428 30.6496 48.7573 31.2403 48.5864 31.6727C48.4236 32.0974 48.1753 32.4024 47.8415 32.5877C47.5078 32.7653 47.0845 32.8542 46.5716 32.8542C46.1972 32.8542 45.8308 32.8078 45.4727 32.7152C45.1145 32.6225 44.7807 32.4758 44.4714 32.275C44.4877 32.4681 44.4958 32.665 44.4958 32.8657C44.5039 33.0665 44.508 33.2673 44.508 33.468V34.9622H43.0305V27.0165H44.2272ZM46.1931 27.9894C45.9 27.9894 45.6233 28.0474 45.3628 28.1632C45.1104 28.279 44.8255 28.445 44.508 28.6612V31.4874C44.8011 31.5723 45.0656 31.6418 45.3017 31.6959C45.5459 31.7499 45.8105 31.777 46.0954 31.777C46.3885 31.777 46.6245 31.7306 46.8036 31.638C46.9827 31.5376 47.113 31.3523 47.1944 31.082C47.2758 30.8117 47.3165 30.4218 47.3165 29.9122C47.3165 29.4103 47.2798 29.0203 47.2066 28.7423C47.1333 28.4643 47.0112 28.2713 46.8403 28.1632C46.6774 28.0474 46.4617 27.9894 46.1931 27.9894Z" fill="url(#paint3_linear)"/>
<path d="M52.9309 26.8775C53.8996 26.8775 54.5956 27.0397 55.0189 27.364C55.4422 27.6806 55.658 28.1516 55.6661 28.7771C55.6661 29.2944 55.5358 29.6882 55.2754 29.9585C55.0149 30.221 54.5793 30.3523 53.9688 30.3523H51.5633C51.6121 30.9005 51.7627 31.2635 52.0151 31.4411C52.2675 31.6187 52.6582 31.7075 53.1873 31.7075C53.4885 31.7075 53.8345 31.6959 54.2252 31.6727C54.6241 31.6496 55.0067 31.6187 55.373 31.5801L55.5196 32.4719C55.1939 32.6032 54.7951 32.6959 54.3229 32.7499C53.8508 32.8117 53.4153 32.8426 53.0164 32.8426C51.9174 32.8426 51.1359 32.6109 50.6719 32.1476C50.2161 31.6766 49.9881 30.916 49.9881 29.8658C49.9881 29.1168 50.0858 28.5261 50.2812 28.0937C50.4847 27.6536 50.8022 27.3408 51.2336 27.1555C51.6651 26.9702 52.2308 26.8775 52.9309 26.8775ZM52.992 27.92C52.6338 27.92 52.3529 27.9624 52.1494 28.0474C51.9459 28.1323 51.7953 28.2906 51.6976 28.5222C51.5999 28.7462 51.547 29.0666 51.5389 29.4836H53.5659C53.8426 29.4836 54.0177 29.4141 54.0909 29.2751C54.1723 29.1361 54.213 28.9663 54.213 28.7655C54.213 28.4566 54.1194 28.2404 53.9322 28.1169C53.7449 27.9856 53.4315 27.92 52.992 27.92Z" fill="url(#paint4_linear)"/>
<path d="M58.203 27.0165L58.3251 27.8968C58.7565 27.5648 59.192 27.3138 59.6316 27.1439C60.0712 26.9663 60.5067 26.8775 60.9381 26.8775C62.0534 26.8775 62.611 27.3987 62.611 28.4412V32.7036H61.1335V28.8697C61.1335 28.5609 61.0765 28.3485 60.9626 28.2327C60.8486 28.1169 60.6573 28.0589 60.3887 28.0589C60.1038 28.0589 59.8148 28.1169 59.5217 28.2327C59.2287 28.3408 58.8786 28.5029 58.4716 28.7192V32.7036H56.9941V27.0165H58.203Z" fill="url(#paint5_linear)"/>
<path d="M33.1123 40.7767C33.5275 40.7767 33.9833 40.796 34.4799 40.8346C34.9846 40.8655 35.4201 40.9118 35.7864 40.9736L35.6888 41.8886C35.3062 41.8809 34.9195 41.8732 34.5287 41.8654C34.138 41.85 33.7554 41.8423 33.3809 41.8423C33.039 41.8423 32.7745 41.85 32.5872 41.8654C32.4 41.8809 32.2657 41.9272 32.1843 42.0044C32.111 42.0816 32.0744 42.2129 32.0744 42.3982C32.0744 42.6299 32.1395 42.7805 32.2698 42.85C32.4 42.9194 32.6117 42.9889 32.9047 43.0584L34.541 43.4175C35.0294 43.5333 35.3916 43.7109 35.6277 43.9503C35.8638 44.182 35.9818 44.541 35.9818 45.0275C35.9818 45.4985 35.8882 45.8576 35.701 46.1047C35.5137 46.344 35.2248 46.5101 34.834 46.6027C34.4433 46.6877 33.9426 46.7301 33.3321 46.7301C33.0879 46.7301 32.7338 46.7185 32.2698 46.6954C31.8139 46.6799 31.3092 46.6297 30.7556 46.5448L30.8533 45.6298C31.1057 45.6375 31.415 45.6452 31.7813 45.6529C32.1558 45.6607 32.5425 45.6607 32.9414 45.6529C33.3647 45.6529 33.6943 45.6414 33.9304 45.6182C34.1665 45.5873 34.3293 45.5294 34.4188 45.4445C34.5084 45.3595 34.5532 45.2282 34.5532 45.0506C34.5532 44.8344 34.4758 44.6916 34.3212 44.6221C34.1746 44.5449 33.9548 44.4715 33.6618 44.402L32.0622 44.0314C31.5249 43.9001 31.1505 43.7071 30.9388 43.4522C30.7353 43.1897 30.6335 42.8268 30.6335 42.3635C30.6335 41.7457 30.8248 41.3249 31.2074 41.101C31.59 40.877 32.225 40.7689 33.1123 40.7767Z" fill="url(#paint6_linear)"/>
<path d="M40.0295 40.7767C40.7621 40.7767 41.3441 40.8732 41.7756 41.0662C42.207 41.2593 42.5204 41.5759 42.7158 42.016C42.9112 42.4561 43.0089 43.0391 43.0089 43.765C43.0089 44.4908 42.9112 45.0738 42.7158 45.514C42.5204 45.9541 42.207 46.2707 41.7756 46.4637C41.3441 46.6568 40.7621 46.7533 40.0295 46.7533C39.305 46.7533 38.7229 46.6568 38.2833 46.4637C37.8519 46.2707 37.5385 45.9541 37.3431 45.514C37.1559 45.0738 37.0623 44.4908 37.0623 43.765C37.0623 43.0391 37.1559 42.4561 37.3431 42.016C37.5385 41.5759 37.8519 41.2593 38.2833 41.0662C38.7229 40.8732 39.305 40.7767 40.0295 40.7767ZM40.0295 41.8423C39.6713 41.8423 39.3864 41.9002 39.1747 42.016C38.9712 42.1241 38.8247 42.3171 38.7351 42.5951C38.6456 42.8731 38.6008 43.2631 38.6008 43.765C38.6008 44.2669 38.6456 44.6568 38.7351 44.9348C38.8247 45.2128 38.9712 45.4058 39.1747 45.514C39.3864 45.6221 39.6713 45.6761 40.0295 45.6761C40.3958 45.6761 40.6807 45.6221 40.8842 45.514C41.0959 45.4058 41.2465 45.2128 41.336 44.9348C41.4256 44.6568 41.4703 44.2669 41.4703 43.765C41.4703 43.2631 41.4256 42.8731 41.336 42.5951C41.2465 42.3171 41.0959 42.1241 40.8842 42.016C40.6807 41.9002 40.3958 41.8423 40.0295 41.8423Z" fill="url(#paint7_linear)"/>
<path d="M45.8427 40.9157V44.7611C45.8346 45.0545 45.8915 45.263 46.0136 45.3865C46.1439 45.5024 46.3515 45.5603 46.6364 45.5603C46.905 45.5603 47.1696 45.5101 47.4301 45.4097C47.6987 45.3093 48.0162 45.1588 48.3825 44.958V40.9157H49.86V46.6027H48.6878L48.5657 45.7804C48.1342 46.1047 47.7109 46.3479 47.2958 46.5101C46.8887 46.6722 46.4695 46.7533 46.0381 46.7533C44.9228 46.7533 44.3652 46.2321 44.3652 45.1896V40.9157H45.8427Z" fill="url(#paint8_linear)"/>
<path d="M52.6686 40.9157L52.8151 41.7959C53.2303 41.4639 53.6495 41.2129 54.0728 41.0431C54.4961 40.8655 54.9072 40.7767 55.3061 40.7767H55.5991L55.4526 42.0739H55.0252C54.7322 42.0739 54.431 42.1202 54.1216 42.2129C53.8123 42.3056 53.4378 42.4368 52.9982 42.6067V46.6027H51.5208V40.9157H52.6686Z" fill="url(#paint9_linear)"/>
<path d="M59.1558 40.7767C59.4488 40.7767 59.7948 40.7998 60.1937 40.8462C60.5926 40.8848 60.9467 40.9658 61.256 41.0894L61.0851 41.9697C60.7839 41.9542 60.4827 41.9426 60.1815 41.9349C59.8884 41.9272 59.632 41.9233 59.4122 41.9233C58.997 41.9233 58.6673 41.9774 58.4231 42.0855C58.1871 42.1936 58.0161 42.3789 57.9103 42.6415C57.8045 42.904 57.7515 43.2746 57.7515 43.7534C57.7515 44.2321 57.8045 44.6066 57.9103 44.8769C58.0161 45.1394 58.1871 45.3248 58.4231 45.4329C58.6673 45.541 58.997 45.595 59.4122 45.595C59.5994 45.595 59.864 45.5873 60.2059 45.5719C60.5559 45.5564 60.8938 45.5294 61.2194 45.4908L61.3659 46.3942C61.0484 46.5178 60.6943 46.6066 60.3036 46.6606C59.9128 46.7147 59.5262 46.7417 59.1436 46.7417C58.4272 46.7417 57.8533 46.6452 57.4219 46.4521C56.9904 46.2591 56.677 45.9464 56.4816 45.514C56.2944 45.0738 56.2008 44.487 56.2008 43.7534C56.2008 43.0198 56.2944 42.4368 56.4816 42.0044C56.677 41.5643 56.9904 41.2515 57.4219 41.0662C57.8614 40.8732 58.4394 40.7767 59.1558 40.7767Z" fill="url(#paint10_linear)"/>
<path d="M65.1654 40.7767C66.1341 40.7767 66.8301 40.9388 67.2535 41.2631C67.6768 41.5797 67.8925 42.0508 67.9006 42.6762C67.9006 43.1936 67.7704 43.5874 67.5099 43.8576C67.2494 44.1202 66.8139 44.2514 66.2033 44.2514H63.7978C63.8467 44.7997 63.9973 45.1626 64.2496 45.3402C64.502 45.5178 64.8927 45.6066 65.4219 45.6066C65.723 45.6066 66.069 45.595 66.4598 45.5719C66.8586 45.5487 67.2412 45.5178 67.6076 45.4792L67.7541 46.3711C67.4285 46.5023 67.0296 46.595 66.5574 46.6491C66.0853 46.7108 65.6498 46.7417 65.2509 46.7417C64.1519 46.7417 63.3705 46.5101 62.9065 46.0468C62.4506 45.5757 62.2227 44.8151 62.2227 43.765C62.2227 43.016 62.3203 42.4253 62.5157 41.9928C62.7192 41.5527 63.0367 41.24 63.4681 41.0546C63.8996 40.8693 64.4653 40.7767 65.1654 40.7767ZM65.2265 41.8191C64.8683 41.8191 64.5875 41.8616 64.3839 41.9465C64.1804 42.0314 64.0298 42.1897 63.9321 42.4214C63.8345 42.6453 63.7815 42.9658 63.7734 43.3828H65.8004C66.0772 43.3828 66.2522 43.3133 66.3254 43.1743C66.4068 43.0353 66.4475 42.8654 66.4475 42.6646C66.4475 42.3558 66.3539 42.1395 66.1667 42.016C65.9795 41.8847 65.6661 41.8191 65.2265 41.8191Z" fill="url(#paint11_linear)"/>
<path d="M12.0776 67.7937L17.3571 18.4148H80.9441L87 67.0949L12.0776 67.7937Z" fill="url(#paint12_linear)" fill-opacity="0.25"/>
<path d="M12 13.2812C12 12.729 12.4477 12.2812 13 12.2812H85.5342C86.0864 12.2812 86.5342 12.729 86.5342 13.2813V19.8993C86.5342 20.4515 86.0864 20.8993 85.5342 20.8993H13C12.4477 20.8993 12 20.4515 12 19.8993V13.2812Z" fill="url(#paint13_linear)"/>
<defs>
<filter id="filter0_d" x="38" y="61.453" width="78" height="38.9416" filterUnits="userSpaceOnUse" color-interpolation-filters="sRGB">
<feFlood flood-opacity="0" result="BackgroundImageFix"/>
<feColorMatrix in="SourceAlpha" type="matrix" values="0 0 0 0 0 0 0 0 0 0 0 0 0 0 0 0 0 0 127 0"/>
<feOffset dy="4"/>
<feGaussianBlur stdDeviation="2"/>
<feColorMatrix type="matrix" values="0 0 0 0 0 0 0 0 0 0 0 0 0 0 0 0 0 0 0.25 0"/>
<feBlend mode="normal" in2="BackgroundImageFix" result="effect1_dropShadow"/>
<feBlend mode="normal" in="SourceGraphic" in2="effect1_dropShadow" result="shape"/>
</filter>
<filter id="filter1_d" x="44.6863" y="59.4862" width="12.6957" height="19.5279" filterUnits="userSpaceOnUse" color-interpolation-filters="sRGB">
<feFlood flood-opacity="0" result="BackgroundImageFix"/>
<feColorMatrix in="SourceAlpha" type="matrix" values="0 0 0 0 0 0 0 0 0 0 0 0 0 0 0 0 0 0 127 0"/>
<feOffset dx="2" dy="2"/>
<feGaussianBlur stdDeviation="1"/>
<feColorMatrix type="matrix" values="0 0 0 0 0 0 0 0 0 0 0 0 0 0 0 0 0 0 0.2 0"/>
<feBlend mode="normal" in2="BackgroundImageFix" result="effect1_dropShadow"/>
<feBlend mode="normal" in="SourceGraphic" in2="effect1_dropShadow" result="shape"/>
</filter>
<filter id="filter2_d" x="15.1056" y="53.7409" width="72.323" height="10.677" filterUnits="userSpaceOnUse" color-interpolation-filters="sRGB">
<feFlood flood-opacity="0" result="BackgroundImageFix"/>
<feColorMatrix in="SourceAlpha" type="matrix" values="0 0 0 0 0 0 0 0 0 0 0 0 0 0 0 0 0 0 127 0"/>
<feOffset dx="2" dy="2"/>
<feGaussianBlur stdDeviation="1"/>
<feColorMatrix type="matrix" values="0 0 0 0 0 0 0 0 0 0 0 0 0 0 0 0 0 0 0.2 0"/>
<feBlend mode="normal" in2="BackgroundImageFix" result="effect1_dropShadow"/>
<feBlend mode="normal" in="SourceGraphic" in2="effect1_dropShadow" result="shape"/>
</filter>
<linearGradient id="paint0_linear" x1="77" y1="61.453" x2="77" y2="92.3946" gradientUnits="userSpaceOnUse">
<stop stop-color="#6E2A4A"/>
<stop offset="1" stop-color="#A43E6E"/>
</linearGradient>
<linearGradient id="paint1_linear" x1="49.2671" y1="21.0674" x2="49.2671" y2="53.7409" gradientUnits="userSpaceOnUse">
<stop stop-color="#481380"/>
<stop offset="1" stop-color="#731ECC"/>
</linearGradient>
<linearGradient id="paint2_linear" x1="30.104" y1="25.3197" x2="65.3723" y2="49.0155" gradientUnits="userSpaceOnUse">
<stop stop-color="#DB5393"/>
<stop offset="1" stop-color="#4DC0F6"/>
</linearGradient>
<linearGradient id="paint3_linear" x1="30.104" y1="25.3197" x2="65.3723" y2="49.0155" gradientUnits="userSpaceOnUse">
<stop stop-color="#DB5393"/>
<stop offset="1" stop-color="#4DC0F6"/>
</linearGradient>
<linearGradient id="paint4_linear" x1="30.104" y1="25.3197" x2="65.3723" y2="49.0155" gradientUnits="userSpaceOnUse">
<stop stop-color="#DB5393"/>
<stop offset="1" stop-color="#4DC0F6"/>
</linearGradient>
<linearGradient id="paint5_linear" x1="30.104" y1="25.3197" x2="65.3723" y2="49.0155" gradientUnits="userSpaceOnUse">
<stop stop-color="#DB5393"/>
<stop offset="1" stop-color="#4DC0F6"/>
</linearGradient>
<linearGradient id="paint6_linear" x1="30.104" y1="25.3197" x2="65.3723" y2="49.0155" gradientUnits="userSpaceOnUse">
<stop stop-color="#DB5393"/>
<stop offset="1" stop-color="#4DC0F6"/>
</linearGradient>
<linearGradient id="paint7_linear" x1="30.104" y1="25.3197" x2="65.3723" y2="49.0155" gradientUnits="userSpaceOnUse">
<stop stop-color="#DB5393"/>
<stop offset="1" stop-color="#4DC0F6"/>
</linearGradient>
<linearGradient id="paint8_linear" x1="30.104" y1="25.3197" x2="65.3723" y2="49.0155" gradientUnits="userSpaceOnUse">
<stop stop-color="#DB5393"/>
<stop offset="1" stop-color="#4DC0F6"/>
</linearGradient>
<linearGradient id="paint9_linear" x1="30.104" y1="25.3197" x2="65.3723" y2="49.0155" gradientUnits="userSpaceOnUse">
<stop stop-color="#DB5393"/>
<stop offset="1" stop-color="#4DC0F6"/>
</linearGradient>
<linearGradient id="paint10_linear" x1="30.104" y1="25.3197" x2="65.3723" y2="49.0155" gradientUnits="userSpaceOnUse">
<stop stop-color="#DB5393"/>
<stop offset="1" stop-color="#4DC0F6"/>
</linearGradient>
<linearGradient id="paint11_linear" x1="30.104" y1="25.3197" x2="65.3723" y2="49.0155" gradientUnits="userSpaceOnUse">
<stop stop-color="#DB5393"/>
<stop offset="1" stop-color="#4DC0F6"/>
</linearGradient>
<linearGradient id="paint12_linear" x1="49.5388" y1="18.4148" x2="50.4317" y2="64.4552" gradientUnits="userSpaceOnUse">
<stop stop-color="#DB5393"/>
<stop offset="1" stop-color="#DB5393" stop-opacity="0"/>
</linearGradient>
<linearGradient id="paint13_linear" x1="45.1522" y1="1.98751" x2="45.1522" y2="24.0113" gradientUnits="userSpaceOnUse">
<stop stop-color="#4DC0F6"/>
<stop offset="1" stop-color="#481380"/>
</linearGradient>
</defs>
</svg>
