<?xml version="1.0" encoding="utf-8"?>
<!-- Generator: Adobe Illustrator 25.0.0, SVG Export Plug-In . SVG Version: 6.00 Build 0)  -->
<svg version="1.1" id="Camada_1" xmlns="http://www.w3.org/2000/svg" xmlns:xlink="http://www.w3.org/1999/xlink" x="0px" y="0px"
	 viewBox="0 0 3763.98 2079.68" style="enable-background:new 0 0 3763.98 2079.68;" xml:space="preserve">
<style type="text/css">
	.st0{fill:#481380;}
	.st1{fill:#C6D8D9;}
	.st2{fill:url(#SVGID_1_);}
	.st3{fill:url(#SVGID_2_);}
	.st4{fill:url(#SVGID_3_);}
	.st5{fill:url(#SVGID_4_);}
	.st6{fill:url(#SVGID_5_);}
	.st7{fill:url(#SVGID_6_);}
	.st8{fill:url(#SVGID_7_);}
	.st9{fill:url(#SVGID_8_);}
	.st10{fill:url(#SVGID_9_);}
	.st11{fill:url(#SVGID_10_);}
	.st12{fill:url(#SVGID_11_);}
	.st13{fill:url(#SVGID_12_);}
	.st14{fill:url(#SVGID_13_);}
	.st15{fill:url(#SVGID_14_);}
	.st16{fill:url(#SVGID_15_);}
	.st17{fill:url(#SVGID_16_);}
	.st18{fill:url(#SVGID_17_);}
	.st19{fill:url(#SVGID_18_);}
	.st20{fill:url(#SVGID_19_);}
	.st21{fill:url(#SVGID_20_);}
	.st22{fill:url(#SVGID_21_);}
	.st23{fill:url(#SVGID_22_);}
	.st24{fill:url(#SVGID_23_);}
	.st25{fill:url(#SVGID_24_);}
	.st26{fill:url(#SVGID_25_);}
	.st27{fill:url(#SVGID_26_);}
	.st28{fill:url(#SVGID_27_);}
	.st29{fill:url(#SVGID_28_);}
	.st30{fill:url(#SVGID_29_);}
	.st31{fill:url(#SVGID_30_);}
	.st32{fill:url(#SVGID_31_);}
	.st33{fill:url(#SVGID_32_);}
</style>
<g>
	<g>
		<g>
			<path class="st1" d="M942.78,1539.82v8.56h31.97v10.49h-31.97v19.65H929.5v-49.18h47v10.49H942.78z"/>
			<path class="st1" d="M1012.85,1578.51h-13.28v-49.18h33.29c3.58,0,6.62,0.37,9.11,1.11c2.49,0.74,4.52,1.79,6.08,3.15
				c1.56,1.36,2.7,3,3.4,4.92c0.7,1.92,1.05,4.07,1.05,6.43c0,2.07-0.29,3.89-0.88,5.44c-0.58,1.55-1.37,2.88-2.36,3.99
				c-0.99,1.11-2.14,2.05-3.45,2.81c-1.31,0.76-2.7,1.4-4.15,1.9l16.11,19.44h-15.53l-14.89-18.11h-14.5V1578.51z M1039.09,1544.87
				c0-0.95-0.12-1.76-0.38-2.43c-0.25-0.67-0.69-1.21-1.31-1.63c-0.62-0.42-1.45-0.72-2.49-0.91c-1.04-0.19-2.33-0.29-3.88-0.29
				h-18.18v10.52h18.18c1.55,0,2.85-0.1,3.88-0.29c1.04-0.19,1.87-0.5,2.49-0.91c0.62-0.42,1.06-0.96,1.31-1.63
				C1038.96,1546.63,1039.09,1545.82,1039.09,1544.87z"/>
			<path class="st1" d="M1079.02,1578.51v-49.18h49.79v10.49h-36.15v8.12h34.29v10.49h-34.29v9.59h36.65v10.49H1079.02z"/>
			<path class="st1" d="M1153.86,1578.51v-49.18h49.79v10.49h-36.15v8.12h34.29v10.49h-34.29v9.59h36.65v10.49H1153.86z"/>
			<path class="st1" d="M1228.69,1578.51v-49.18h13.28v38.41h35.9v10.78H1228.69z"/>
			<path class="st1" d="M1339.76,1569.21h-27.42l-4.62,9.31h-14.82l25.74-49.18h14.82l25.74,49.18h-14.82L1339.76,1569.21z
				 M1317.1,1559.61h17.97l-8.95-18.11L1317.1,1559.61z"/>
			<path class="st1" d="M1425.44,1578.51l-33.18-33.79v33.79h-13.28v-49.18h14.43l33.22,33.93v-33.93h13.21v49.18H1425.44z"/>
			<path class="st1" d="M1515.95,1577.08c-1.74,0.57-3.54,1.07-5.4,1.49c-1.86,0.42-3.83,0.73-5.89,0.95
				c-2.07,0.22-4.28,0.32-6.64,0.32c-5.01,0-9.62-0.54-13.83-1.61c-4.21-1.08-7.84-2.69-10.88-4.85c-3.04-2.16-5.41-4.86-7.1-8.09
				c-1.7-3.23-2.54-7.01-2.54-11.33c0-4.32,0.85-8.1,2.54-11.33c1.69-3.24,4.06-5.93,7.1-8.09c3.04-2.16,6.67-3.77,10.88-4.85
				c4.21-1.07,8.82-1.61,13.83-1.61c2.36,0,4.58,0.11,6.64,0.32c2.06,0.21,4.03,0.53,5.89,0.95c1.86,0.42,3.66,0.91,5.4,1.49
				c1.74,0.57,3.47,1.22,5.19,1.93v11.96c-1.36-0.74-2.79-1.47-4.3-2.2c-1.5-0.73-3.16-1.39-4.97-1.97
				c-1.81-0.58-3.81-1.06-5.98-1.43c-2.17-0.37-4.62-0.55-7.34-0.55c-4.18,0-7.64,0.43-10.4,1.29s-4.96,2.01-6.6,3.44
				c-1.65,1.43-2.8,3.07-3.47,4.92c-0.67,1.85-1,3.76-1,5.74c0,1.31,0.14,2.61,0.43,3.88c0.29,1.28,0.76,2.48,1.43,3.61
				c0.67,1.14,1.54,2.18,2.61,3.13c1.07,0.95,2.41,1.78,4.01,2.47c1.6,0.69,3.47,1.23,5.6,1.63c2.13,0.39,4.6,0.59,7.39,0.59
				c2.72,0,5.17-0.17,7.34-0.52c2.17-0.35,4.16-0.81,5.98-1.38c1.81-0.57,3.47-1.22,4.97-1.95c1.5-0.73,2.94-1.47,4.3-2.23v11.96
				C1519.42,1575.87,1517.69,1576.51,1515.95,1577.08z"/>
			<path class="st1" d="M1545.25,1578.51v-49.18h49.79v10.49h-36.15v8.12h34.29v10.49h-34.29v9.59h36.65v10.49H1545.25z"/>
			<path class="st1" d="M1633.37,1578.51h-13.28v-49.18h33.29c3.58,0,6.62,0.37,9.11,1.11c2.49,0.74,4.52,1.79,6.08,3.15
				c1.56,1.36,2.7,3,3.4,4.92c0.7,1.92,1.05,4.07,1.05,6.43c0,2.07-0.29,3.89-0.88,5.44c-0.58,1.55-1.37,2.88-2.36,3.99
				c-0.99,1.11-2.14,2.05-3.45,2.81c-1.31,0.76-2.7,1.4-4.15,1.9l16.11,19.44h-15.53l-14.89-18.11h-14.5V1578.51z M1659.61,1544.87
				c0-0.95-0.12-1.76-0.38-2.43c-0.25-0.67-0.69-1.21-1.31-1.63c-0.62-0.42-1.45-0.72-2.49-0.91c-1.04-0.19-2.33-0.29-3.88-0.29
				h-18.18v10.52h18.18c1.55,0,2.85-0.1,3.88-0.29c1.04-0.19,1.87-0.5,2.49-0.91c0.62-0.42,1.06-0.96,1.31-1.63
				C1659.48,1546.63,1659.61,1545.82,1659.61,1544.87z"/>
			<path class="st1" d="M1801.37,1578.51v-34.54l-18.26,34.54h-12.74l-18.26-34.54v34.54h-13.28v-49.18h18.04l19.87,37.23
				l19.87-37.23h17.97v49.18H1801.37z"/>
			<path class="st1" d="M1897.93,1568.89c-1.22,2.17-3.04,4.07-5.48,5.69c-2.43,1.62-5.47,2.9-9.11,3.85
				c-3.64,0.94-7.89,1.41-12.76,1.41c-4.87,0-9.13-0.47-12.8-1.41c-3.66-0.94-6.71-2.22-9.15-3.85c-2.43-1.62-4.26-3.52-5.48-5.69
				c-1.22-2.17-1.82-4.49-1.82-6.95v-32.61h13.24v27.85c0,1.65,0.21,3.2,0.63,4.67c0.42,1.47,1.2,2.75,2.36,3.85
				c1.16,1.1,2.78,1.97,4.87,2.61s4.8,0.97,8.14,0.97c3.32,0,6.02-0.32,8.09-0.97c2.08-0.65,3.69-1.51,4.85-2.61
				s1.94-2.38,2.34-3.85c0.41-1.47,0.61-3.03,0.61-4.67v-27.85h13.28v32.61C1899.76,1564.4,1899.15,1566.72,1897.93,1568.89z"/>
			<path class="st1" d="M1926.52,1578.51v-49.18h13.28v38.41h35.9v10.78H1926.52z"/>
			<path class="st1" d="M2020.97,1540.03v38.48h-13.28v-38.48h-20.87v-10.7h55.05v10.7H2020.97z"/>
			<path class="st1" d="M2062.38,1578.51v-49.18h13.28v49.18H2062.38z"/>
			<path class="st1" d="M2163.02,1553.89c0,3.15-0.35,5.95-1.04,8.39c-0.69,2.45-1.66,4.58-2.92,6.39
				c-1.25,1.81-2.76,3.35-4.51,4.61c-1.75,1.27-3.7,2.28-5.85,3.04c-2.15,0.77-4.46,1.32-6.94,1.66c-2.48,0.35-5.07,0.52-7.77,0.52
				h-31.21v-49.18h31.14c2.7,0,5.29,0.17,7.77,0.52c2.48,0.35,4.8,0.9,6.96,1.66c2.16,0.76,4.12,1.77,5.89,3.02
				c1.77,1.25,3.27,2.79,4.53,4.62c1.25,1.83,2.22,3.96,2.92,6.39C2162.67,1547.98,2163.02,1550.76,2163.02,1553.89z
				 M2149.63,1553.89c0-2.36-0.3-4.42-0.91-6.16c-0.61-1.74-1.59-3.18-2.94-4.31c-1.35-1.13-3.11-1.98-5.28-2.54
				c-2.17-0.56-4.82-0.84-7.95-0.84h-16.5v27.78h16.5c3.12,0,5.77-0.28,7.95-0.84c2.17-0.56,3.93-1.42,5.28-2.58
				c1.35-1.16,2.33-2.6,2.94-4.35C2149.33,1558.3,2149.63,1556.25,2149.63,1553.89z"/>
			<path class="st1" d="M2186.85,1578.51v-49.18h13.28v49.18H2186.85z"/>
			<path class="st1" d="M2272.56,1543.18c-0.93-0.45-2.16-0.97-3.69-1.54c-1.53-0.57-3.26-1.12-5.19-1.63
				c-1.93-0.51-4.03-0.94-6.3-1.29c-2.27-0.35-4.59-0.52-6.98-0.52c-1.91,0-3.54,0.06-4.89,0.18c-1.35,0.12-2.48,0.27-3.4,0.47
				c-0.92,0.19-1.65,0.41-2.18,0.66c-0.54,0.25-0.95,0.51-1.23,0.77c-0.28,0.26-0.47,0.52-0.55,0.79c-0.08,0.26-0.12,0.5-0.12,0.72
				c0,0.72,0.36,1.34,1.07,1.88c0.72,0.54,1.69,1.02,2.94,1.43c1.24,0.42,2.69,0.81,4.33,1.18c1.65,0.37,3.39,0.75,5.24,1.15
				c1.85,0.39,3.76,0.82,5.73,1.29c1.97,0.47,3.88,1.01,5.73,1.63c1.85,0.62,3.6,1.34,5.24,2.17s3.09,1.79,4.33,2.88
				s2.22,2.36,2.94,3.79c0.71,1.43,1.07,3.06,1.07,4.9c0,2.36-0.42,4.39-1.25,6.08c-0.84,1.7-1.95,3.13-3.35,4.3
				c-1.4,1.17-3.01,2.11-4.85,2.81c-1.84,0.71-3.76,1.25-5.78,1.63c-2.02,0.38-4.06,0.63-6.12,0.75c-2.06,0.12-4.03,0.18-5.89,0.18
				c-4.87,0-9.37-0.4-13.51-1.2s-7.8-1.8-10.97-2.99v-11.74c3.27,1.81,7,3.23,11.19,4.26c4.19,1.03,8.67,1.54,13.44,1.54
				c2.82,0,5.11-0.15,6.89-0.45c1.78-0.3,3.17-0.68,4.17-1.14c1-0.47,1.68-0.97,2.04-1.52c0.36-0.55,0.54-1.07,0.54-1.58
				c0-0.79-0.36-1.47-1.07-2.06c-0.72-0.58-1.7-1.1-2.94-1.54c-1.24-0.44-2.69-0.84-4.33-1.22c-1.65-0.37-3.39-0.74-5.24-1.11
				c-1.85-0.37-3.75-0.77-5.71-1.2c-1.96-0.43-3.86-0.94-5.71-1.52c-1.85-0.58-3.6-1.26-5.24-2.04c-1.65-0.77-3.09-1.69-4.33-2.75
				c-1.24-1.06-2.22-2.29-2.94-3.69c-0.71-1.39-1.07-3.01-1.07-4.85c0-2.17,0.38-4.04,1.15-5.62c0.76-1.57,1.79-2.92,3.09-4.03
				c1.3-1.11,2.8-2.01,4.51-2.7c1.71-0.69,3.5-1.23,5.39-1.61c1.89-0.38,3.8-0.65,5.73-0.79c1.93-0.15,3.77-0.22,5.51-0.22
				c1.91,0,3.87,0.1,5.89,0.29c2.02,0.19,4,0.46,5.96,0.81c1.96,0.35,3.85,0.74,5.67,1.2c1.83,0.45,3.51,0.93,5.07,1.43V1543.18z"/>
			<path class="st1" d="M2349.94,1577.08c-1.74,0.57-3.54,1.07-5.4,1.49c-1.86,0.42-3.83,0.73-5.89,0.95
				c-2.06,0.22-4.28,0.32-6.64,0.32c-5.01,0-9.62-0.54-13.83-1.61c-4.21-1.08-7.84-2.69-10.88-4.85c-3.04-2.16-5.41-4.86-7.1-8.09
				c-1.7-3.23-2.54-7.01-2.54-11.33c0-4.32,0.85-8.1,2.54-11.33c1.69-3.24,4.06-5.93,7.1-8.09c3.04-2.16,6.67-3.77,10.88-4.85
				c4.21-1.07,8.82-1.61,13.83-1.61c2.36,0,4.58,0.11,6.64,0.32c2.06,0.21,4.03,0.53,5.89,0.95c1.86,0.42,3.66,0.91,5.4,1.49
				c1.74,0.57,3.47,1.22,5.19,1.93v11.96c-1.36-0.74-2.79-1.47-4.3-2.2c-1.5-0.73-3.16-1.39-4.97-1.97
				c-1.81-0.58-3.81-1.06-5.98-1.43c-2.17-0.37-4.62-0.55-7.34-0.55c-4.18,0-7.64,0.43-10.4,1.29c-2.76,0.86-4.96,2.01-6.6,3.44
				c-1.65,1.43-2.8,3.07-3.47,4.92c-0.67,1.85-1,3.76-1,5.74c0,1.31,0.14,2.61,0.43,3.88c0.29,1.28,0.76,2.48,1.43,3.61
				c0.67,1.14,1.54,2.18,2.61,3.13c1.07,0.95,2.41,1.78,4.01,2.47c1.6,0.69,3.47,1.23,5.6,1.63c2.13,0.39,4.6,0.59,7.39,0.59
				c2.72,0,5.17-0.17,7.34-0.52c2.17-0.35,4.16-0.81,5.98-1.38c1.81-0.57,3.47-1.22,4.97-1.95c1.5-0.73,2.94-1.47,4.3-2.23v11.96
				C2353.41,1575.87,2351.68,1576.51,2349.94,1577.08z"/>
			<path class="st1" d="M2379.25,1578.51v-49.18h13.28v49.18H2379.25z"/>
			<path class="st1" d="M2474.92,1546.12c0,2.46-0.36,4.72-1.07,6.78c-0.71,2.06-1.87,3.84-3.45,5.33
				c-1.59,1.49-3.65,2.65-6.18,3.49c-2.53,0.83-5.61,1.25-9.23,1.25h-22.05v15.54h-13.28v-49.18h35.33c3.63,0,6.7,0.41,9.23,1.23
				c2.53,0.82,4.59,1.98,6.18,3.47c1.59,1.49,2.74,3.26,3.45,5.32C2474.56,1541.41,2474.92,1543.66,2474.92,1546.12z
				 M2461.49,1546.33c0-1.14-0.16-2.13-0.48-2.95s-0.85-1.5-1.59-2.02c-0.74-0.52-1.71-0.91-2.9-1.16c-1.19-0.25-2.66-0.38-4.4-0.38
				h-19.19v12.67h19.19c1.74,0,3.21-0.1,4.4-0.3c1.19-0.2,2.16-0.55,2.9-1.04c0.74-0.49,1.27-1.13,1.59-1.91
				S2461.49,1547.48,2461.49,1546.33z"/>
			<path class="st1" d="M2497.63,1578.51v-49.18h13.28v38.41h35.9v10.78H2497.63z"/>
			<path class="st1" d="M2569.18,1578.51v-49.18h13.28v49.18H2569.18z"/>
			<path class="st1" d="M2656.04,1578.51l-33.18-33.79v33.79h-13.28v-49.18H2624l33.22,33.93v-33.93h13.21v49.18H2656.04z"/>
			<path class="st1" d="M2737.07,1569.21h-27.42l-4.62,9.31h-14.82l25.74-49.18h14.82l25.74,49.18h-14.82L2737.07,1569.21z
				 M2714.41,1559.61h17.97l-8.95-18.11L2714.41,1559.61z"/>
			<path class="st1" d="M2789.57,1578.51h-13.28v-49.18h33.29c3.58,0,6.62,0.37,9.11,1.11c2.49,0.74,4.52,1.79,6.08,3.15
				c1.56,1.36,2.7,3,3.4,4.92c0.7,1.92,1.05,4.07,1.05,6.43c0,2.07-0.29,3.89-0.88,5.44c-0.58,1.55-1.37,2.88-2.36,3.99
				c-0.99,1.11-2.14,2.05-3.45,2.81c-1.31,0.76-2.7,1.4-4.15,1.9l16.11,19.44h-15.53l-14.89-18.11h-14.5V1578.51z M2815.8,1544.87
				c0-0.95-0.12-1.76-0.38-2.43c-0.25-0.67-0.69-1.21-1.31-1.63c-0.62-0.42-1.45-0.72-2.49-0.91c-1.04-0.19-2.33-0.29-3.88-0.29
				h-18.18v10.52h18.18c1.55,0,2.85-0.1,3.88-0.29c1.04-0.19,1.87-0.5,2.49-0.91s1.06-0.96,1.31-1.63
				C2815.68,1546.63,2815.8,1545.82,2815.8,1544.87z"/>
		</g>
		<g>
			<path class="st1" d="M1047.59,1204.07v170.83c0,13.27-10.76,24.01-24.01,24.01H865c-13.25,0-24-10.74-24-24.01v-170.83h48.03
				v146.84h110.55v-146.84H1047.59z"/>
			<path class="st1" d="M1370.2,1204.07v48.01h-58.72v146.84h-48.03v-146.84h-33.65l-24,41.57l-46.26,80.13
				c-0.37,0.68-0.76,1.37-1.16,2.01c-8.42,13.86-23.65,23.13-41.05,23.13h-45.74v-48.03h45.72l24-41.57l46.28-80.11
				c0.37-0.68,0.76-1.37,1.16-2.01c8.42-13.86,23.66-23.13,41.05-23.13H1370.2z"/>
			<polygon class="st1" points="1678.69,1342.43 1598.61,1204.05 1542.93,1204.09 1655.69,1398.91 1701.42,1398.93 1814.03,1204.08 
				1758.49,1204.07 			"/>
			<path class="st1" d="M1612.16,1398.92h-55.71l-60.99-105.67l-24-41.57h-29.26v147.24h-48.01v-195.27h77.28
				c17.39,0,32.63,9.27,41.05,23.13c0.41,0.66,0.79,1.33,1.16,2.01L1612.16,1398.92z"/>
			<path class="st1" d="M2037.49,1225.62c-1.24-12.12-11.44-21.53-23.87-21.53h-158.53c-12.42,0-22.66,9.41-23.91,21.53
				c-0.08,0.79-0.11,1.62-0.11,2.45v146.82c0,13.29,10.73,24.02,23.98,24.02h158.57c13.25,0,23.98-10.73,23.98-24.02v-146.82
				C2037.61,1227.24,2037.57,1226.41,2037.49,1225.62z M1989.61,1350.87h-110.57v-98.79h110.57V1350.87z"/>
			<path class="st1" d="M652.59,1252.08v98.83h110.55v-37.06h48.01v61.06c0,13.27-10.74,24.01-24,24.01H628.58
				c-13.25,0-24-10.74-24-24.01v-146.82c0-13.25,10.74-24.01,24-24.01h182.57v48.01H652.59z"/>
			<path class="st1" d="M2205.69,1252.08v98.83l158.58-0.02v48.03h-182.59c-13.25,0-24-10.76-24-24.01v-147.24
				c0-11.7,8.38-21.47,19.47-23.59h187.11v48.01H2205.69z"/>
			<path class="st1" d="M2594.71,1225.62c-1.24-12.12-11.45-21.53-23.87-21.53h-158.53c-12.42,0-22.66,9.41-23.91,21.53
				c-0.08,0.79-0.11,1.62-0.11,2.45v146.82c0,13.25,10.73,24.02,23.98,24.02h158.57c13.25,0,23.98-10.77,23.98-24.02v-146.82
				C2594.82,1227.24,2594.78,1226.41,2594.71,1225.62z M2546.82,1350.87h-110.57v-98.79h110.57V1350.87z"/>
			<path class="st1" d="M2917.44,1204.07v48.01h-58.73v146.84h-48.01v-146.84h-33.65l-24,41.57l-46.26,80.13
				c-0.37,0.68-0.76,1.37-1.16,2.01c-8.42,13.86-23.66,23.13-41.05,23.13h-45.74v-48.03h45.72l24-41.55l46.26-80.13
				c0.37-0.68,0.76-1.37,1.16-2.01c8.42-13.86,23.66-23.13,41.05-23.13H2917.44z"/>
			<path class="st1" d="M3159.4,1398.92h-55.71l-61-105.67l-24-41.59h-29.24v147.26h-48.01v-195.27h77.27
				c17.41,0,32.63,9.25,41.05,23.11c0.41,0.66,0.79,1.33,1.16,2.01L3159.4,1398.92z"/>
		</g>
	</g>
	<g>
		<g>
			<g>
				<g>
					
						<linearGradient id="SVGID_1_" gradientUnits="userSpaceOnUse" x1="5976.272" y1="-624.494" x2="6580.8555" y2="-624.494" gradientTransform="matrix(0.7071 -0.7071 0.7071 0.7071 -2116.0386 5635.4912)">
						<stop  offset="0" style="stop-color:#DB5393"/>
						<stop  offset="1" style="stop-color:#4DC0F6"/>
					</linearGradient>
					<path class="st2" d="M2095.76,540.55c-44.43-44.43-111.94-53.34-166.03-22.55l-6.89,4.15c-13.86,8.54-27.48,17.5-40.84,26.87
						c-11.33,7.94-22.47,16.17-33.4,24.69c-10.5,8.16-20.81,16.59-30.92,25.27c-16.28,13.94-32.04,28.54-47.24,43.75l-1,1
						c-24.29,24.37-47.02,50.16-68.04,77.15c-8.51,10.95-16.74,22.09-24.68,33.41c-9.7,13.84-18.96,27.95-27.77,42.31
						c-0.32,0.49-0.63,0.98-0.92,1.49c-3.3,5.38-6.19,10.92-8.68,16.56c-6.39,14.44-10.15,29.61-11.35,44.85
						c-3.1,39.25,10.75,79.05,40.26,108.56c45.43,45.43,115.28,53.71,169.96,20.19c0.52-0.3,1.01-0.61,1.51-0.94
						c14.35-8.8,28.45-18.05,42.27-27.75c11.33-7.93,22.47-16.17,33.42-24.69c10.49-8.17,20.8-16.59,30.91-25.27
						c16.26-13.94,32.02-28.54,47.23-43.75c0.34-0.34,0.68-0.68,1.01-1.02c24.28-24.35,47-50.13,68-77.13
						c8.52-10.94,16.75-22.08,24.7-33.42c9.37-13.37,18.34-27,26.89-40.87l4.17-6.94c2.33-4.11,4.44-8.29,6.32-12.54
						c6.4-14.45,10.16-29.61,11.37-44.85C2139.14,609.86,2125.31,570.1,2095.76,540.55z M2092.84,666.96
						c-2.33,7.64-5.62,15.1-9.89,22.21l-3.9,6.27v0.06c-5.32,8.56-10.81,17.02-16.47,25.38c-7.66,11.33-15.63,22.47-23.9,33.41
						c-22.25,29.49-46.63,57.51-72.9,83.78c-11.45,11.45-23.22,22.53-35.3,33.23c-15.66,13.88-31.83,27.12-48.46,39.69
						c-0.48,0.35-0.96,0.71-1.43,1.07c-10.49,7.88-21.15,15.49-31.99,22.81c-9.77,6.61-19.67,12.99-29.71,19.14l-0.5,0.31l-0.48,0.3
						c-39.17,24.14-89.28,18.25-121.87-14.34c-15.94-15.94-25.51-36.08-28.29-57.08c-1.83-13.8-0.73-27.98,3.41-41.58
						c2.44-8.01,5.94-15.82,10.51-23.24l0.61-0.99c6.14-10.03,12.52-19.93,19.12-29.69c7.66-11.33,15.63-22.47,23.89-33.41
						c22.25-29.47,46.63-57.49,72.93-83.78c11.45-11.45,23.22-22.53,35.31-33.23c15.66-13.88,31.83-27.12,48.48-39.68
						c0.47-0.37,0.94-0.73,1.42-1.08c10.48-7.88,21.15-15.49,31.99-22.81c8.36-5.66,16.82-11.15,25.37-16.47l6.28-3.87
						c39.04-23.46,88.53-17.42,120.91,14.96c15.97,15.97,25.53,36.09,28.29,57.07C2098.1,639.19,2096.99,653.36,2092.84,666.96z"/>
				</g>
			</g>
		</g>
		<g>
			<g>
				<g>
					<linearGradient id="SVGID_2_" gradientUnits="userSpaceOnUse" x1="1579.7052" y1="754.2899" x2="2184.2852" y2="754.2899">
						<stop  offset="0" style="stop-color:#DB5393"/>
						<stop  offset="1" style="stop-color:#4DC0F6"/>
					</linearGradient>
					<path class="st3" d="M2136.02,649.08c-11.63-9.93-25.01-17.99-39.75-23.68c-4.37-1.7-8.85-3.18-13.44-4.44l-7.8-1.94
						c-42.14-10.01-85.22-16.71-128.7-20.04c-20.89-1.6-41.88-2.42-62.9-2.46h-2.85c-21.03,0.04-42.01,0.86-62.9,2.46
						c-44.09,3.37-87.74,10.2-130.39,20.43c-0.57,0.13-1.14,0.26-1.71,0.41c-6.13,1.47-12.08,3.33-17.83,5.56
						c-14.74,5.69-28.12,13.76-39.75,23.71c-29.94,25.56-48.29,63.49-48.29,105.22c0,41.72,18.35,79.64,48.29,105.19
						c11.63,9.94,25.02,18.01,39.75,23.7c5.76,2.23,11.72,4.1,17.86,5.57c0.57,0.15,1.15,0.29,1.72,0.4
						c42.64,10.23,86.27,17.06,130.34,20.43c20.9,1.61,41.89,2.42,62.92,2.46h2.84c21.02-0.04,42.01-0.86,62.9-2.46
						c43.49-3.33,86.58-10.03,128.74-20.05l7.86-1.96c4.56-1.25,9-2.72,13.33-4.4c14.74-5.69,28.13-13.75,39.76-23.68
						c29.94-25.53,48.27-63.42,48.27-105.2C2184.29,712.51,2165.96,674.62,2136.02,649.08z M2124.65,814.66
						c-8.46,11.05-19.26,20.28-31.81,26.96c-7.05,3.76-14.65,6.7-22.7,8.71l-7.2,1.68l-0.03,0.04
						c-22.54,5.26-45.34,9.53-68.34,12.78c-21.23,3.02-42.61,5.18-64.09,6.47c-16.12,0.98-32.29,1.47-48.48,1.47
						c-16.19,0-32.36-0.49-48.47-1.47c-21.48-1.29-42.87-3.44-64.09-6.45c-24.69-3.5-49.15-8.16-73.28-13.96l-0.58-0.13l-0.55-0.13
						c-8.48-2.01-16.48-5.07-23.87-9.01c-12.55-6.68-23.34-15.92-31.81-26.97c-12.88-16.81-20.36-37.79-20.36-60.34
						s7.48-43.54,20.36-60.36c8.46-11.06,19.26-20.3,31.81-27c7.39-3.93,15.39-6.99,23.87-9l1.13-0.26
						c24.13-5.8,48.59-10.46,73.28-13.96c21.22-3.01,42.61-5.16,64.09-6.45c16.11-0.98,32.28-1.47,48.47-1.47
						c16.19,0,32.35,0.49,48.47,1.47c21.48,1.29,42.87,3.45,64.1,6.47c23,3.26,45.8,7.53,68.34,12.78l7.17,1.7
						c8.07,2.01,15.69,4.97,22.76,8.73c12.55,6.68,23.35,15.92,31.81,26.97c12.88,16.8,20.35,37.8,20.35,60.38
						C2145,776.88,2137.53,797.87,2124.65,814.66z"/>
				</g>
			</g>
		</g>
		<g>
			<g>
				<g>
					
						<linearGradient id="SVGID_3_" gradientUnits="userSpaceOnUse" x1="-554.1987" y1="4838.0835" x2="50.3917" y2="4838.0835" gradientTransform="matrix(0.7071 0.7071 -0.7071 0.7071 5481.1592 -2488.6289)">
						<stop  offset="0" style="stop-color:#DB5393"/>
						<stop  offset="1" style="stop-color:#4DC0F6"/>
					</linearGradient>
					<path class="st4" d="M2136.02,859.51c-1.2-15.24-4.97-30.4-11.37-44.85c-1.89-4.28-4.01-8.5-6.37-12.64l-4.14-6.88
						c-8.54-13.86-17.51-27.49-26.87-40.86c-7.95-11.32-16.18-22.46-24.69-33.4c-21.02-27-43.74-52.78-68.01-77.13
						c-0.33-0.34-0.67-0.68-1.01-1.02c-15.21-15.21-30.97-29.8-47.23-43.75c-10.11-8.68-20.42-17.11-30.91-25.27
						c-10.95-8.52-22.09-16.76-33.42-24.69c-13.84-9.71-27.95-18.97-42.31-27.78c-0.49-0.32-0.98-0.63-1.49-0.92
						c-54.68-33.51-124.52-25.21-169.97,20.23c-29.5,29.5-43.34,69.29-40.23,108.54c1.2,15.25,4.96,30.41,11.35,44.86
						c2.49,5.65,5.39,11.18,8.69,16.57c0.3,0.51,0.61,1.01,0.93,1.5c8.8,14.35,18.06,28.45,27.75,42.27
						c7.94,11.33,16.17,22.47,24.68,33.41c21.02,27,43.75,52.78,68.04,77.15c0.34,0.34,0.67,0.67,1,1
						c15.2,15.2,30.96,29.8,47.23,43.75c10.11,8.68,20.43,17.11,30.93,25.27c10.93,8.52,22.07,16.75,33.4,24.69
						c13.37,9.38,27.01,18.35,40.88,26.9l6.94,4.17c54.08,30.74,121.52,21.82,165.92-22.57
						C2125.29,938.5,2139.13,898.74,2136.02,859.51z M2067.96,940.28c-32.36,32.35-81.8,38.39-120.84,14.96l-6.28-3.9h-0.05
						c-8.55-5.32-17.01-10.81-25.37-16.47c-10.84-7.32-21.51-14.93-31.99-22.81c-0.47-0.35-0.94-0.71-1.41-1.07
						c-16.65-12.56-32.83-25.8-48.49-39.69c-12.09-10.7-23.86-21.78-35.31-33.23c-26.3-26.3-50.68-54.32-72.93-83.78
						c-8.26-10.95-16.23-22.09-23.89-33.41c-6.6-9.76-12.98-19.66-19.12-29.69l-0.32-0.5l-0.29-0.49
						c-4.57-7.42-8.07-15.24-10.51-23.25c-4.15-13.6-5.25-27.77-3.41-41.57c2.77-20.99,12.32-41.11,28.26-57.05
						c32.61-32.61,82.74-38.51,121.9-14.37l0.98,0.61c10.04,6.15,19.94,12.53,29.71,19.14c10.84,7.33,21.5,14.94,31.98,22.81
						c0.47,0.36,0.95,0.72,1.43,1.08c16.63,12.55,32.8,25.79,48.46,39.68c12.08,10.7,23.86,21.78,35.31,33.23
						c26.27,26.27,50.65,54.29,72.9,83.78c8.27,10.94,16.24,22.08,23.89,33.41c5.67,8.36,11.16,16.82,16.48,25.38l3.87,6.29
						c4.28,7.13,7.58,14.6,9.92,22.25c4.15,13.6,5.25,27.77,3.42,41.57C2093.5,904.18,2083.93,924.31,2067.96,940.28z"/>
				</g>
			</g>
		</g>
		<g>
			<linearGradient id="SVGID_4_" gradientUnits="userSpaceOnUse" x1="1817.0051" y1="754.2849" x2="1946.9752" y2="754.2849">
				<stop  offset="0" style="stop-color:#DB5393"/>
				<stop  offset="1" style="stop-color:#4DC0F6"/>
			</linearGradient>
			<path class="st5" d="M1946.98,754.28c0,35.83-29.14,64.97-64.97,64.97c-35.85,0-65-29.14-65-64.97c0-35.82,29.15-64.96,65-64.96
				C1917.84,689.32,1946.98,718.46,1946.98,754.28z"/>
		</g>
	</g>
</g>
</svg>
