<svg width="1250" height="260" viewBox="0 0 1250 260" fill="none" xmlns="http://www.w3.org/2000/svg">
<path d="M296.894 207.576V210.706H308.593V214.542H296.894V221.735H292.033V203.736H309.234V207.573H296.894V207.576Z" fill="#C6D8D9"/>
<path d="M322.54 221.735H317.679V203.736H329.861C331.172 203.736 332.281 203.872 333.196 204.143C334.108 204.413 334.851 204.798 335.422 205.296C335.993 205.793 336.407 206.394 336.667 207.097C336.923 207.799 337.051 208.583 337.051 209.45C337.051 210.208 336.945 210.874 336.729 211.442C336.516 212.009 336.227 212.496 335.865 212.902C335.502 213.309 335.081 213.649 334.602 213.931C334.122 214.209 333.617 214.443 333.083 214.627L338.976 221.739H333.291L327.841 215.11H322.537V221.735H322.54ZM332.142 209.421C332.142 209.073 332.098 208.777 332.003 208.532C331.911 208.286 331.75 208.089 331.523 207.935C331.296 207.781 330.993 207.671 330.612 207.602C330.231 207.532 329.759 207.499 329.192 207.499H322.537V211.35H329.192C329.759 211.35 330.231 211.314 330.612 211.244C330.993 211.175 331.296 211.061 331.523 210.911C331.75 210.761 331.911 210.56 332.003 210.314C332.094 210.069 332.142 209.769 332.142 209.421Z" fill="#C6D8D9"/>
<path d="M346.755 221.735V203.736H364.978V207.573H351.748V210.545H364.297V214.385H351.748V217.895H365.161V221.732H346.755V221.735Z" fill="#C6D8D9"/>
<path d="M374.144 221.735V203.736H392.367V207.573H379.137V210.545H391.686V214.385H379.137V217.895H392.55V221.732H374.144V221.735Z" fill="#C6D8D9"/>
<path d="M401.529 221.735V203.736H406.39V217.793H419.528V221.735H401.529Z" fill="#C6D8D9"/>
<path d="M442.173 218.327H432.139L430.448 221.735H425.026L434.445 203.736H439.866L449.285 221.735H443.864L442.173 218.327ZM433.881 214.817H440.456L437.18 208.188L433.881 214.817Z" fill="#C6D8D9"/>
<path d="M473.529 221.735L461.387 209.37V221.735H456.526V203.736H461.804L473.961 216.153V203.736H478.793V221.735H473.529Z" fill="#C6D8D9"/>
<path d="M506.654 221.212C506.017 221.421 505.358 221.604 504.678 221.757C503.997 221.911 503.279 222.025 502.521 222.105C501.767 222.186 500.955 222.222 500.091 222.222C498.257 222.222 496.569 222.025 495.028 221.633C493.487 221.238 492.158 220.648 491.045 219.858C489.933 219.067 489.065 218.078 488.446 216.896C487.824 215.714 487.517 214.33 487.517 212.752C487.517 211.171 487.828 209.791 488.446 208.608C489.065 207.426 489.933 206.438 491.045 205.647C492.158 204.856 493.487 204.267 495.028 203.872C496.569 203.48 498.257 203.282 500.091 203.282C500.955 203.282 501.764 203.323 502.521 203.399C503.276 203.476 503.997 203.593 504.678 203.747C505.358 203.901 506.017 204.08 506.654 204.293C507.291 204.501 507.925 204.736 508.554 204.999V209.374C508.056 209.103 507.533 208.835 506.984 208.568C506.435 208.301 505.827 208.059 505.164 207.847C504.502 207.635 503.77 207.459 502.975 207.324C502.181 207.188 501.284 207.122 500.288 207.122C498.758 207.122 497.492 207.28 496.481 207.594C495.471 207.909 494.666 208.33 494.065 208.854C493.461 209.377 493.04 209.978 492.795 210.655C492.55 211.332 492.429 212.031 492.429 212.756C492.429 213.235 492.48 213.711 492.587 214.176C492.693 214.641 492.865 215.084 493.11 215.498C493.355 215.915 493.674 216.296 494.065 216.644C494.457 216.991 494.948 217.295 495.533 217.548C496.119 217.8 496.804 217.998 497.583 218.144C498.363 218.287 499.267 218.36 500.288 218.36C501.284 218.36 502.181 218.298 502.975 218.17C503.77 218.042 504.498 217.873 505.164 217.665C505.827 217.456 506.435 217.218 506.984 216.951C507.533 216.684 508.06 216.413 508.554 216.135V220.509C507.925 220.765 507.291 221 506.654 221.212Z" fill="#C6D8D9"/>
<path d="M517.376 221.735V203.736H535.599V207.573H522.369V210.545H534.918V214.385H522.369V217.895H535.782V221.732H517.376V221.735Z" fill="#C6D8D9"/>
<path d="M549.626 221.735H544.765V203.736H556.947C558.258 203.736 559.367 203.872 560.282 204.143C561.194 204.413 561.937 204.798 562.508 205.296C563.079 205.793 563.496 206.394 563.753 207.097C564.009 207.799 564.137 208.583 564.137 209.45C564.137 210.208 564.031 210.874 563.815 211.442C563.602 212.009 563.313 212.496 562.951 212.902C562.588 213.309 562.167 213.649 561.688 213.931C561.208 214.209 560.703 214.443 560.169 214.627L566.062 221.739H560.377L554.927 215.11H549.626V221.735ZM559.228 209.421C559.228 209.073 559.184 208.777 559.089 208.532C558.997 208.286 558.836 208.089 558.609 207.935C558.382 207.781 558.079 207.671 557.698 207.602C557.317 207.532 556.845 207.499 556.277 207.499H549.626V211.35H556.281C556.849 211.35 557.321 211.314 557.702 211.244C558.082 211.175 558.386 211.061 558.613 210.911C558.84 210.761 559.001 210.56 559.093 210.314C559.18 210.069 559.228 209.769 559.228 209.421Z" fill="#C6D8D9"/>
<path d="M611.106 221.735V209.095L604.425 221.735H599.762L593.081 209.095V221.735H588.22V203.736H594.824L602.094 217.361L609.364 203.736H615.942V221.735H611.106Z" fill="#C6D8D9"/>
<path d="M646.446 218.21C645.999 219.005 645.333 219.7 644.44 220.293C643.55 220.886 642.437 221.355 641.105 221.702C639.772 222.047 638.217 222.219 636.434 222.219C634.651 222.219 633.092 222.047 631.752 221.702C630.412 221.358 629.296 220.89 628.406 220.293C627.517 219.7 626.847 219.005 626.4 218.21C625.954 217.416 625.734 216.567 625.734 215.67V203.736H630.581V213.927C630.581 214.531 630.657 215.099 630.811 215.637C630.965 216.175 631.25 216.644 631.675 217.046C632.1 217.449 632.693 217.767 633.458 218.002C634.223 218.236 635.215 218.357 636.438 218.357C637.653 218.357 638.638 218.24 639.399 218.002C640.16 217.767 640.75 217.449 641.174 217.046C641.599 216.644 641.885 216.175 642.031 215.637C642.181 215.099 642.254 214.531 642.254 213.927V203.736H647.116V215.67C647.112 216.57 646.889 217.416 646.446 218.21Z" fill="#C6D8D9"/>
<path d="M656.908 221.735V203.736H661.769V217.793H674.907V221.735H656.908Z" fill="#C6D8D9"/>
<path d="M691.471 207.653V221.735H686.61V207.653H678.974V203.736H699.122V207.653H691.471Z" fill="#C6D8D9"/>
<path d="M706.626 221.735V203.736H711.487V221.735H706.626Z" fill="#C6D8D9"/>
<path d="M743.455 212.723C743.455 213.876 743.327 214.901 743.075 215.794C742.822 216.691 742.467 217.471 742.006 218.133C741.548 218.796 740.995 219.36 740.355 219.821C739.714 220.282 739 220.656 738.213 220.934C737.426 221.216 736.581 221.417 735.673 221.541C734.765 221.67 733.817 221.732 732.829 221.732H721.404V203.733H732.799C733.788 203.733 734.732 203.795 735.644 203.923C736.551 204.051 737.401 204.252 738.191 204.531C738.982 204.809 739.7 205.178 740.347 205.636C740.995 206.094 741.544 206.657 742.006 207.327C742.463 207.997 742.818 208.773 743.075 209.666C743.327 210.56 743.455 211.581 743.455 212.723ZM738.557 212.723C738.557 211.859 738.448 211.109 738.224 210.468C738.001 209.831 737.642 209.304 737.148 208.89C736.654 208.477 736.01 208.166 735.215 207.961C734.421 207.756 733.451 207.653 732.309 207.653H726.269V217.819H732.309C733.451 217.819 734.421 217.716 735.215 217.511C736.01 217.306 736.654 216.991 737.148 216.567C737.642 216.142 738.001 215.615 738.224 214.974C738.444 214.337 738.557 213.587 738.557 212.723Z" fill="#C6D8D9"/>
<path d="M752.175 221.735V203.736H757.037V221.735H752.175Z" fill="#C6D8D9"/>
<path d="M783.546 208.806C783.206 208.641 782.756 208.451 782.196 208.242C781.636 208.034 781.002 207.832 780.296 207.646C779.589 207.459 778.821 207.302 777.99 207.174C777.159 207.045 776.31 206.983 775.435 206.983C774.735 206.983 774.139 207.005 773.648 207.049C773.154 207.093 772.74 207.148 772.404 207.221C772.067 207.291 771.8 207.371 771.606 207.463C771.408 207.554 771.258 207.649 771.155 207.745C771.053 207.84 770.983 207.935 770.954 208.034C770.925 208.129 770.91 208.217 770.91 208.297C770.91 208.561 771.042 208.788 771.302 208.986C771.565 209.183 771.92 209.359 772.378 209.509C772.832 209.663 773.359 209.805 773.963 209.941C774.567 210.076 775.204 210.215 775.881 210.362C776.558 210.505 777.258 210.662 777.975 210.834C778.696 211.006 779.395 211.204 780.073 211.431C780.75 211.658 781.39 211.921 781.991 212.225C782.595 212.525 783.122 212.877 783.576 213.279C784.03 213.682 784.388 214.143 784.652 214.667C784.912 215.19 785.044 215.787 785.044 216.46C785.044 217.324 784.89 218.067 784.586 218.686C784.279 219.308 783.872 219.832 783.363 220.26C782.851 220.688 782.262 221.033 781.588 221.289C780.914 221.549 780.212 221.746 779.472 221.886C778.733 222.025 777.986 222.116 777.232 222.16C776.478 222.204 775.757 222.226 775.076 222.226C773.293 222.226 771.646 222.08 770.13 221.787C768.615 221.494 767.279 221.128 766.115 220.692V216.398C767.312 217.061 768.673 217.581 770.207 217.958C771.741 218.335 773.381 218.521 775.127 218.521C776.156 218.521 776.998 218.466 777.649 218.357C778.301 218.247 778.81 218.108 779.176 217.939C779.542 217.767 779.791 217.584 779.923 217.383C780.054 217.182 780.12 216.991 780.12 216.808C780.12 216.519 779.988 216.27 779.729 216.054C779.465 215.842 779.106 215.651 778.652 215.49C778.198 215.329 777.671 215.183 777.067 215.047C776.463 214.912 775.826 214.777 775.149 214.641C774.472 214.506 773.776 214.359 773.059 214.202C772.341 214.044 771.646 213.858 770.969 213.645C770.291 213.433 769.651 213.184 769.05 212.899C768.446 212.617 767.919 212.28 767.465 211.892C767.012 211.504 766.653 211.054 766.389 210.541C766.129 210.032 765.998 209.439 765.998 208.766C765.998 207.972 766.137 207.287 766.418 206.709C766.697 206.134 767.074 205.64 767.55 205.233C768.026 204.827 768.575 204.498 769.201 204.245C769.823 203.992 770.482 203.795 771.17 203.656C771.858 203.517 772.557 203.421 773.267 203.366C773.974 203.312 774.648 203.286 775.284 203.286C775.984 203.286 776.701 203.323 777.441 203.392C778.176 203.462 778.905 203.56 779.622 203.689C780.34 203.817 781.032 203.959 781.698 204.128C782.368 204.293 782.983 204.468 783.55 204.651V208.806H783.546Z" fill="#C6D8D9"/>
<path d="M811.861 221.212C811.224 221.421 810.565 221.604 809.885 221.757C809.204 221.911 808.486 222.025 807.728 222.105C806.974 222.186 806.162 222.222 805.298 222.222C803.464 222.222 801.776 222.025 800.235 221.633C798.694 221.238 797.365 220.648 796.252 219.858C795.14 219.067 794.272 218.078 793.653 216.896C793.031 215.714 792.724 214.33 792.724 212.752C792.724 211.171 793.035 209.791 793.653 208.608C794.272 207.426 795.14 206.438 796.252 205.647C797.365 204.856 798.694 204.267 800.235 203.872C801.776 203.48 803.464 203.282 805.298 203.282C806.162 203.282 806.971 203.323 807.728 203.399C808.483 203.476 809.204 203.593 809.885 203.747C810.565 203.901 811.224 204.08 811.861 204.293C812.498 204.501 813.132 204.736 813.761 204.999V209.374C813.263 209.103 812.74 208.835 812.191 208.568C811.642 208.301 811.034 208.059 810.371 207.847C809.709 207.635 808.977 207.459 808.182 207.324C807.388 207.188 806.491 207.122 805.495 207.122C803.965 207.122 802.699 207.28 801.688 207.594C800.678 207.909 799.873 208.33 799.272 208.854C798.668 209.377 798.247 209.978 798.002 210.655C797.757 211.332 797.636 212.031 797.636 212.756C797.636 213.235 797.687 213.711 797.794 214.176C797.9 214.641 798.072 215.084 798.317 215.498C798.562 215.915 798.881 216.296 799.272 216.644C799.664 216.991 800.155 217.295 800.74 217.548C801.326 217.8 802.011 217.998 802.79 218.144C803.57 218.287 804.474 218.36 805.495 218.36C806.491 218.36 807.388 218.298 808.182 218.17C808.977 218.042 809.705 217.873 810.371 217.665C811.034 217.456 811.642 217.218 812.191 216.951C812.74 216.684 813.267 216.413 813.761 216.135V220.509C813.135 220.765 812.502 221 811.861 221.212Z" fill="#C6D8D9"/>
<path d="M822.587 221.735V203.736H827.448V221.735H822.587Z" fill="#C6D8D9"/>
<path d="M857.597 209.879C857.597 210.779 857.465 211.607 857.205 212.361C856.946 213.115 856.521 213.766 855.943 214.312C855.361 214.857 854.61 215.282 853.684 215.589C852.758 215.893 851.63 216.047 850.305 216.047H842.237V221.732H837.376V203.733H850.305C851.63 203.733 852.758 203.883 853.684 204.183C854.61 204.483 855.364 204.908 855.943 205.453C856.525 205.998 856.946 206.646 857.205 207.4C857.469 208.155 857.597 208.982 857.597 209.879ZM852.685 209.959C852.685 209.542 852.626 209.18 852.509 208.879C852.392 208.579 852.198 208.33 851.927 208.14C851.656 207.95 851.301 207.807 850.865 207.715C850.43 207.624 849.892 207.576 849.255 207.576H842.234V212.214H849.255C849.892 212.214 850.43 212.178 850.865 212.104C851.301 212.031 851.656 211.903 851.927 211.724C852.198 211.544 852.392 211.31 852.509 211.024C852.626 210.732 852.685 210.377 852.685 209.959Z" fill="#C6D8D9"/>
<path d="M865.91 221.735V203.736H870.771V217.793H883.909V221.735H865.91Z" fill="#C6D8D9"/>
<path d="M892.094 221.735V203.736H896.956V221.735H892.094Z" fill="#C6D8D9"/>
<path d="M923.883 221.735L911.741 209.37V221.735H906.88V203.736H912.158L924.315 216.153V203.736H929.147V221.735H923.883Z" fill="#C6D8D9"/>
<path d="M953.534 218.327H943.5L941.809 221.735H936.388L945.806 203.736H951.228L960.647 221.735H955.225L953.534 218.327ZM945.243 214.817H951.817L948.541 208.188L945.243 214.817Z" fill="#C6D8D9"/>
<path d="M972.749 221.735H967.887V203.736H980.07C981.38 203.736 982.49 203.872 983.405 204.143C984.316 204.413 985.059 204.798 985.63 205.296C986.201 205.793 986.619 206.394 986.875 207.097C987.131 207.799 987.259 208.583 987.259 209.45C987.259 210.208 987.153 210.874 986.937 211.442C986.725 212.009 986.436 212.496 986.073 212.902C985.711 213.309 985.29 213.649 984.81 213.931C984.331 214.209 983.822 214.443 983.291 214.627L989.185 221.739H983.5L978.049 215.11H972.745V221.735H972.749ZM982.351 209.421C982.351 209.073 982.307 208.777 982.211 208.532C982.12 208.286 981.959 208.089 981.732 207.935C981.505 207.781 981.201 207.671 980.82 207.602C980.44 207.532 979.967 207.499 979.4 207.499H972.745V211.35H979.4C979.967 211.35 980.44 211.314 980.82 211.244C981.201 211.175 981.505 211.061 981.732 210.911C981.959 210.761 982.12 210.56 982.211 210.314C982.307 210.069 982.351 209.769 982.351 209.421Z" fill="#C6D8D9"/>
<path d="M454.161 84.7042V147.224C454.161 152.081 450.222 156.013 445.372 156.013H387.34C382.49 156.013 378.559 152.081 378.559 147.224V84.7042H396.137V138.442H436.594V84.7042H454.161V84.7042Z" fill="#C6D8D9"/>
<path d="M572.219 84.7042V102.275H550.732V156.013H533.153V102.275H520.839L512.057 117.489L495.131 146.814C494.995 147.063 494.852 147.315 494.706 147.55C491.627 152.623 486.052 156.013 479.683 156.013H462.943V138.435H479.676L488.457 123.221L505.391 93.9033C505.527 93.6544 505.67 93.4018 505.816 93.1676C508.894 88.0939 514.477 84.7042 520.839 84.7042H572.219V84.7042Z" fill="#C6D8D9"/>
<path d="M685.116 135.338L655.81 84.6968L635.435 84.7078L676.697 156.006L693.437 156.013L734.648 84.7078L714.317 84.7005L685.116 135.338Z" fill="#C6D8D9"/>
<path d="M660.77 156.009H640.384L618.065 117.335L609.283 102.121H598.576V156.006H581.005V84.5468H609.287C615.649 84.5468 621.231 87.9365 624.31 93.0101C624.46 93.2517 624.599 93.497 624.735 93.7459L660.77 156.009Z" fill="#C6D8D9"/>
<path d="M816.426 92.5892C815.972 88.1525 812.238 84.7079 807.692 84.7079H749.675C745.128 84.7079 741.38 88.1525 740.926 92.5892C740.897 92.8784 740.886 93.1822 740.886 93.486V147.216C740.886 152.081 744.814 156.006 749.664 156.006H807.696C812.546 156.006 816.47 152.078 816.47 147.216V93.486C816.466 93.1822 816.452 92.8784 816.426 92.5892ZM798.899 138.427H758.435V102.275H798.899V138.427Z" fill="#C6D8D9"/>
<path d="M309.604 102.275V138.442H350.061V124.879H367.632V147.224C367.632 152.081 363.7 156.013 358.85 156.013H300.815C295.964 156.013 292.033 152.081 292.033 147.224V93.4934C292.033 88.643 295.964 84.7042 300.815 84.7042H367.628V102.275H309.604Z" fill="#C6D8D9"/>
<path d="M877.979 102.275V138.442L936.011 138.435V156.013H869.19C864.34 156.013 860.408 152.074 860.408 147.224V93.3396C860.408 89.0567 863.476 85.4839 867.536 84.7079H936.011V102.279H877.979V102.275Z" fill="#C6D8D9"/>
<path d="M1020.34 92.5892C1019.89 88.1525 1016.16 84.7079 1011.61 84.7079H953.593C949.046 84.7079 945.298 88.1525 944.844 92.5892C944.815 92.8784 944.804 93.1822 944.804 93.486V147.216C944.804 152.067 948.732 156.006 953.582 156.006H1011.61C1016.46 156.006 1020.39 152.067 1020.39 147.216V93.486C1020.38 93.1822 1020.37 92.8784 1020.34 92.5892ZM1002.82 138.427H962.353V102.275H1002.82V138.427Z" fill="#C6D8D9"/>
<path d="M1138.45 84.7042V102.275H1116.96V156.013H1099.39V102.275H1087.07L1078.29 117.489L1061.36 146.814C1061.23 147.063 1061.09 147.315 1060.94 147.55C1057.86 152.623 1052.28 156.013 1045.92 156.013H1029.18V138.435H1045.91L1054.69 123.228L1071.62 93.9033C1071.75 93.6544 1071.9 93.4018 1072.04 93.1676C1075.13 88.0939 1080.7 84.7042 1087.07 84.7042H1138.45V84.7042Z" fill="#C6D8D9"/>
<path d="M1227 156.009H1206.61L1184.29 117.335L1175.51 102.118H1164.81V156.009H1147.24V84.5468H1175.51C1181.88 84.5468 1187.46 87.9329 1190.54 93.0028C1190.69 93.2444 1190.83 93.4897 1190.96 93.7386L1227 156.009Z" fill="#C6D8D9"/>
<path d="M211.858 51.8978C195.598 35.6374 170.889 32.3794 151.096 43.6468L148.574 45.1623C143.5 48.2884 138.514 51.5683 133.627 54.9983C129.48 57.9012 125.406 60.9139 121.401 64.0291C117.557 67.0198 113.783 70.1057 110.082 73.2831C104.13 78.3896 98.3646 83.7268 92.8005 89.2909C92.676 89.4154 92.5552 89.5362 92.4344 89.6606C83.5428 98.5779 75.2259 108.015 67.5386 117.895C64.4198 121.896 61.4108 125.974 58.5043 130.118C54.9535 135.18 51.5638 140.345 48.3388 145.602C48.2216 145.781 48.1081 145.961 48.002 146.148C46.794 148.117 45.7361 150.138 44.8246 152.202C42.4854 157.488 41.1127 163.038 40.6734 168.62C39.5387 182.984 44.6049 197.55 55.4074 208.349C72.0339 224.979 97.5923 228.006 117.608 215.739C117.795 215.63 117.978 215.516 118.158 215.395C123.411 212.174 128.568 208.788 133.627 205.241C137.775 202.338 141.853 199.322 145.857 196.206C149.697 193.216 153.468 190.133 157.169 186.956C163.121 181.853 168.89 176.509 174.454 170.944C174.579 170.82 174.703 170.696 174.824 170.571C183.708 161.661 192.025 152.228 199.712 142.344C202.831 138.343 205.844 134.265 208.747 130.118C212.18 125.223 215.46 120.234 218.59 115.157L220.116 112.616C220.969 111.112 221.742 109.582 222.426 108.03C224.769 102.74 226.149 97.1905 226.592 91.6154C227.731 77.2585 222.672 62.7112 211.858 51.8978ZM210.786 98.1569C209.933 100.954 208.728 103.684 207.165 106.287L205.741 108.582V108.601C203.794 111.734 201.784 114.831 199.712 117.891C196.908 122.039 193.994 126.117 190.967 130.118C182.826 140.909 173.905 151.163 164.289 160.779C160.101 164.967 155.792 169.023 151.37 172.94C145.638 178.024 139.719 182.867 133.631 187.461C133.455 187.593 133.283 187.725 133.107 187.856C129.271 190.741 125.365 193.523 121.401 196.206C117.828 198.622 114.204 200.958 110.532 203.205L110.349 203.323L110.174 203.429C95.8388 212.265 77.4992 210.109 65.5729 198.183C59.7342 192.344 56.2347 184.976 55.2207 177.292C54.5508 172.24 54.9535 167.053 56.469 162.078C57.3621 159.146 58.6434 156.287 60.3163 153.571L60.5396 153.212C62.7872 149.541 65.1226 145.917 67.5386 142.344C70.3427 138.2 73.2565 134.122 76.2802 130.118C84.4214 119.334 93.3459 109.08 102.966 99.4564C107.157 95.265 111.466 91.2091 115.888 87.2959C121.617 82.215 127.54 77.3683 133.631 72.7743C133.799 72.6425 133.971 72.5143 134.147 72.3826C137.983 69.5017 141.889 66.7123 145.861 64.0327C148.918 61.9608 152.015 59.9512 155.144 58.0074L157.443 56.5907C171.731 48.0029 189.84 50.2139 201.689 62.0633C207.531 67.9056 211.031 75.2708 212.041 82.9508C212.711 87.9987 212.305 93.1822 210.786 98.1569Z" fill="url(#paint0_linear)"/>
<path d="M226.592 91.6154C222.339 87.9841 217.437 85.0337 212.041 82.9508C210.445 82.3285 208.805 81.7867 207.125 81.3255L204.27 80.6153C188.844 76.951 173.081 74.4984 157.172 73.2831C149.525 72.6974 141.842 72.3972 134.147 72.3826H133.107C125.409 72.3972 117.729 72.6974 110.082 73.2831C93.9499 74.5131 77.9787 77.0169 62.3698 80.758C62.1612 80.8056 61.9525 80.8496 61.7475 80.9081C59.4999 81.4463 57.3219 82.1308 55.217 82.9434C49.8249 85.03 44.9307 87.9804 40.6734 91.6154C29.7136 100.968 23 114.853 23 130.125C23 145.393 29.7136 159.271 40.6734 168.62C44.9307 172.259 49.8286 175.209 55.2207 177.292C57.3255 178.108 59.5109 178.793 61.7585 179.331C61.9672 179.39 62.1758 179.437 62.3881 179.481C77.9933 183.222 93.9609 185.722 110.086 186.956C117.729 187.545 125.413 187.842 133.107 187.856H134.154C141.845 187.842 149.522 187.542 157.169 186.956C173.085 185.737 188.855 183.284 204.284 179.62L207.158 178.903C208.827 178.445 210.452 177.907 212.038 177.292C217.433 175.209 222.331 172.259 226.588 168.627C237.545 159.282 244.255 145.415 244.255 130.125C244.255 114.831 237.548 100.965 226.592 91.6154ZM222.43 152.213C219.333 156.254 215.38 159.637 210.786 162.078C208.205 163.455 205.426 164.531 202.48 165.267L199.848 165.882L199.833 165.897C191.586 167.818 183.24 169.381 174.824 170.571C167.056 171.677 159.23 172.467 151.37 172.94C145.469 173.298 139.55 173.478 133.627 173.478C127.701 173.478 121.785 173.298 115.888 172.94C108.029 172.467 100.199 171.68 92.4344 170.575C83.4001 169.297 74.4462 167.591 65.6168 165.468L65.4045 165.424L65.2032 165.373C62.099 164.637 59.1741 163.521 56.4689 162.078C51.8749 159.633 47.9214 156.247 44.8246 152.202C40.1133 146.052 37.3789 138.372 37.3789 130.125C37.3789 121.874 40.1134 114.19 44.8282 108.037C47.9251 103.988 51.8785 100.606 56.4689 98.1569C59.1741 96.7147 62.099 95.5982 65.2032 94.8624L65.6168 94.7672C74.4462 92.6441 83.4001 90.9382 92.4344 89.6606C100.199 88.5551 108.029 87.7681 115.888 87.2959C121.785 86.9372 127.701 86.7578 133.627 86.7578C139.55 86.7578 145.469 86.9372 151.367 87.2959C159.226 87.7681 167.056 88.5588 174.824 89.6643C183.24 90.854 191.586 92.4171 199.833 94.3426L202.461 94.9649C205.412 95.7007 208.201 96.7805 210.786 98.1569C215.38 100.606 219.333 103.985 222.426 108.03C227.141 114.176 229.876 121.859 229.876 130.125C229.876 138.387 227.141 146.067 222.43 152.213Z" fill="url(#paint1_linear)"/>
<path d="M226.589 168.627C226.149 163.049 224.769 157.499 222.43 152.213C221.738 150.646 220.962 149.102 220.098 147.586L218.583 145.068C215.457 139.994 212.177 135.008 208.747 130.118C205.84 125.97 202.828 121.896 199.712 117.891C192.021 108.011 183.708 98.5779 174.824 89.6643C174.703 89.5398 174.579 89.4154 174.454 89.2909C168.89 83.7268 163.125 78.386 157.172 73.2831C153.472 70.1057 149.697 67.0198 145.861 64.0327C141.853 60.9139 137.775 57.9012 133.627 54.9983C128.565 51.4439 123.4 48.0542 118.143 44.8328C117.964 44.7157 117.784 44.6022 117.598 44.496C97.5887 32.2293 72.0303 35.2677 55.3965 51.8978C44.6014 62.6929 39.5387 77.2548 40.6735 91.6154C41.1128 97.1978 42.4892 102.747 44.8283 108.037C45.7398 110.101 46.8014 112.129 48.0094 114.099C48.1155 114.286 48.229 114.469 48.3498 114.648C51.5712 119.901 54.9572 125.059 58.5043 130.118C61.4109 134.265 64.4236 138.339 67.5387 142.344C75.226 152.224 83.5429 161.658 92.4345 170.575C92.5553 170.699 92.6761 170.82 92.8006 170.944C98.3647 176.509 104.13 181.849 110.086 186.956C113.787 190.133 117.557 193.216 121.401 196.206C125.402 199.322 129.48 202.334 133.627 205.241C138.522 208.674 143.511 211.958 148.588 215.084L151.129 216.607C170.918 227.86 195.601 224.594 211.847 208.349C222.661 197.535 227.727 182.984 226.589 168.627ZM201.682 198.183C189.84 210.021 171.745 212.232 157.462 203.659L155.163 202.232H155.144C152.011 200.284 148.914 198.278 145.857 196.206C141.889 193.523 137.987 190.741 134.155 187.856C133.979 187.728 133.803 187.597 133.631 187.461C127.54 182.867 121.617 178.02 115.888 172.939C111.466 169.026 107.158 164.97 102.966 160.779C93.346 151.159 84.4215 140.902 76.2803 130.118C73.2566 126.117 70.3428 122.039 67.5387 117.895C65.1227 114.322 62.7873 110.698 60.5396 107.027L60.4225 106.84L60.3164 106.664C58.6435 103.948 57.3622 101.089 56.4691 98.1569C54.9536 93.1785 54.5509 87.9914 55.2171 82.9434C56.2348 75.2635 59.7307 67.8946 65.562 62.0633C77.4956 50.1297 95.8426 47.97 110.174 56.8067L110.533 57.03C114.204 59.2776 117.828 61.6131 121.401 64.0291C125.365 66.7123 129.271 69.498 133.108 72.3826C133.283 72.5143 133.459 72.6461 133.631 72.7742C139.719 77.3683 145.638 82.215 151.367 87.2959C155.789 91.2091 160.097 95.2687 164.289 99.4601C173.905 109.077 182.826 119.33 190.967 130.118C193.994 134.119 196.908 138.197 199.712 142.344C201.784 145.404 203.794 148.501 205.741 151.635L207.154 153.934C208.721 156.544 209.929 159.278 210.786 162.078C212.305 167.057 212.711 172.24 212.038 177.292C211.024 184.972 207.524 192.341 201.682 198.183Z" fill="url(#paint2_linear)"/>
<path d="M157.407 130.114C157.407 143.226 146.743 153.89 133.635 153.89C120.511 153.89 109.844 143.226 109.844 130.114C109.844 117.005 120.511 106.342 133.635 106.342C146.743 106.342 157.407 117.005 157.407 130.114Z" fill="url(#paint3_linear)"/>
<defs>
<linearGradient id="paint0_linear" x1="55.397" y1="208.356" x2="211.846" y2="51.9062" gradientUnits="userSpaceOnUse">
<stop stop-color="#DB5393"/>
<stop offset="1" stop-color="#4DC0F6"/>
</linearGradient>
<linearGradient id="paint1_linear" x1="22.9989" y1="130.118" x2="244.253" y2="130.118" gradientUnits="userSpaceOnUse">
<stop stop-color="#DB5393"/>
<stop offset="1" stop-color="#4DC0F6"/>
</linearGradient>
<linearGradient id="paint2_linear" x1="55.4115" y1="51.8777" x2="211.861" y2="208.327" gradientUnits="userSpaceOnUse">
<stop stop-color="#DB5393"/>
<stop offset="1" stop-color="#4DC0F6"/>
</linearGradient>
<linearGradient id="paint3_linear" x1="109.843" y1="130.115" x2="157.405" y2="130.115" gradientUnits="userSpaceOnUse">
<stop stop-color="#DB5393"/>
<stop offset="1" stop-color="#4DC0F6"/>
</linearGradient>
</defs>
</svg>
