<svg width="1440" height="73" viewBox="0 0 1440 73" fill="none" xmlns="http://www.w3.org/2000/svg">
<g clip-path="url(#clip0)">
<path fill-rule="evenodd" clip-rule="evenodd" d="M117 33.2164H0V73.2164H1440V33.2164H1323L1310.5 46.7164H129L117 33.2164Z" fill="#13303E"/>
<g filter="url(#filter0_dd)">
<path d="M121.893 46.6218L111.366 35.5406H103.609L114.136 46.6218H121.893Z" fill="#DDE8E8"/>
<path d="M110.812 46.6218L100.285 35.5406H92.5279L103.055 46.6218H110.812Z" fill="#DDE8E8"/>
<path d="M99.7307 46.6218L89.2035 35.5406H81.4467L91.9738 46.6218H99.7307Z" fill="#DDE8E8"/>
<path d="M88.6495 46.6218L78.1224 35.5406H70.3655L80.8927 46.6218H88.6495Z" fill="#DDE8E8"/>
<path d="M116.352 30H0V39.419H22.7164L28.257 33.8784H113.028L127.988 49.3921H227.926L232.151 52.7164H707.534V43.8515H129.65L116.352 30Z" fill="#DDE8E8"/>
<path d="M1318.11 46.6218L1328.63 35.5406H1336.39L1325.86 46.6218H1318.11Z" fill="#DDE8E8"/>
<path d="M1329.19 46.6218L1339.72 35.5406H1347.47L1336.94 46.6218H1329.19Z" fill="#DDE8E8"/>
<path d="M1340.27 46.6218L1350.8 35.5406H1358.55L1348.03 46.6218H1340.27Z" fill="#DDE8E8"/>
<path d="M1351.35 46.6218L1361.88 35.5406H1369.63L1359.11 46.6218H1351.35Z" fill="#DDE8E8"/>
<path d="M1323.65 30H1440V39.419H1417.28L1411.74 33.8784H1326.97L1312.01 49.3921H1212.07L1207.85 52.7164H700.466V43.8515H1310.35L1323.65 30Z" fill="#DDE8E8"/>
</g>
</g>
<defs>
<filter id="filter0_dd" x="-17" y="9" width="1474" height="56.7164" filterUnits="userSpaceOnUse" color-interpolation-filters="sRGB">
<feFlood flood-opacity="0" result="BackgroundImageFix"/>
<feColorMatrix in="SourceAlpha" type="matrix" values="0 0 0 0 0 0 0 0 0 0 0 0 0 0 0 0 0 0 127 0"/>
<feOffset dy="-0.5"/>
<feGaussianBlur stdDeviation="1.06433"/>
<feColorMatrix type="matrix" values="0 0 0 0 0.00392157 0 0 0 0 0.992157 0 0 0 0 0.992157 0 0 0 0.15 0"/>
<feBlend mode="normal" in2="BackgroundImageFix" result="effect1_dropShadow"/>
<feColorMatrix in="SourceAlpha" type="matrix" values="0 0 0 0 0 0 0 0 0 0 0 0 0 0 0 0 0 0 127 0"/>
<feOffset dy="-4"/>
<feGaussianBlur stdDeviation="8.5"/>
<feColorMatrix type="matrix" values="0 0 0 0 0.00392157 0 0 0 0 0.992157 0 0 0 0 0.992157 0 0 0 0.25 0"/>
<feBlend mode="normal" in2="effect1_dropShadow" result="effect2_dropShadow"/>
<feBlend mode="normal" in="SourceGraphic" in2="effect2_dropShadow" result="shape"/>
</filter>
<clipPath id="clip0">
<rect width="1440" height="73" fill="white"/>
</clipPath>
</defs>
</svg>
